M48
;Layer_Color=9474304
;FILE_FORMAT=4:4
METRIC,LZ
;TYPE=PLATED
T1F00S00C0.5000
T2F00S00C0.7000
T3F00S00C0.8000
T4F00S00C1.0000
T5F00S00C1.2000
T6F00S00C1.5000
T7F00S00C1.7000
%
T01
X00092Y00033
X00101Y0004175
X001085Y0001575
X00122Y0002925
X0013775Y000455
X001295Y000685
X00143Y000755
X0014325Y00088
X0019325Y000685
X001945Y0004625
X0027875Y0005025
X0027975Y0003525
X0029475Y000355
X0029875Y00075
X00323Y000635
X0034975Y000645
Y00082
X0034625Y000405
X00333266Y00046002
X00346267Y00016251
X00361018Y00026955
X00373518Y00027001
X0039525Y000815
X00422271Y00082504
X00425771Y00054003
X00458272Y00045752
X00459272Y00033252
X0046575Y00014
X00489086Y00022367
X00487195Y00034867
X00489274Y00057054
X00462523Y00058253
X00535Y0005875
X00527526Y00032502
X00566528Y00053753
X00567278Y00066253
Y00079004
X00579778Y00081504
X00590029Y00067503
X00602529Y00069753
X0059275Y00055
X006195Y000405
X006575Y00032
X00673783Y00028751
X00670533Y00048752
X0068525Y00068
X00660084Y00074055
X00659282Y00091255
X006105Y0008675
X0071825Y0008375
X00732Y001085
X00692Y0013225
X00663408Y00146929
X0066025Y001805
X00651Y00205
X0067275Y002115
X00659782Y00230761
X0064925Y00238
X0063025Y002315
X006275Y00252
X0062775Y002655
X0061675Y002725
X0062225Y002855
X0061675Y00297
X0062825Y0030975
X0063325Y0033375
X006245Y0034375
X006385Y0035625
X0065825Y00351
X00654Y003275
X00662Y00303
X0066225Y0026775
X0064325Y002765
X0064Y00289
X00584278Y00301265
X00589Y0031325
X00576Y0032225
X0057Y0029125
X0056825Y0025775
X0057675Y002285
X00583279Y0021026
X0061725Y00217
X0061925Y00204
X0061253Y00177759
X00640781Y00161258
X0061275Y00123213
X0060653Y00111756
X006095Y0009925
X00584Y0011475
X005715Y00110659
X00557277Y00112255
X00559267Y00130267
X00546488Y001305
X00534776Y00116756
X00539276Y00104255
X0050925Y0016875
X0055975Y0018675
X00538Y00211
X0054412Y002334
X0053025Y0027625
X00533276Y00329766
X004975Y003325
X004965Y00302
X0054525Y0037225
X0058275Y0037075
X0058325Y0038975
X00593Y00344
X0062125Y0036875
X00661032Y00377768
X0066125Y004235
X0067275Y004135
X006845Y003475
X007245Y0034775
X007295Y0032075
X0072925Y0028475
X0073Y002505
X00692Y002325
X00719Y002035
X0061725Y002425
X00671533Y00104505
X00471Y0011975
X0048475Y0014125
X00432Y001385
X004185Y00136
X00419771Y00163008
X0043325Y00163
X00444Y0018
X0044775Y0022275
X00456942Y00239692
X0046Y002675
X00485024Y00275763
Y00254512
X004855Y0021825
Y0020575
X003895Y002095
X00376518Y0021151
X00382769Y00194009
X003695Y0018975
X0039225Y00231
X00391769Y00244012
X0039525Y0025725
Y0026875
X00395Y0028075
X003135Y0027625
X00316045Y00294205
X003235Y00305
X00316515Y00329516
X0030325Y0034375
X003035Y003635
X003195Y0037575
X0026725Y003695
X0026875Y0032625
X00288
X0029225Y003025
X0028025Y00295
X00291264Y00265013
X0032575Y00261
X00326266Y00248262
X00255Y002525
X002575Y00271
X0021775Y0026325
X002245Y0025225
X00204Y0024825
X0018875Y00247
X001785Y0023825
X0017675Y00212
X00166Y0020075
X00145Y0021
X0011525Y00187
X00106Y0019575
X001025Y0024525
X001125Y002665
X0013025Y00277
X001245Y00289
X00133Y0025575
X00105Y00316
X0011075Y0035875
X00121Y0034875
X001405Y00349
X0016775Y0035275
X0018325Y003455
X00197Y0032925
X0018575Y0031625
X0016175Y00316
X0021225Y003175
X0021775Y0030525
X0022225Y00342
X0022275Y0037175
X00223Y0039175
X0018475Y0039875
X00182Y003825
X0016775Y0038175
X0015175Y0037675
X001325Y00375
X0010375Y0037525
X0014325Y004245
X001595Y00425
X0020425Y00426
X0026625Y0042475
X00304Y00426
X00349Y0042525
X004385Y00426
X00445Y003845
X0042475Y0038
X004105
X00396Y0038025
X0046Y003675
X004925Y00375
Y003875
X00385019Y00135257
X003545Y0012375
X00341767Y00123256
X00329Y0011725
X0031225Y00098569
X0035275Y0010275
X0026975Y00177
X002695Y002225
X00237Y001965
X00197Y0014375
X0017Y0014
Y0015
X0015925Y0012825
X0014975Y001095
X00131Y0015
X0013225Y0016025
X0005825Y00222
X0004825
X0003825
X000765Y002555
X000695Y003015
X000685Y0031675
X0006825Y00332
X00093Y0033975
X0008825Y0035825
X00038Y00294
T02
X005595Y001645
X0055075Y0017625
T03
X004155Y0004425
X0041325Y000615
X0070775Y001085
Y001575
X0053275Y0038225
X0051675Y0038225
Y0040725
X0053275
T04
X005675Y000135
X005929
X006183
X006437
X006691
X006945
X0024575Y002205
X0033675Y00405
X0015225Y0040525
X00069Y00399
T05
X000925Y0006
Y00095
X0067625Y0025
Y00285
Y0032
X00125Y00421
X00095
X00065
X000925Y001725
Y001475
Y001225
T06
X00068Y000215
X0001575Y0012975
T07
X00016Y00099
M30
