G04 Layer_Physical_Order=2*
G04 Layer_Color=16711680*
%FSLAX44Y44*%
%MOMM*%
G71*
G01*
G75*
%ADD16C,1.0000*%
G04:AMPARAMS|DCode=17|XSize=1.034mm|YSize=1.42mm|CornerRadius=0.2585mm|HoleSize=0mm|Usage=FLASHONLY|Rotation=180.000|XOffset=0mm|YOffset=0mm|HoleType=Round|Shape=RoundedRectangle|*
%AMROUNDEDRECTD17*
21,1,1.0340,0.9030,0,0,180.0*
21,1,0.5170,1.4200,0,0,180.0*
1,1,0.5170,-0.2585,0.4515*
1,1,0.5170,0.2585,0.4515*
1,1,0.5170,0.2585,-0.4515*
1,1,0.5170,-0.2585,-0.4515*
%
%ADD17ROUNDEDRECTD17*%
G04:AMPARAMS|DCode=18|XSize=1.034mm|YSize=1.42mm|CornerRadius=0.2585mm|HoleSize=0mm|Usage=FLASHONLY|Rotation=90.000|XOffset=0mm|YOffset=0mm|HoleType=Round|Shape=RoundedRectangle|*
%AMROUNDEDRECTD18*
21,1,1.0340,0.9030,0,0,90.0*
21,1,0.5170,1.4200,0,0,90.0*
1,1,0.5170,0.4515,0.2585*
1,1,0.5170,0.4515,-0.2585*
1,1,0.5170,-0.4515,-0.2585*
1,1,0.5170,-0.4515,0.2585*
%
%ADD18ROUNDEDRECTD18*%
G04:AMPARAMS|DCode=19|XSize=1.25mm|YSize=1.84mm|CornerRadius=0.3125mm|HoleSize=0mm|Usage=FLASHONLY|Rotation=90.000|XOffset=0mm|YOffset=0mm|HoleType=Round|Shape=RoundedRectangle|*
%AMROUNDEDRECTD19*
21,1,1.2500,1.2150,0,0,90.0*
21,1,0.6250,1.8400,0,0,90.0*
1,1,0.6250,0.6075,0.3125*
1,1,0.6250,0.6075,-0.3125*
1,1,0.6250,-0.6075,-0.3125*
1,1,0.6250,-0.6075,0.3125*
%
%ADD19ROUNDEDRECTD19*%
G04:AMPARAMS|DCode=38|XSize=2mm|YSize=2mm|CornerRadius=0.5mm|HoleSize=0mm|Usage=FLASHONLY|Rotation=0.000|XOffset=0mm|YOffset=0mm|HoleType=Round|Shape=RoundedRectangle|*
%AMROUNDEDRECTD38*
21,1,2.0000,1.0000,0,0,0.0*
21,1,1.0000,2.0000,0,0,0.0*
1,1,1.0000,0.5000,-0.5000*
1,1,1.0000,-0.5000,-0.5000*
1,1,1.0000,-0.5000,0.5000*
1,1,1.0000,0.5000,0.5000*
%
%ADD38ROUNDEDRECTD38*%
%ADD55C,0.2000*%
%ADD56C,0.5000*%
%ADD57C,0.7000*%
%ADD58C,0.3000*%
%ADD61C,1.5000*%
%ADD62C,1.0000*%
%ADD64C,2.0000*%
%ADD65C,0.9000*%
%ADD66C,1.2000*%
%ADD67C,2.5000*%
%ADD68C,2.2000*%
%ADD69R,2.0000X2.0000*%
%ADD70R,2.0000X2.0000*%
%ADD71C,1.5000*%
%ADD72R,1.3500X1.3500*%
%ADD73C,1.3500*%
%ADD74C,2.0000*%
%ADD75C,1.3000*%
G04:AMPARAMS|DCode=76|XSize=1.6mm|YSize=1.5mm|CornerRadius=0.375mm|HoleSize=0mm|Usage=FLASHONLY|Rotation=180.000|XOffset=0mm|YOffset=0mm|HoleType=Round|Shape=RoundedRectangle|*
%AMROUNDEDRECTD76*
21,1,1.6000,0.7500,0,0,180.0*
21,1,0.8500,1.5000,0,0,180.0*
1,1,0.7500,-0.4250,0.3750*
1,1,0.7500,0.4250,0.3750*
1,1,0.7500,0.4250,-0.3750*
1,1,0.7500,-0.4250,-0.3750*
%
%ADD76ROUNDEDRECTD76*%
%ADD77O,1.6000X1.5000*%
%ADD78C,4.5000*%
%ADD79C,5.5000*%
%ADD80R,0.5000X0.4000*%
%ADD81C,0.4000*%
G36*
X310887Y70116D02*
X312210Y69232D01*
X313771Y68922D01*
X313771Y68922D01*
X398108D01*
X398634Y67652D01*
X397866Y66884D01*
X396982Y65561D01*
X396672Y64000D01*
X396672Y64000D01*
Y50892D01*
X396339Y50626D01*
X395466Y50302D01*
X388382Y57386D01*
X387058Y58270D01*
X385498Y58581D01*
X385498Y58581D01*
X314301D01*
X303998Y68884D01*
X302675Y69768D01*
X301114Y70078D01*
X301114Y70078D01*
X296689D01*
X281019Y85748D01*
X281505Y86922D01*
X294081D01*
X310887Y70116D01*
D02*
G37*
G36*
X716645Y429292D02*
X715890Y428309D01*
X714580Y425145D01*
X714133Y421750D01*
X714374Y419919D01*
X713405Y419098D01*
X709999Y420131D01*
X705000Y420623D01*
X700001Y420131D01*
X695194Y418673D01*
X690764Y416305D01*
X686881Y413119D01*
X683695Y409236D01*
X681327Y404806D01*
X679869Y399999D01*
X679377Y395000D01*
X679869Y390001D01*
X681327Y385194D01*
X683695Y380764D01*
X686881Y376881D01*
X690764Y373695D01*
X695194Y371327D01*
X700001Y369869D01*
X705000Y369377D01*
X709999Y369869D01*
X714806Y371327D01*
X719236Y373695D01*
X723119Y376881D01*
X726305Y380764D01*
X728673Y385194D01*
X730131Y390001D01*
X730623Y395000D01*
X730131Y399999D01*
X728673Y404806D01*
X727281Y407410D01*
X728014Y408733D01*
X730645Y409080D01*
X733809Y410390D01*
X735292Y411529D01*
X736431Y410967D01*
Y340000D01*
Y270000D01*
Y29664D01*
X736287Y29592D01*
X735161Y29171D01*
X732145Y30420D01*
X728750Y30867D01*
X727728Y30733D01*
X726916Y31907D01*
X728673Y35194D01*
X730131Y40001D01*
X730623Y45000D01*
X730131Y49999D01*
X728673Y54806D01*
X726305Y59236D01*
X723119Y63119D01*
X719236Y66305D01*
X714806Y68673D01*
X709999Y70131D01*
X705000Y70623D01*
X700001Y70131D01*
X695194Y68673D01*
X694556Y68332D01*
X693182Y69038D01*
X693044Y70088D01*
X692238Y72035D01*
X690956Y73706D01*
X689285Y74988D01*
X687338Y75794D01*
X685250Y76069D01*
X683161Y75794D01*
X681216Y74988D01*
X679544Y73706D01*
X678262Y72035D01*
X677456Y70088D01*
X677181Y68000D01*
X677449Y65966D01*
X675899Y64417D01*
X675015Y63094D01*
X674704Y61533D01*
X674704Y61533D01*
Y54738D01*
X674704Y54738D01*
X674922Y53646D01*
Y45669D01*
X674084Y44831D01*
X668382D01*
X665078Y48134D01*
X663755Y49018D01*
X662195Y49328D01*
X662195Y49328D01*
X633689D01*
X630384Y52634D01*
X629061Y53518D01*
X627500Y53828D01*
X627500Y53828D01*
X614000D01*
X614000Y53828D01*
X612439Y53518D01*
X611116Y52634D01*
X611116Y52634D01*
X597561Y39078D01*
X549939D01*
X539134Y49884D01*
X537811Y50768D01*
X536250Y51078D01*
X536250Y51078D01*
X496373D01*
X495747Y52348D01*
X496262Y53020D01*
X497068Y54966D01*
X497343Y57054D01*
X497068Y59143D01*
X496262Y61089D01*
X494980Y62760D01*
X493308Y64042D01*
X491362Y64848D01*
X489274Y65123D01*
X487186Y64848D01*
X485239Y64042D01*
X483568Y62760D01*
X482286Y61089D01*
X481480Y59143D01*
X481205Y57054D01*
X481480Y54966D01*
X481803Y54185D01*
X477449Y49831D01*
X465227D01*
X463978Y51458D01*
X462307Y52740D01*
X460361Y53546D01*
X458272Y53821D01*
X456184Y53546D01*
X454238Y52740D01*
X452567Y51458D01*
X451284Y49787D01*
X450478Y47841D01*
X450203Y45752D01*
X450478Y43664D01*
X451284Y41718D01*
X452567Y40047D01*
X452799Y39869D01*
X452949Y38152D01*
X452284Y37286D01*
X451478Y35340D01*
X451203Y33252D01*
X451478Y31163D01*
X451918Y30101D01*
X451070Y28831D01*
X443429D01*
X443428Y28831D01*
X441868Y28520D01*
X440545Y27636D01*
X427237Y14328D01*
X355046D01*
X354208Y15283D01*
X354336Y16251D01*
X354061Y18339D01*
X353255Y20285D01*
X351973Y21957D01*
X350301Y23239D01*
X348355Y24045D01*
X346267Y24320D01*
X344179Y24045D01*
X342232Y23239D01*
X340561Y21957D01*
X339279Y20285D01*
X338473Y18339D01*
X338198Y16251D01*
X338473Y14162D01*
X339279Y12216D01*
X340336Y10839D01*
X339906Y9569D01*
X87500D01*
Y47000D01*
X105500D01*
Y73000D01*
X87500D01*
Y82460D01*
X90000D01*
Y95000D01*
Y107540D01*
X87500D01*
Y109500D01*
X105500D01*
Y113069D01*
X106770Y113708D01*
X107162Y113417D01*
Y100750D01*
X107511Y98994D01*
X108506Y97506D01*
X133756Y72256D01*
X135244Y71261D01*
X136335Y71044D01*
X137294Y69794D01*
X138966Y68512D01*
X140912Y67706D01*
X143000Y67431D01*
X145088Y67706D01*
X147035Y68512D01*
X148706Y69794D01*
X149988Y71466D01*
X150794Y73412D01*
X151069Y75500D01*
X150794Y77588D01*
X149988Y79535D01*
X148706Y81206D01*
X149110Y82496D01*
X149471Y82966D01*
X151156Y83076D01*
X155116Y79116D01*
X155116Y79116D01*
X156439Y78232D01*
X158000Y77922D01*
X158000Y77922D01*
X270311D01*
X289616Y58616D01*
X290939Y57732D01*
X292500Y57422D01*
X292500Y57422D01*
X297561D01*
X309866Y45116D01*
X309866Y45116D01*
X311189Y44232D01*
X312750Y43922D01*
X312750Y43922D01*
X317561D01*
X321878Y39605D01*
X321882Y39598D01*
X324978Y36502D01*
X324492Y35328D01*
X302969D01*
X302819Y35500D01*
X302544Y37588D01*
X301738Y39534D01*
X300456Y41206D01*
X298785Y42488D01*
X296838Y43294D01*
X294750Y43569D01*
X292662Y43294D01*
X290716Y42488D01*
X289044Y41206D01*
X287762Y39534D01*
X286956Y37588D01*
X286681Y35500D01*
X286956Y33412D01*
X287762Y31465D01*
X289044Y29794D01*
X290716Y28512D01*
X292662Y27706D01*
X294750Y27431D01*
X296838Y27706D01*
X297003Y27774D01*
X297439Y27482D01*
X299000Y27172D01*
X299000Y27172D01*
X352759D01*
X352949Y26955D01*
X353224Y24867D01*
X354030Y22921D01*
X355312Y21250D01*
X356984Y19967D01*
X358930Y19161D01*
X361018Y18886D01*
X363107Y19161D01*
X365053Y19967D01*
X366724Y21250D01*
X368157Y21031D01*
X369484Y20013D01*
X371430Y19207D01*
X373518Y18932D01*
X375607Y19207D01*
X376088Y19407D01*
X377270Y19172D01*
X377270Y19172D01*
X426250D01*
X426250Y19172D01*
X427811Y19482D01*
X429134Y20366D01*
X442134Y33366D01*
X443018Y34689D01*
X443328Y36250D01*
X443328Y36250D01*
Y52561D01*
X457743Y66976D01*
X493383D01*
X495993Y64366D01*
X497316Y63482D01*
X498877Y63172D01*
X498877Y63172D01*
X539320D01*
X560123Y42369D01*
X560123Y42369D01*
X561446Y41485D01*
X563007Y41174D01*
X563007Y41174D01*
X572002D01*
X572003Y41174D01*
X573563Y41485D01*
X574887Y42369D01*
X580384Y47866D01*
X580384Y47866D01*
X581268Y49189D01*
X581578Y50750D01*
X581578Y50750D01*
Y53285D01*
X587995Y59702D01*
X590029Y59434D01*
X592117Y59709D01*
X594063Y60515D01*
X595734Y61798D01*
X596452Y62732D01*
X598120Y63053D01*
X598495Y62765D01*
X600441Y61959D01*
X602529Y61684D01*
X604618Y61959D01*
X606564Y62765D01*
X608235Y64048D01*
X609517Y65719D01*
X610323Y67665D01*
X610598Y69753D01*
X610323Y71842D01*
X609517Y73788D01*
X608235Y75459D01*
X606564Y76741D01*
X604618Y77547D01*
X602529Y77822D01*
X600441Y77547D01*
X598820Y76876D01*
X596857Y78840D01*
Y86889D01*
X596857Y86889D01*
X596546Y88449D01*
X595662Y89773D01*
X595662Y89773D01*
X585891Y99543D01*
X584568Y100427D01*
X583008Y100738D01*
X583008Y100738D01*
X559409D01*
X557849Y100427D01*
X556525Y99543D01*
X556525Y99543D01*
X550811Y93828D01*
X528099D01*
X520884Y101043D01*
X519561Y101927D01*
X518000Y102238D01*
X518000Y102238D01*
X424939D01*
X392952Y134225D01*
X393088Y135257D01*
X392813Y137345D01*
X392007Y139291D01*
X390724Y140962D01*
X389053Y142245D01*
X387107Y143051D01*
X385019Y143326D01*
X382930Y143051D01*
X380984Y142245D01*
X379313Y140962D01*
X378031Y139291D01*
X377225Y137345D01*
X376950Y135257D01*
X377225Y133168D01*
X378031Y131222D01*
X379313Y129551D01*
X380984Y128269D01*
X382930Y127463D01*
X385019Y127188D01*
X387107Y127463D01*
X387865Y127776D01*
X417390Y98252D01*
X416904Y97078D01*
X414939D01*
X393884Y118134D01*
X392561Y119018D01*
X391000Y119328D01*
X391000Y119328D01*
X352439D01*
X349682Y122086D01*
X349836Y123256D01*
X349561Y125344D01*
X348755Y127290D01*
X347472Y128962D01*
X345801Y130244D01*
X343855Y131050D01*
X341767Y131325D01*
X339678Y131050D01*
X337732Y130244D01*
X336061Y128962D01*
X334779Y127290D01*
X333973Y125344D01*
X333698Y123256D01*
X333973Y121168D01*
X334779Y119221D01*
X336061Y117550D01*
X337732Y116268D01*
X339678Y115462D01*
X341767Y115187D01*
X343855Y115462D01*
X344502Y115730D01*
X347866Y112366D01*
X347866Y112366D01*
X349189Y111482D01*
X350750Y111172D01*
X389311D01*
X410366Y90116D01*
X410366Y90116D01*
X411689Y89232D01*
X413250Y88922D01*
X415510D01*
X416137Y87652D01*
X415316Y86582D01*
X408275D01*
X408275Y86582D01*
X406714Y86272D01*
X405391Y85388D01*
X404176Y84173D01*
X402678Y84471D01*
X402238Y85534D01*
X400956Y87206D01*
X399285Y88488D01*
X397338Y89294D01*
X395250Y89569D01*
X393216Y89301D01*
X389134Y93384D01*
X387811Y94268D01*
X386250Y94578D01*
X386250Y94578D01*
X322008D01*
X320051Y96535D01*
X320319Y98569D01*
X320044Y100657D01*
X319238Y102604D01*
X317956Y104275D01*
X316285Y105557D01*
X314338Y106363D01*
X312250Y106638D01*
X310162Y106363D01*
X308216Y105557D01*
X306544Y104275D01*
X305262Y102604D01*
X304456Y100657D01*
X304181Y98569D01*
X304456Y96481D01*
X305262Y94535D01*
X306544Y92863D01*
X308216Y91581D01*
X310162Y90775D01*
X312250Y90500D01*
X314284Y90768D01*
X317435Y87616D01*
X317435Y87616D01*
X318758Y86732D01*
X320319Y86422D01*
X320319Y86422D01*
X384561D01*
X387449Y83534D01*
X387181Y81500D01*
X387456Y79412D01*
X387896Y78348D01*
X387048Y77078D01*
X315460D01*
X298655Y93884D01*
X297332Y94768D01*
X295771Y95078D01*
X295771Y95078D01*
X163824D01*
X155019Y103884D01*
X153695Y104768D01*
X152135Y105078D01*
X152135Y105078D01*
X146689D01*
X114578Y137189D01*
Y147500D01*
X114268Y149061D01*
X113384Y150384D01*
X113384Y150384D01*
X111578Y152189D01*
Y170250D01*
X111578Y170250D01*
X111268Y171811D01*
X110384Y173134D01*
X108134Y175384D01*
X106811Y176268D01*
X105500Y176529D01*
Y185500D01*
X87500D01*
Y217000D01*
X29760Y216988D01*
X28862Y217886D01*
Y312250D01*
X28612Y314149D01*
Y317569D01*
X55431Y344388D01*
X59234D01*
X59234Y344388D01*
X62628Y344835D01*
X65790Y346144D01*
X68506Y348228D01*
X102415Y382138D01*
X142250D01*
X142250Y382138D01*
X145644Y382585D01*
X148806Y383895D01*
X151522Y385978D01*
X161522Y395978D01*
X163605Y398694D01*
X164915Y401856D01*
X165362Y405250D01*
X164976Y408181D01*
X165657Y409210D01*
X165960Y409441D01*
X170000D01*
X171171Y409674D01*
X172163Y410337D01*
X172826Y411329D01*
X173059Y412500D01*
Y423000D01*
Y430431D01*
X194441D01*
Y423750D01*
X194674Y422579D01*
X195337Y421587D01*
X195337Y421587D01*
X198039Y418885D01*
X197792Y417336D01*
X197116Y416884D01*
X197116Y416884D01*
X186784Y406551D01*
X184750Y406819D01*
X182662Y406544D01*
X180716Y405738D01*
X179044Y404456D01*
X177762Y402785D01*
X176956Y400838D01*
X176681Y398750D01*
X176956Y396662D01*
X177762Y394715D01*
X179044Y393044D01*
X180716Y391762D01*
X180864Y391700D01*
X180693Y390397D01*
X179912Y390294D01*
X177966Y389488D01*
X176294Y388206D01*
X175012Y386535D01*
X174206Y384588D01*
X173931Y382500D01*
X174206Y380412D01*
X175012Y378465D01*
X176294Y376794D01*
X177966Y375512D01*
X179912Y374706D01*
X182000Y374431D01*
X184088Y374706D01*
X186035Y375512D01*
X187706Y376794D01*
X188988Y378465D01*
X189794Y380412D01*
X190069Y382500D01*
X189801Y384534D01*
X209689Y404422D01*
X301447D01*
X321752Y384116D01*
X321752Y384116D01*
X323075Y383232D01*
X324636Y382922D01*
X324636Y382922D01*
X339665D01*
X340151Y381748D01*
X327481Y369078D01*
X316939D01*
X300634Y385384D01*
X299311Y386268D01*
X297750Y386578D01*
X297750Y386578D01*
X207500D01*
X207500Y386578D01*
X205939Y386268D01*
X204616Y385384D01*
X204616Y385384D01*
X185561Y366328D01*
X134500D01*
X134500Y366328D01*
X132939Y366018D01*
X131616Y365134D01*
X131616Y365134D01*
X123034Y356551D01*
X121000Y356819D01*
X118912Y356544D01*
X116966Y355738D01*
X115294Y354456D01*
X114012Y352785D01*
X113206Y350838D01*
X112931Y348750D01*
X113206Y346662D01*
X114012Y344715D01*
X115294Y343044D01*
X116966Y341762D01*
X118912Y340956D01*
X121000Y340681D01*
X123088Y340956D01*
X125035Y341762D01*
X126706Y343044D01*
X127988Y344715D01*
X128794Y346662D01*
X129069Y348750D01*
X128801Y350784D01*
X136189Y358172D01*
X187250D01*
X187250Y358172D01*
X188811Y358482D01*
X190134Y359366D01*
X209189Y378422D01*
X296061D01*
X312366Y362116D01*
X312366Y362116D01*
X313689Y361232D01*
X315250Y360922D01*
X315250Y360922D01*
X329171D01*
X329171Y360922D01*
X330732Y361232D01*
X332055Y362116D01*
X357476Y387537D01*
X358649Y387051D01*
Y384135D01*
X359089Y381925D01*
X360341Y380051D01*
X362215Y378799D01*
X364425Y378359D01*
X369230D01*
Y387260D01*
X370500D01*
Y388530D01*
X382351D01*
Y390385D01*
X382097Y391662D01*
X383098Y392932D01*
X444072D01*
X455922Y381082D01*
Y374454D01*
X454294Y373206D01*
X453012Y371535D01*
X452206Y369588D01*
X451931Y367500D01*
X452206Y365412D01*
X453012Y363465D01*
X454294Y361794D01*
X455965Y360512D01*
X457912Y359706D01*
X460000Y359431D01*
X462088Y359706D01*
X464035Y360512D01*
X465706Y361794D01*
X466988Y363465D01*
X467794Y365412D01*
X468069Y367500D01*
X467794Y369588D01*
X466988Y371535D01*
X465706Y373206D01*
X464078Y374454D01*
Y382771D01*
X463768Y384332D01*
X462884Y385655D01*
X462884Y385655D01*
X451790Y396748D01*
X452276Y397922D01*
X494688D01*
X502993Y389616D01*
X502993Y389616D01*
X504316Y388732D01*
X505877Y388422D01*
X505877Y388422D01*
X508340D01*
X508902Y387283D01*
X508635Y386935D01*
X507730Y384750D01*
X516750D01*
Y382250D01*
X519250D01*
Y373230D01*
X521435Y374135D01*
X523376Y375624D01*
X524115Y376588D01*
X525385D01*
X526124Y375624D01*
X528065Y374135D01*
X530250Y373230D01*
Y382250D01*
X532750D01*
Y384750D01*
X541770D01*
X540865Y386935D01*
X540598Y387283D01*
X541160Y388422D01*
X552750D01*
X552750Y388422D01*
X554311Y388732D01*
X555634Y389616D01*
X570689Y404672D01*
X628361D01*
X653231Y379802D01*
X652963Y377768D01*
X653238Y375680D01*
X654044Y373734D01*
X655327Y372063D01*
X656998Y370780D01*
X658944Y369974D01*
X661032Y369699D01*
X663121Y369974D01*
X665067Y370780D01*
X666738Y372063D01*
X668020Y373734D01*
X668826Y375680D01*
X669101Y377768D01*
X668826Y379857D01*
X668020Y381803D01*
X666738Y383474D01*
X665067Y384756D01*
X663121Y385563D01*
X661032Y385838D01*
X658999Y385570D01*
X636320Y408248D01*
X636806Y409422D01*
X665796D01*
X667044Y407794D01*
X668716Y406512D01*
X670662Y405706D01*
X672750Y405431D01*
X674838Y405706D01*
X676785Y406512D01*
X678456Y407794D01*
X679738Y409465D01*
X680544Y411412D01*
X680819Y413500D01*
X680544Y415588D01*
X679738Y417534D01*
X678456Y419206D01*
X676785Y420488D01*
X674838Y421294D01*
X672750Y421569D01*
X670662Y421294D01*
X668716Y420488D01*
X667044Y419206D01*
X665796Y417578D01*
X567000D01*
X567000Y417578D01*
X565439Y417268D01*
X564116Y416384D01*
X564116Y416384D01*
X551732Y404000D01*
X550559Y404486D01*
Y430431D01*
X716083D01*
X716645Y429292D01*
D02*
G37*
G36*
X547500Y400569D02*
X542040D01*
Y404750D01*
X532750D01*
Y407250D01*
X530250D01*
Y416540D01*
X519250D01*
Y407250D01*
X516750D01*
Y404750D01*
X507460D01*
Y403987D01*
X506287Y403501D01*
X500765Y409023D01*
X499607Y409797D01*
X498241Y410069D01*
X381878D01*
X381199Y411339D01*
X381911Y412405D01*
X382351Y414615D01*
Y416470D01*
X370500D01*
X358649D01*
Y414615D01*
X359089Y412405D01*
X359801Y411339D01*
X359122Y410069D01*
X357943D01*
X357598Y410000D01*
X352500D01*
X342500Y420000D01*
X201250D01*
X197500Y423750D01*
Y430941D01*
X547500D01*
Y400569D01*
D02*
G37*
G36*
X662152Y33868D02*
X662152Y33868D01*
X663476Y32984D01*
X665036Y32673D01*
X675497D01*
X678422Y29748D01*
Y21227D01*
X677219Y20819D01*
X677089Y20989D01*
X674895Y22672D01*
X672341Y23730D01*
X669600Y24091D01*
X668600D01*
X665859Y23730D01*
X663305Y22672D01*
X661111Y20989D01*
X661034Y20984D01*
X652384Y29634D01*
X651061Y30518D01*
X649500Y30828D01*
X649500Y30828D01*
X616689D01*
X615320Y32198D01*
X616039Y33274D01*
X617412Y32706D01*
X619500Y32431D01*
X621588Y32706D01*
X623535Y33512D01*
X625206Y34794D01*
X626085Y35940D01*
X660080D01*
X662152Y33868D01*
D02*
G37*
G36*
X504392Y20366D02*
X504392Y20366D01*
X505715Y19482D01*
X507276Y19172D01*
X507276Y19172D01*
X557179D01*
X557956Y17902D01*
X557218Y16121D01*
X557041Y14770D01*
X567500D01*
Y12230D01*
X557041D01*
X557218Y10879D01*
X557324Y10625D01*
X556618Y9569D01*
X435672D01*
X435186Y10742D01*
X445118Y20674D01*
X455748D01*
X455752Y20673D01*
X455752Y20673D01*
X462793D01*
X462793Y20673D01*
X462796Y20674D01*
X476583D01*
X477774Y19483D01*
X477774Y19483D01*
X479097Y18599D01*
X480658Y18289D01*
X482132D01*
X483381Y16661D01*
X485052Y15379D01*
X486998Y14573D01*
X489086Y14298D01*
X491175Y14573D01*
X493121Y15379D01*
X494792Y16661D01*
X496074Y18332D01*
X496880Y20278D01*
X497155Y22367D01*
X496880Y24455D01*
X496074Y26401D01*
X494792Y28073D01*
X494069Y28627D01*
X494015Y28747D01*
X494061Y28901D01*
X495498Y29260D01*
X504392Y20366D01*
D02*
G37*
G36*
X170000Y423000D02*
Y412500D01*
X165000D01*
X159937Y417562D01*
X154494D01*
X152250Y417858D01*
X150006Y417562D01*
X145063D01*
X144750Y417250D01*
X142500Y415000D01*
X137500Y410000D01*
X117000D01*
X114750Y412250D01*
Y430000D01*
X115691Y430941D01*
X170000D01*
Y423000D01*
D02*
G37*
%LPC*%
G36*
X217750Y271319D02*
X215662Y271044D01*
X213715Y270238D01*
X212044Y268956D01*
X210762Y267285D01*
X209956Y265338D01*
X209681Y263250D01*
X209956Y261162D01*
X210762Y259216D01*
X212044Y257544D01*
X213715Y256262D01*
X215662Y255456D01*
X217750Y255181D01*
X219838Y255456D01*
X221784Y256262D01*
X223456Y257544D01*
X224313Y258662D01*
X242349D01*
X247115Y253897D01*
X246931Y252500D01*
X247206Y250412D01*
X248012Y248465D01*
X249294Y246794D01*
X250965Y245512D01*
X252912Y244706D01*
X255000Y244431D01*
X257088Y244706D01*
X259035Y245512D01*
X260706Y246794D01*
X261988Y248465D01*
X262794Y250412D01*
X263069Y252500D01*
X262794Y254588D01*
X261988Y256535D01*
X260706Y258206D01*
X259035Y259488D01*
X257088Y260294D01*
X255000Y260569D01*
X253603Y260385D01*
X247244Y266744D01*
X245756Y267739D01*
X244000Y268088D01*
X242743Y267838D01*
X224313D01*
X223456Y268956D01*
X221784Y270238D01*
X219838Y271044D01*
X217750Y271319D01*
D02*
G37*
G36*
X197000Y337319D02*
X194912Y337044D01*
X192966Y336238D01*
X191294Y334956D01*
X190012Y333284D01*
X189206Y331338D01*
X188931Y329250D01*
X189206Y327162D01*
X190012Y325215D01*
X190694Y324327D01*
Y255000D01*
X190917Y253303D01*
X191572Y251722D01*
X192614Y250364D01*
X196113Y246865D01*
X196206Y246162D01*
X197012Y244216D01*
X198294Y242544D01*
X199965Y241262D01*
X201912Y240456D01*
X204000Y240181D01*
X206088Y240456D01*
X208034Y241262D01*
X209706Y242544D01*
X210988Y244216D01*
X211794Y246162D01*
X212069Y248250D01*
X211794Y250338D01*
X210988Y252285D01*
X209706Y253956D01*
X208034Y255238D01*
X206088Y256044D01*
X205385Y256137D01*
X203806Y257716D01*
Y324978D01*
X203988Y325215D01*
X204794Y327162D01*
X205069Y329250D01*
X204794Y331338D01*
X203988Y333284D01*
X202706Y334956D01*
X201035Y336238D01*
X199088Y337044D01*
X197000Y337319D01*
D02*
G37*
G36*
X313500Y284319D02*
X311412Y284044D01*
X309466Y283238D01*
X307794Y281956D01*
X306512Y280285D01*
X305706Y278338D01*
X305431Y276250D01*
X305706Y274162D01*
X306512Y272215D01*
X307794Y270544D01*
X307922Y270447D01*
Y260939D01*
X275196Y228213D01*
X273535Y229488D01*
X271588Y230294D01*
X269500Y230569D01*
X267412Y230294D01*
X265466Y229488D01*
X263794Y228206D01*
X262512Y226535D01*
X261706Y224588D01*
X261431Y222500D01*
X261706Y220412D01*
X262512Y218465D01*
X263794Y216794D01*
X265466Y215512D01*
X267412Y214706D01*
X269500Y214431D01*
X271588Y214706D01*
X273535Y215512D01*
X275206Y216794D01*
X276488Y218465D01*
X276579Y218686D01*
X276811Y218732D01*
X278134Y219616D01*
X314884Y256366D01*
X315768Y257689D01*
X316078Y259250D01*
X316078Y259250D01*
Y268659D01*
X317535Y269262D01*
X319206Y270544D01*
X320488Y272215D01*
X321294Y274162D01*
X321569Y276250D01*
X321294Y278338D01*
X320488Y280285D01*
X319206Y281956D01*
X317535Y283238D01*
X315588Y284044D01*
X313500Y284319D01*
D02*
G37*
G36*
X68500Y324819D02*
X66412Y324544D01*
X64465Y323738D01*
X62794Y322456D01*
X61512Y320784D01*
X60706Y318838D01*
X60431Y316750D01*
X60706Y314662D01*
X61512Y312715D01*
X62794Y311044D01*
X64465Y309762D01*
X66412Y308956D01*
X68500Y308681D01*
X70433Y308935D01*
X70775Y308867D01*
X71788D01*
X72458Y307864D01*
X74306Y306629D01*
X74662Y306558D01*
Y292000D01*
X75011Y290244D01*
X76006Y288756D01*
X84506Y280256D01*
X85994Y279261D01*
X87250Y279011D01*
Y278500D01*
X98250D01*
Y288500D01*
X97790D01*
Y288730D01*
X92750D01*
Y291270D01*
X97790D01*
Y291500D01*
X98250D01*
Y301500D01*
X87250D01*
Y292285D01*
X85980Y291759D01*
X83838Y293901D01*
Y306196D01*
X85515D01*
X87694Y306629D01*
X89542Y307864D01*
X90776Y309711D01*
X91209Y311890D01*
Y317060D01*
X90776Y319239D01*
X89542Y321087D01*
X87694Y322321D01*
X85515Y322754D01*
X76485D01*
X74309Y322322D01*
X74206Y322456D01*
X72534Y323738D01*
X70588Y324544D01*
X68500Y324819D01*
D02*
G37*
G36*
X688790Y318730D02*
X676250D01*
X663710D01*
Y311460D01*
X662000Y309750D01*
Y289078D01*
X657689D01*
X654884Y291884D01*
X653561Y292768D01*
X652000Y293078D01*
X652000Y293078D01*
X646954D01*
X645706Y294706D01*
X644035Y295988D01*
X642088Y296794D01*
X640000Y297069D01*
X637912Y296794D01*
X635965Y295988D01*
X634294Y294706D01*
X633012Y293034D01*
X632206Y291088D01*
X631931Y289000D01*
X632206Y286912D01*
X633012Y284965D01*
X634294Y283294D01*
X635965Y282012D01*
X637912Y281206D01*
X640000Y280931D01*
X642088Y281206D01*
X644035Y282012D01*
X645706Y283294D01*
X646954Y284922D01*
X650311D01*
X653116Y282116D01*
X653116Y282116D01*
X654439Y281232D01*
X656000Y280922D01*
X656000Y280922D01*
X662000D01*
Y261931D01*
X660827Y261445D01*
X652136Y270136D01*
X650778Y271178D01*
X649197Y271833D01*
X647500Y272056D01*
X632347D01*
X631785Y272488D01*
X629838Y273294D01*
X627750Y273569D01*
X625662Y273294D01*
X623716Y272488D01*
X622044Y271206D01*
X620762Y269534D01*
X619956Y267588D01*
X619681Y265500D01*
X619956Y263412D01*
X620762Y261465D01*
X622044Y259794D01*
X622453Y259481D01*
Y258211D01*
X621794Y257706D01*
X620512Y256035D01*
X619706Y254088D01*
X619431Y252000D01*
X619706Y249912D01*
X620512Y247966D01*
X621794Y246294D01*
X623465Y245012D01*
X625412Y244206D01*
X627500Y243931D01*
X629588Y244206D01*
X631535Y245012D01*
X633206Y246294D01*
X634454Y247922D01*
X647561D01*
X655704Y239778D01*
Y237716D01*
X654077Y236467D01*
X652794Y234796D01*
X651988Y232850D01*
X651713Y230761D01*
X651988Y228673D01*
X652640Y227098D01*
X652033Y225828D01*
X648500D01*
X648500Y225828D01*
X646939Y225518D01*
X645616Y224634D01*
X645616Y224634D01*
X630366Y209384D01*
X629482Y208061D01*
X629172Y206500D01*
X629172Y206500D01*
Y173801D01*
X622866Y167495D01*
X621982Y166172D01*
X621672Y164611D01*
X621672Y164611D01*
Y120445D01*
X617061Y115834D01*
X613484D01*
X612235Y117461D01*
X610564Y118743D01*
X608618Y119550D01*
X606530Y119824D01*
X604658Y119578D01*
X604248Y120073D01*
X604007Y120723D01*
X618634Y135350D01*
X618634Y135350D01*
X619518Y136673D01*
X619828Y138233D01*
Y167064D01*
X623914Y171149D01*
X623914Y171149D01*
X624798Y172473D01*
X625108Y174033D01*
X625108Y174033D01*
Y198493D01*
X626238Y199965D01*
X627044Y201912D01*
X627319Y204000D01*
X627044Y206088D01*
X626238Y208034D01*
X624956Y209706D01*
X623284Y210988D01*
X621338Y211794D01*
X619250Y212069D01*
X617162Y211794D01*
X615215Y210988D01*
X613544Y209706D01*
X612262Y208034D01*
X611456Y206088D01*
X611181Y204000D01*
X611456Y201912D01*
X612262Y199965D01*
X613544Y198294D01*
X615215Y197012D01*
X616951Y196293D01*
Y175723D01*
X612866Y171637D01*
X611982Y170314D01*
X611672Y168753D01*
X611672Y168753D01*
Y139923D01*
X595116Y123367D01*
X594232Y122044D01*
X593922Y120484D01*
X593922Y120483D01*
Y98729D01*
X593922Y98729D01*
X594232Y97169D01*
X595116Y95845D01*
X602638Y88323D01*
X602431Y86750D01*
X602706Y84662D01*
X603512Y82716D01*
X604794Y81044D01*
X606465Y79762D01*
X608412Y78956D01*
X610500Y78681D01*
X612588Y78956D01*
X614534Y79762D01*
X616206Y81044D01*
X617488Y82716D01*
X618294Y84662D01*
X618342Y85029D01*
X619545Y85437D01*
X646866Y58116D01*
X646866Y58116D01*
X648189Y57232D01*
X649750Y56922D01*
X663500D01*
X663500Y56922D01*
X665061Y57232D01*
X666384Y58116D01*
X671467Y63200D01*
X672352Y64523D01*
X672662Y66084D01*
Y70465D01*
X681868Y79672D01*
X711296D01*
X712544Y78044D01*
X714215Y76762D01*
X716162Y75956D01*
X718250Y75681D01*
X720338Y75956D01*
X722284Y76762D01*
X723956Y78044D01*
X725238Y79715D01*
X726044Y81662D01*
X726319Y83750D01*
X726044Y85838D01*
X725238Y87785D01*
X723956Y89456D01*
X722284Y90738D01*
X720338Y91544D01*
X718250Y91819D01*
X716162Y91544D01*
X714215Y90738D01*
X712544Y89456D01*
X711296Y87828D01*
X680179D01*
X680179Y87828D01*
X678618Y87518D01*
X677295Y86634D01*
X665700Y75038D01*
X664816Y73715D01*
X664505Y72155D01*
X664505Y72154D01*
Y67773D01*
X661811Y65078D01*
X651439D01*
X617534Y98984D01*
X617569Y99250D01*
X617294Y101338D01*
X616488Y103285D01*
X615206Y104956D01*
X613815Y106023D01*
X613686Y106407D01*
X614599Y107677D01*
X618750D01*
X618750Y107677D01*
X620311Y107988D01*
X621634Y108872D01*
X628634Y115872D01*
X629518Y117195D01*
X629828Y118756D01*
Y152763D01*
X631002Y153249D01*
X637172Y147079D01*
Y123000D01*
X637172Y123000D01*
X637482Y121439D01*
X638366Y120116D01*
X655204Y103279D01*
Y98209D01*
X653577Y96960D01*
X652294Y95289D01*
X651488Y93343D01*
X651213Y91255D01*
X651488Y89166D01*
X652294Y87220D01*
X653577Y85549D01*
X655248Y84267D01*
X657194Y83460D01*
X659282Y83186D01*
X661371Y83460D01*
X663317Y84267D01*
X664988Y85549D01*
X666270Y87220D01*
X667076Y89166D01*
X667351Y91255D01*
X667076Y93343D01*
X666270Y95289D01*
X664988Y96960D01*
X663361Y98209D01*
Y100011D01*
X664256Y100358D01*
X664631Y100359D01*
X665827Y98799D01*
X667498Y97517D01*
X669444Y96711D01*
X671533Y96436D01*
X673621Y96711D01*
X675567Y97517D01*
X677238Y98799D01*
X678521Y100471D01*
X679327Y102417D01*
X679602Y104505D01*
X679327Y106594D01*
X678521Y108540D01*
X677238Y110211D01*
X675567Y111493D01*
X673621Y112299D01*
X671533Y112574D01*
X669444Y112299D01*
X669087Y112151D01*
X653338Y127900D01*
Y153289D01*
X652989Y155045D01*
X651994Y156533D01*
X648666Y159861D01*
X648850Y161258D01*
X648575Y163346D01*
X647769Y165292D01*
X646487Y166964D01*
X644816Y168246D01*
X643929Y168613D01*
X643631Y170111D01*
X653884Y180364D01*
X653884Y180364D01*
X654768Y181687D01*
X655078Y183247D01*
X655078Y183248D01*
Y198046D01*
X656706Y199294D01*
X657988Y200965D01*
X658794Y202912D01*
X659069Y205000D01*
X658794Y207088D01*
X657988Y209035D01*
X656706Y210706D01*
X655034Y211988D01*
X653088Y212794D01*
X651000Y213069D01*
X648912Y212794D01*
X646965Y211988D01*
X645294Y210706D01*
X644012Y209035D01*
X643206Y207088D01*
X642931Y205000D01*
X643206Y202912D01*
X644012Y200965D01*
X645294Y199294D01*
X646922Y198046D01*
Y184937D01*
X638502Y176517D01*
X637328Y177003D01*
Y204811D01*
X650189Y217672D01*
X685061D01*
X689116Y213616D01*
X690439Y212732D01*
X691696Y212482D01*
Y211985D01*
X692129Y209806D01*
X693363Y207959D01*
X695211Y206724D01*
X697390Y206291D01*
X702560D01*
X704739Y206724D01*
X706587Y207959D01*
X707821Y209806D01*
X708254Y211985D01*
Y221015D01*
X707821Y223194D01*
X706587Y225042D01*
X704739Y226276D01*
X702560Y226709D01*
X697390D01*
X695211Y226276D01*
X693363Y225042D01*
X692426Y223638D01*
X690956Y223312D01*
X689634Y224634D01*
X688311Y225518D01*
X686750Y225828D01*
X686750Y225828D01*
X667531D01*
X666924Y227098D01*
X667576Y228673D01*
X667851Y230761D01*
X667781Y231295D01*
X668618Y232250D01*
X692000D01*
X697000Y237250D01*
X697000Y309750D01*
X692000Y314750D01*
X688790D01*
Y318730D01*
D02*
G37*
G36*
X280250Y303069D02*
X278162Y302794D01*
X276215Y301988D01*
X274544Y300706D01*
X273262Y299035D01*
X272456Y297088D01*
X272181Y295000D01*
X272365Y293603D01*
X262506Y283744D01*
X261511Y282256D01*
X261379Y281592D01*
X258699Y278911D01*
X257500Y279069D01*
X255412Y278794D01*
X253465Y277988D01*
X251794Y276706D01*
X250512Y275035D01*
X249706Y273088D01*
X249431Y271000D01*
X249706Y268912D01*
X250512Y266966D01*
X251794Y265294D01*
X253465Y264012D01*
X255412Y263206D01*
X257500Y262931D01*
X259588Y263206D01*
X261535Y264012D01*
X263206Y265294D01*
X264488Y266966D01*
X265294Y268912D01*
X265569Y271000D01*
X265359Y272595D01*
X269507Y276743D01*
X270502Y278231D01*
X270634Y278895D01*
X278853Y287115D01*
X280250Y286931D01*
X282338Y287206D01*
X284284Y288012D01*
X285956Y289294D01*
X287238Y290965D01*
X288044Y292912D01*
X288319Y295000D01*
X288044Y297088D01*
X287238Y299035D01*
X285956Y300706D01*
X284284Y301988D01*
X282338Y302794D01*
X280250Y303069D01*
D02*
G37*
G36*
X117250Y301500D02*
X106250D01*
Y300790D01*
X105994Y300739D01*
X104506Y299744D01*
X102006Y297244D01*
X101011Y295756D01*
X100662Y294000D01*
Y275151D01*
X99256Y273744D01*
X98261Y272256D01*
X97912Y270500D01*
Y251813D01*
X96794Y250956D01*
X95512Y249284D01*
X94706Y247338D01*
X94431Y245250D01*
X94706Y243162D01*
X95512Y241215D01*
X96794Y239544D01*
X98465Y238262D01*
X100412Y237456D01*
X102500Y237181D01*
X104588Y237456D01*
X106535Y238262D01*
X108206Y239544D01*
X109488Y241215D01*
X110294Y243162D01*
X110569Y245250D01*
X110294Y247338D01*
X109488Y249284D01*
X108206Y250956D01*
X107088Y251813D01*
Y259133D01*
X108227Y259695D01*
X108465Y259512D01*
X110412Y258706D01*
X112500Y258431D01*
X114588Y258706D01*
X116535Y259512D01*
X118206Y260794D01*
X119488Y262465D01*
X120294Y264412D01*
X120569Y266500D01*
X120294Y268588D01*
X119488Y270534D01*
X118206Y272206D01*
X116535Y273488D01*
X116338Y273569D01*
Y278500D01*
X117250D01*
Y283221D01*
X118520Y283652D01*
X118794Y283294D01*
X120465Y282012D01*
X122412Y281206D01*
X124500Y280931D01*
X126588Y281206D01*
X128534Y282012D01*
X130206Y283294D01*
X131488Y284965D01*
X132294Y286912D01*
X132569Y289000D01*
X132294Y291088D01*
X131488Y293034D01*
X130206Y294706D01*
X128534Y295988D01*
X126588Y296794D01*
X124500Y297069D01*
X122412Y296794D01*
X120465Y295988D01*
X118794Y294706D01*
X118704Y294588D01*
X117250D01*
Y295000D01*
Y301500D01*
D02*
G37*
G36*
X707750Y119091D02*
X705009Y118730D01*
X702455Y117672D01*
X700261Y115989D01*
X698578Y113795D01*
X697520Y111241D01*
X697159Y108500D01*
X697520Y105759D01*
X698578Y103205D01*
X700261Y101011D01*
X702455Y99328D01*
X705009Y98270D01*
X707750Y97909D01*
X710491Y98270D01*
X713045Y99328D01*
X715239Y101011D01*
X716922Y103205D01*
X717980Y105759D01*
X718341Y108500D01*
X717980Y111241D01*
X716922Y113795D01*
X715239Y115989D01*
X713045Y117672D01*
X710491Y118730D01*
X707750Y119091D01*
D02*
G37*
G36*
X105040Y107540D02*
X95000D01*
Y97500D01*
X105040D01*
Y107540D01*
D02*
G37*
G36*
Y92500D02*
X95000D01*
Y82460D01*
X105040D01*
Y92500D01*
D02*
G37*
G36*
X707750Y168091D02*
X705009Y167730D01*
X702455Y166672D01*
X700261Y164989D01*
X698578Y162795D01*
X697520Y160241D01*
X697159Y157500D01*
X697520Y154759D01*
X698578Y152205D01*
X700261Y150011D01*
X702455Y148328D01*
X705009Y147270D01*
X707750Y146909D01*
X710491Y147270D01*
X713045Y148328D01*
X715239Y150011D01*
X716922Y152205D01*
X717980Y154759D01*
X718341Y157500D01*
X717980Y160241D01*
X716922Y162795D01*
X715239Y164989D01*
X713045Y166672D01*
X710491Y167730D01*
X707750Y168091D01*
D02*
G37*
G36*
X245750Y233612D02*
X242356Y233165D01*
X239194Y231856D01*
X236478Y229772D01*
X234394Y227056D01*
X233085Y223894D01*
X232638Y220500D01*
X233085Y217106D01*
X234394Y213944D01*
X236478Y211228D01*
X239194Y209144D01*
X242356Y207835D01*
X245750Y207388D01*
X249144Y207835D01*
X252306Y209144D01*
X255022Y211228D01*
X257106Y213944D01*
X258415Y217106D01*
X258862Y220500D01*
X258415Y223894D01*
X257106Y227056D01*
X255022Y229772D01*
X252306Y231856D01*
X249144Y233165D01*
X245750Y233612D01*
D02*
G37*
G36*
X721610Y226709D02*
X716440D01*
X714261Y226276D01*
X712413Y225042D01*
X711179Y223194D01*
X710746Y221015D01*
Y211985D01*
X711179Y209806D01*
X712378Y208011D01*
X712012Y207535D01*
X711206Y205588D01*
X710931Y203500D01*
X711206Y201412D01*
X712012Y199466D01*
X713294Y197794D01*
X714966Y196512D01*
X716912Y195706D01*
X719000Y195431D01*
X721088Y195706D01*
X723035Y196512D01*
X724706Y197794D01*
X725988Y199466D01*
X726794Y201412D01*
X727069Y203500D01*
X726794Y205588D01*
X725988Y207535D01*
X725649Y207977D01*
X726871Y209806D01*
X727304Y211985D01*
Y221015D01*
X726871Y223194D01*
X725637Y225042D01*
X723789Y226276D01*
X721610Y226709D01*
D02*
G37*
G36*
X326266Y256331D02*
X324178Y256056D01*
X322231Y255250D01*
X320560Y253968D01*
X319278Y252297D01*
X318472Y250350D01*
X318197Y248262D01*
X318472Y246174D01*
X319252Y244290D01*
X263040Y188078D01*
X174439D01*
X170078Y192439D01*
Y193796D01*
X171706Y195044D01*
X172988Y196716D01*
X173794Y198662D01*
X174069Y200750D01*
X173794Y202838D01*
X172988Y204785D01*
X171706Y206456D01*
X170035Y207738D01*
X168088Y208544D01*
X166000Y208819D01*
X163912Y208544D01*
X161966Y207738D01*
X160294Y206456D01*
X159012Y204785D01*
X158206Y202838D01*
X157931Y200750D01*
X158206Y198662D01*
X159012Y196716D01*
X160294Y195044D01*
X161922Y193796D01*
Y190750D01*
X161922Y190750D01*
X162232Y189189D01*
X163116Y187866D01*
X169866Y181116D01*
X169866Y181116D01*
X171189Y180232D01*
X172750Y179922D01*
X264729D01*
X264729Y179922D01*
X266290Y180232D01*
X267613Y181116D01*
X326754Y240257D01*
X328354Y240468D01*
X330300Y241274D01*
X331972Y242556D01*
X333254Y244228D01*
X334006Y246044D01*
X334771Y247189D01*
X335082Y248750D01*
X334771Y250311D01*
X333887Y251634D01*
X333275Y252247D01*
X333254Y252297D01*
X331972Y253968D01*
X330300Y255250D01*
X328354Y256056D01*
X326266Y256331D01*
D02*
G37*
G36*
X302000Y318588D02*
X226750D01*
X224994Y318239D01*
X223506Y317244D01*
X219367Y313106D01*
X217750Y313319D01*
X215662Y313044D01*
X213715Y312238D01*
X212044Y310956D01*
X210762Y309284D01*
X209956Y307339D01*
X209681Y305250D01*
X209956Y303162D01*
X210762Y301215D01*
X212044Y299544D01*
X213715Y298262D01*
X215662Y297456D01*
X217750Y297181D01*
X219838Y297456D01*
X221784Y298262D01*
X223456Y299544D01*
X224738Y301215D01*
X225544Y303162D01*
X225819Y305250D01*
X225664Y306426D01*
X228650Y309412D01*
X300100D01*
X309448Y300063D01*
X308922Y298793D01*
X307455D01*
X305699Y298444D01*
X304211Y297449D01*
X288020Y281259D01*
X287025Y279770D01*
X286676Y278014D01*
Y271576D01*
X285559Y270719D01*
X284276Y269047D01*
X283470Y267101D01*
X283195Y265013D01*
X283470Y262924D01*
X284276Y260978D01*
X285559Y259307D01*
X287230Y258025D01*
X289176Y257219D01*
X291264Y256944D01*
X293353Y257219D01*
X295299Y258025D01*
X296970Y259307D01*
X298252Y260978D01*
X299058Y262924D01*
X299333Y265013D01*
X299058Y267101D01*
X298252Y269047D01*
X296970Y270719D01*
X295852Y271576D01*
Y276114D01*
X308521Y288783D01*
X310207Y288672D01*
X310339Y288499D01*
X312010Y287217D01*
X313957Y286411D01*
X316045Y286136D01*
X318133Y286411D01*
X320079Y287217D01*
X321751Y288499D01*
X323033Y290170D01*
X323839Y292117D01*
X324114Y294205D01*
X323839Y296293D01*
X323033Y298239D01*
X321751Y299911D01*
X320442Y300915D01*
X320284Y301711D01*
X319289Y303199D01*
X305244Y317244D01*
X303756Y318239D01*
X302000Y318588D01*
D02*
G37*
G36*
X514250Y379750D02*
X507730D01*
X508635Y377565D01*
X510124Y375624D01*
X512065Y374135D01*
X514250Y373230D01*
Y379750D01*
D02*
G37*
G36*
X382351Y385990D02*
X371770D01*
Y378359D01*
X376575D01*
X378785Y378799D01*
X380659Y380051D01*
X381911Y381925D01*
X382351Y384135D01*
Y385990D01*
D02*
G37*
G36*
X183250Y353569D02*
X181162Y353294D01*
X179216Y352488D01*
X177544Y351206D01*
X176262Y349534D01*
X175456Y347588D01*
X175181Y345500D01*
X175449Y343466D01*
X172616Y340634D01*
X171732Y339311D01*
X171422Y337750D01*
X171422Y337750D01*
Y242066D01*
X170706Y240338D01*
X170431Y238250D01*
X170706Y236162D01*
X171512Y234216D01*
X172794Y232544D01*
X174466Y231262D01*
X176412Y230456D01*
X178500Y230181D01*
X180588Y230456D01*
X182535Y231262D01*
X184206Y232544D01*
X185488Y234216D01*
X186294Y236162D01*
X186569Y238250D01*
X186294Y240338D01*
X185488Y242285D01*
X184206Y243956D01*
X182535Y245238D01*
X180588Y246044D01*
X179578Y246177D01*
Y336061D01*
X181216Y337699D01*
X183250Y337431D01*
X185338Y337706D01*
X187285Y338512D01*
X188956Y339794D01*
X190238Y341465D01*
X191044Y343412D01*
X191319Y345500D01*
X191044Y347588D01*
X190238Y349534D01*
X188956Y351206D01*
X187285Y352488D01*
X185338Y353294D01*
X183250Y353569D01*
D02*
G37*
G36*
X541770Y379750D02*
X535250D01*
Y373230D01*
X537435Y374135D01*
X539376Y375624D01*
X540865Y377565D01*
X541770Y379750D01*
D02*
G37*
G36*
X583250Y397819D02*
X581162Y397544D01*
X579216Y396738D01*
X577544Y395456D01*
X576262Y393784D01*
X576238Y393727D01*
X575189Y393518D01*
X573866Y392634D01*
X573866Y392634D01*
X551366Y370134D01*
X550482Y368811D01*
X550172Y367250D01*
X550172Y367250D01*
Y319021D01*
X550172Y319021D01*
X550482Y317460D01*
X551366Y316137D01*
X574422Y293081D01*
Y272750D01*
X574422Y272750D01*
X574732Y271189D01*
X575616Y269866D01*
X578672Y266811D01*
Y249689D01*
X565366Y236384D01*
X564482Y235061D01*
X564172Y233500D01*
X564172Y233500D01*
Y221917D01*
X529866Y187612D01*
X528982Y186289D01*
X528672Y184728D01*
X528672Y184728D01*
Y131717D01*
X528672Y131717D01*
X528982Y130156D01*
X529866Y128833D01*
X531953Y126747D01*
X531535Y125368D01*
X531448Y125351D01*
X483828Y172971D01*
Y196056D01*
X483828Y196056D01*
X483713Y196635D01*
X484644Y197728D01*
X484781Y197776D01*
X485500Y197681D01*
X486897Y197865D01*
X504662Y180100D01*
Y175313D01*
X503544Y174456D01*
X502262Y172785D01*
X501456Y170838D01*
X501181Y168750D01*
X501456Y166662D01*
X502262Y164715D01*
X503544Y163044D01*
X505215Y161762D01*
X507162Y160956D01*
X509250Y160681D01*
X511338Y160956D01*
X513284Y161762D01*
X514956Y163044D01*
X516238Y164715D01*
X517044Y166662D01*
X517319Y168750D01*
X517044Y170838D01*
X516238Y172785D01*
X514956Y174456D01*
X513838Y175313D01*
Y182000D01*
X513489Y183756D01*
X512494Y185244D01*
X493385Y204354D01*
X493569Y205750D01*
X493294Y207838D01*
X492488Y209785D01*
X491206Y211456D01*
X491453Y212867D01*
X492063Y213662D01*
X508750D01*
X510506Y214011D01*
X511994Y215006D01*
X525800Y228812D01*
X537557D01*
X538414Y227694D01*
X540085Y226412D01*
X542032Y225606D01*
X544120Y225331D01*
X546208Y225606D01*
X548154Y226412D01*
X549826Y227694D01*
X551108Y229366D01*
X551914Y231312D01*
X552189Y233400D01*
X551914Y235488D01*
X551108Y237435D01*
X549826Y239106D01*
X548154Y240388D01*
X546208Y241194D01*
X544120Y241469D01*
X542032Y241194D01*
X540085Y240388D01*
X538414Y239106D01*
X537557Y237988D01*
X523900D01*
X522144Y237639D01*
X520656Y236644D01*
X506850Y222838D01*
X492063D01*
X491206Y223956D01*
X489534Y225238D01*
X487588Y226044D01*
X485500Y226319D01*
X483412Y226044D01*
X481465Y225238D01*
X479794Y223956D01*
X478512Y222285D01*
X477706Y220338D01*
X477431Y218250D01*
X477706Y216162D01*
X478512Y214216D01*
X479794Y212544D01*
Y211456D01*
X478512Y209785D01*
X477706Y207838D01*
X477453Y205917D01*
X476411Y205247D01*
X476355Y205219D01*
X473328Y208246D01*
Y228561D01*
X487907Y243140D01*
X487907Y243140D01*
X488792Y244463D01*
X489102Y246024D01*
Y247558D01*
X490729Y248807D01*
X492012Y250478D01*
X492818Y252424D01*
X493093Y254512D01*
X492818Y256601D01*
X492012Y258547D01*
X490729Y260218D01*
X489058Y261500D01*
X487112Y262306D01*
X485024Y262581D01*
X482935Y262306D01*
X480989Y261500D01*
X479318Y260218D01*
X478036Y258547D01*
X477230Y256601D01*
X476955Y254512D01*
X477230Y252424D01*
X478036Y250478D01*
X479318Y248807D01*
X480094Y248212D01*
X480177Y246944D01*
X469503Y236271D01*
X468261Y236825D01*
X468044Y238473D01*
X467238Y240420D01*
X465956Y242091D01*
X462648Y245398D01*
X460977Y246681D01*
X459031Y247487D01*
X456942Y247762D01*
X454854Y247487D01*
X452908Y246681D01*
X451237Y245398D01*
X449954Y243727D01*
X449148Y241781D01*
X448873Y239692D01*
X449148Y237604D01*
X449954Y235658D01*
X451237Y233987D01*
X452181Y233043D01*
Y200569D01*
X441246D01*
X440760Y201742D01*
X442134Y203116D01*
X442134Y203116D01*
X443018Y204439D01*
X443328Y206000D01*
X443328Y206000D01*
Y244311D01*
X452689Y253672D01*
X465500D01*
X465500Y253672D01*
X467061Y253982D01*
X468384Y254866D01*
X472134Y258616D01*
X472134Y258616D01*
X473018Y259939D01*
X473328Y261500D01*
X473328Y261500D01*
Y270321D01*
X483192Y280185D01*
X490849D01*
X518918Y252116D01*
X520241Y251232D01*
X521801Y250922D01*
X564007D01*
X564216Y250762D01*
X566162Y249956D01*
X568250Y249681D01*
X570338Y249956D01*
X572285Y250762D01*
X573956Y252044D01*
X575238Y253715D01*
X576044Y255662D01*
X576319Y257750D01*
X576044Y259838D01*
X575238Y261784D01*
X573956Y263456D01*
X572285Y264738D01*
X570338Y265544D01*
X568250Y265819D01*
X566162Y265544D01*
X564216Y264738D01*
X562544Y263456D01*
X561262Y261784D01*
X560456Y259838D01*
X560356Y259078D01*
X549418D01*
X548932Y260252D01*
X553965Y265285D01*
X555181Y267104D01*
X555608Y269250D01*
Y287250D01*
X555181Y289396D01*
X553965Y291215D01*
X538884Y306297D01*
Y323985D01*
X538982Y324060D01*
X540264Y325732D01*
X541070Y327678D01*
X541345Y329766D01*
X541070Y331855D01*
X540264Y333801D01*
X538982Y335472D01*
X537310Y336754D01*
X535364Y337560D01*
X533276Y337835D01*
X531188Y337560D01*
X529241Y336754D01*
X527570Y335472D01*
X526288Y333801D01*
X525482Y331855D01*
X525207Y329766D01*
X525482Y327678D01*
X526288Y325732D01*
X527570Y324060D01*
X527668Y323985D01*
Y303974D01*
X528095Y301828D01*
X529311Y300009D01*
X544392Y284927D01*
Y278406D01*
X543122Y278322D01*
X542915Y279894D01*
X541605Y283056D01*
X539522Y285772D01*
X510758Y314535D01*
X508043Y316619D01*
X504880Y317929D01*
X501487Y318376D01*
X501486Y318376D01*
X471514D01*
X471513Y318376D01*
X468120Y317929D01*
X464957Y316619D01*
X462242Y314535D01*
X462242Y314535D01*
X420002Y272295D01*
X418828Y272781D01*
Y285000D01*
X418518Y286561D01*
X417634Y287884D01*
X373118Y332400D01*
X371795Y333284D01*
X370234Y333595D01*
X370234Y333594D01*
X323470D01*
X322221Y335222D01*
X320550Y336504D01*
X318604Y337310D01*
X316515Y337585D01*
X314427Y337310D01*
X312481Y336504D01*
X310810Y335222D01*
X309527Y333551D01*
X308721Y331604D01*
X308446Y329516D01*
X308721Y327428D01*
X309527Y325482D01*
X310810Y323810D01*
X312481Y322528D01*
X314427Y321722D01*
X316515Y321447D01*
X318604Y321722D01*
X320550Y322528D01*
X322221Y323810D01*
X323470Y325438D01*
X368545D01*
X410672Y283311D01*
Y269281D01*
X407366Y265976D01*
X406482Y264653D01*
X406172Y263092D01*
X406172Y263092D01*
Y219918D01*
X387056Y200803D01*
X386803Y200997D01*
X384857Y201803D01*
X382769Y202078D01*
X380680Y201803D01*
X378734Y200997D01*
X377063Y199715D01*
X375781Y198044D01*
X374975Y196098D01*
X374700Y194009D01*
X374975Y191921D01*
X375781Y189975D01*
X377063Y188304D01*
X378734Y187022D01*
X379764Y186595D01*
X380062Y185097D01*
X375327Y180362D01*
X366431D01*
X359866Y186927D01*
X376396Y203457D01*
X376518Y203441D01*
X378607Y203716D01*
X380553Y204522D01*
X382224Y205805D01*
X383506Y207476D01*
X384312Y209422D01*
X384587Y211510D01*
X384571Y211633D01*
X386215Y213277D01*
X387431Y215096D01*
X387858Y217242D01*
Y232819D01*
X391073Y236035D01*
X391769Y235943D01*
X393857Y236218D01*
X395804Y237024D01*
X397475Y238306D01*
X398757Y239977D01*
X399563Y241924D01*
X399838Y244012D01*
X399563Y246100D01*
X399180Y247026D01*
X399779Y248146D01*
X399921Y248174D01*
X400913Y248837D01*
X400913Y248837D01*
X402325Y250249D01*
X402988Y251241D01*
X403221Y252412D01*
X403221Y252412D01*
Y256503D01*
X403319Y257250D01*
X403221Y257997D01*
Y268003D01*
X403319Y268750D01*
X403221Y269497D01*
Y282338D01*
X403221Y282338D01*
X402988Y283509D01*
X402325Y284501D01*
X402325Y284501D01*
X401812Y285014D01*
X400706Y286456D01*
X399263Y287562D01*
X397163Y289663D01*
X396171Y290326D01*
X395000Y290559D01*
X395000Y290559D01*
X392500D01*
X391329Y290326D01*
X390337Y289663D01*
X390337Y289663D01*
X270337Y169663D01*
X266233Y165559D01*
X165853D01*
X153069Y178342D01*
Y210000D01*
X152794Y212088D01*
X151988Y214035D01*
X150706Y215706D01*
X149035Y216988D01*
X147088Y217794D01*
X145000Y218069D01*
X142912Y217794D01*
X140965Y216988D01*
X139294Y215706D01*
X138012Y214035D01*
X137206Y212088D01*
X136931Y210000D01*
Y175000D01*
X137104Y173685D01*
X135941Y172792D01*
X135644Y172915D01*
X132250Y173362D01*
X128856Y172915D01*
X125694Y171605D01*
X122978Y169522D01*
X120894Y166806D01*
X119585Y163644D01*
X119138Y160250D01*
Y151500D01*
X119138Y151500D01*
X119585Y148106D01*
X120894Y144944D01*
X122978Y142228D01*
X148103Y117103D01*
X150978Y114228D01*
X153694Y112145D01*
X154631Y111756D01*
X155228Y110978D01*
X157944Y108895D01*
X161106Y107585D01*
X162172Y107250D01*
X162482Y105689D01*
X163366Y104366D01*
X165866Y101866D01*
X167189Y100982D01*
X168750Y100672D01*
X168750Y100672D01*
X298250D01*
X298250Y100672D01*
X299811Y100982D01*
X301134Y101866D01*
X346939Y147672D01*
X387750D01*
X387750Y147672D01*
X389311Y147982D01*
X390634Y148866D01*
X410547Y168780D01*
X411315Y168401D01*
X411688Y168124D01*
X411702Y168022D01*
Y163008D01*
X411976Y160919D01*
X412783Y158973D01*
X412892Y158830D01*
Y141781D01*
X412794Y141706D01*
X411512Y140035D01*
X410706Y138088D01*
X410431Y136000D01*
X410706Y133912D01*
X411512Y131966D01*
X412794Y130294D01*
X414465Y129012D01*
X416412Y128206D01*
X418500Y127931D01*
X420588Y128206D01*
X422534Y129012D01*
X424206Y130294D01*
X425456Y131924D01*
X425498Y131967D01*
X426986Y132264D01*
X427966Y131512D01*
X429912Y130706D01*
X432000Y130431D01*
X434088Y130706D01*
X436035Y131512D01*
X437706Y132794D01*
X438988Y134466D01*
X439794Y136412D01*
X440069Y138500D01*
X439794Y140588D01*
X438988Y142535D01*
X437706Y144206D01*
X436078Y145454D01*
Y155512D01*
X437285Y156012D01*
X438956Y157294D01*
X440238Y158966D01*
X441044Y160912D01*
X441319Y163000D01*
X441044Y165088D01*
X440238Y167034D01*
X438956Y168706D01*
X437285Y169988D01*
X435505Y170725D01*
X434951Y171967D01*
X437206Y174222D01*
X438488Y175893D01*
X439294Y177839D01*
X439569Y179928D01*
Y181835D01*
X442165Y184431D01*
X453592D01*
X458159Y179863D01*
Y157250D01*
X458159Y157250D01*
X458520Y154509D01*
X459578Y151955D01*
X461261Y149761D01*
X477261Y133761D01*
X479455Y132078D01*
X482009Y131020D01*
X484750Y130659D01*
X487491Y131020D01*
X490045Y132078D01*
X492239Y133761D01*
X493922Y135955D01*
X494980Y138509D01*
X495341Y141250D01*
X494980Y143991D01*
X493922Y146545D01*
X492239Y148739D01*
X479341Y161637D01*
Y164264D01*
X480514Y164750D01*
X526917Y118347D01*
X526707Y116756D01*
X526982Y114667D01*
X527788Y112721D01*
X529070Y111050D01*
X530742Y109768D01*
X531561Y109428D01*
X532288Y108290D01*
X531482Y106343D01*
X531207Y104255D01*
X531482Y102167D01*
X532288Y100221D01*
X533571Y98549D01*
X535242Y97267D01*
X537188Y96461D01*
X539276Y96186D01*
X541365Y96461D01*
X543311Y97267D01*
X544982Y98549D01*
X546264Y100221D01*
X547070Y102167D01*
X547345Y104255D01*
X547072Y106334D01*
X547354Y107755D01*
Y121191D01*
X547355Y121191D01*
X547044Y122751D01*
X546160Y124074D01*
X536828Y133406D01*
Y183039D01*
X554498Y200709D01*
X555672Y200222D01*
Y193704D01*
X554044Y192456D01*
X552762Y190784D01*
X551956Y188838D01*
X551681Y186750D01*
X551752Y186212D01*
X551062Y185522D01*
X550590Y185307D01*
X548400Y185018D01*
X546211Y184111D01*
X544331Y182669D01*
X542889Y180789D01*
X541982Y178599D01*
X541672Y176250D01*
X541982Y173901D01*
X542889Y171711D01*
X544331Y169831D01*
X546211Y168389D01*
X548400Y167482D01*
X549558Y167329D01*
X550715Y166856D01*
X550619Y165993D01*
X550422Y164500D01*
X550732Y162150D01*
X551638Y159961D01*
X553081Y158081D01*
X554961Y156638D01*
X557150Y155732D01*
X559500Y155422D01*
X561850Y155732D01*
X564039Y156638D01*
X565919Y158081D01*
X567361Y159961D01*
X567402Y160058D01*
X568672Y159806D01*
Y145439D01*
X561300Y138068D01*
X559267Y138336D01*
X557178Y138061D01*
X555232Y137255D01*
X553561Y135972D01*
X552279Y134301D01*
X551473Y132355D01*
X551198Y130267D01*
X551473Y128178D01*
X552279Y126232D01*
X553561Y124561D01*
X555232Y123279D01*
X557178Y122473D01*
X559267Y122198D01*
X561355Y122473D01*
X563301Y123279D01*
X564972Y124561D01*
X566255Y126232D01*
X567061Y128178D01*
X567336Y130267D01*
X567068Y132300D01*
X575634Y140866D01*
X575634Y140866D01*
X576518Y142189D01*
X576828Y143750D01*
X576828Y143750D01*
Y210311D01*
X590134Y223616D01*
X590134Y223616D01*
X591018Y224939D01*
X591328Y226500D01*
Y274250D01*
X591328Y274250D01*
X591018Y275811D01*
X590134Y277134D01*
X588357Y278911D01*
Y294310D01*
X589984Y295559D01*
X591267Y297230D01*
X592073Y299176D01*
X592347Y301265D01*
X592073Y303353D01*
X591267Y305299D01*
X589984Y306970D01*
X588313Y308253D01*
X586367Y309059D01*
X584278Y309334D01*
X582190Y309059D01*
X580244Y308253D01*
X578573Y306970D01*
X577290Y305299D01*
X576776Y304058D01*
X575311Y303727D01*
X558328Y320710D01*
Y365561D01*
X576857Y384089D01*
X577544Y384044D01*
X579216Y382762D01*
X581162Y381956D01*
X583250Y381681D01*
X585338Y381956D01*
X587285Y382762D01*
X588956Y384044D01*
X590238Y385715D01*
X591044Y387662D01*
X591319Y389750D01*
X591044Y391838D01*
X590238Y393784D01*
X588956Y395456D01*
X587285Y396738D01*
X585338Y397544D01*
X583250Y397819D01*
D02*
G37*
G36*
X369230Y426641D02*
X364425D01*
X362215Y426201D01*
X360341Y424949D01*
X359089Y423075D01*
X358649Y420865D01*
Y419010D01*
X369230D01*
Y426641D01*
D02*
G37*
G36*
X376575D02*
X371770D01*
Y419010D01*
X382351D01*
Y420865D01*
X381911Y423075D01*
X380659Y424949D01*
X378785Y426201D01*
X376575Y426641D01*
D02*
G37*
G36*
X542040Y416540D02*
X535250D01*
Y409750D01*
X542040D01*
Y416540D01*
D02*
G37*
G36*
X514250D02*
X507460D01*
Y409750D01*
X514250D01*
Y416540D01*
D02*
G37*
G36*
X79730Y332255D02*
X71260D01*
Y330940D01*
X71657Y328940D01*
X72790Y327245D01*
X74485Y326112D01*
X76485Y325715D01*
X79730D01*
Y332255D01*
D02*
G37*
G36*
X638500Y364319D02*
X636412Y364044D01*
X634465Y363238D01*
X632794Y361956D01*
X631512Y360285D01*
X630706Y358338D01*
X630431Y356250D01*
X630706Y354162D01*
X631512Y352215D01*
X632794Y350544D01*
X634465Y349262D01*
X636412Y348456D01*
X638392Y348195D01*
Y325573D01*
X630356Y317537D01*
X630338Y317544D01*
X628250Y317819D01*
X626162Y317544D01*
X624216Y316738D01*
X622544Y315456D01*
X621262Y313785D01*
X620456Y311838D01*
X620181Y309750D01*
X620456Y307662D01*
X621262Y305716D01*
X622544Y304044D01*
X624216Y302762D01*
X625279Y302322D01*
X625577Y300824D01*
X622866Y298113D01*
X621982Y296790D01*
X621672Y295229D01*
X621672Y295229D01*
Y293493D01*
X620162Y293294D01*
X618215Y292488D01*
X616544Y291206D01*
X615262Y289534D01*
X614456Y287588D01*
X614181Y285500D01*
X614456Y283412D01*
X615262Y281465D01*
X616544Y279794D01*
X618215Y278512D01*
X620162Y277706D01*
X622250Y277431D01*
X624338Y277706D01*
X626284Y278512D01*
X627956Y279794D01*
X629238Y281465D01*
X630044Y283412D01*
X630319Y285500D01*
X630044Y287588D01*
X629709Y288398D01*
X629828Y289000D01*
X629828Y289000D01*
Y293540D01*
X655980Y319692D01*
X656088Y319706D01*
X658035Y320512D01*
X659706Y321794D01*
X660988Y323465D01*
X661794Y325412D01*
X662069Y327500D01*
X661794Y329588D01*
X660988Y331535D01*
X659706Y333206D01*
X658035Y334488D01*
X656088Y335294D01*
X654000Y335569D01*
X651912Y335294D01*
X650878Y334866D01*
X649608Y335714D01*
Y350750D01*
X649181Y352896D01*
X647965Y354715D01*
X646553Y356128D01*
X646569Y356250D01*
X646294Y358338D01*
X645488Y360285D01*
X644206Y361956D01*
X642534Y363238D01*
X640588Y364044D01*
X638500Y364319D01*
D02*
G37*
G36*
X674980Y332540D02*
X663710D01*
Y321270D01*
X674980D01*
Y332540D01*
D02*
G37*
G36*
X688790D02*
X677520D01*
Y321270D01*
X688790D01*
Y332540D01*
D02*
G37*
G36*
X85515Y341335D02*
X82270D01*
Y334795D01*
X90740D01*
Y336110D01*
X90343Y338110D01*
X89210Y339805D01*
X87515Y340938D01*
X85515Y341335D01*
D02*
G37*
G36*
X582750Y378819D02*
X580662Y378544D01*
X578716Y377738D01*
X577044Y376456D01*
X575762Y374785D01*
X574956Y372838D01*
X574681Y370750D01*
X574956Y368662D01*
X575762Y366716D01*
X577044Y365044D01*
X578716Y363762D01*
X580662Y362956D01*
X582750Y362681D01*
X584838Y362956D01*
X586595Y363684D01*
X599172Y351107D01*
Y327505D01*
X597998Y327019D01*
X596884Y328134D01*
X595561Y329018D01*
X594000Y329328D01*
X594000Y329328D01*
X579816D01*
X578088Y330044D01*
X576000Y330319D01*
X573912Y330044D01*
X571965Y329238D01*
X570294Y327956D01*
X569012Y326284D01*
X568206Y324338D01*
X567931Y322250D01*
X568206Y320162D01*
X569012Y318216D01*
X570294Y316544D01*
X571965Y315262D01*
X573912Y314456D01*
X576000Y314181D01*
X578088Y314456D01*
X580034Y315262D01*
X581706Y316544D01*
X582988Y318216D01*
X583794Y320162D01*
X583927Y321172D01*
X592311D01*
X594672Y318811D01*
Y222689D01*
X589032Y217050D01*
X588148Y215727D01*
X587838Y214166D01*
X587838Y214166D01*
Y203523D01*
X585236Y200921D01*
X585180Y200884D01*
X585180Y200884D01*
X584616Y200320D01*
X583732Y198997D01*
X583422Y197436D01*
X583422Y197436D01*
Y140370D01*
X562192Y119140D01*
X562192Y119140D01*
X561312Y119243D01*
X559366Y120050D01*
X557277Y120324D01*
X555189Y120050D01*
X553243Y119243D01*
X551572Y117961D01*
X550289Y116290D01*
X549483Y114344D01*
X549208Y112255D01*
X549483Y110167D01*
X550289Y108221D01*
X551572Y106550D01*
X553243Y105267D01*
X555189Y104461D01*
X557277Y104186D01*
X559366Y104461D01*
X561312Y105267D01*
X562983Y106550D01*
X563223Y106863D01*
X564302Y106721D01*
X564577Y106541D01*
X565794Y104954D01*
X567466Y103671D01*
X569412Y102865D01*
X571500Y102590D01*
X573588Y102865D01*
X575535Y103671D01*
X577206Y104954D01*
X578488Y106625D01*
X578792Y107359D01*
X580280Y107632D01*
X581912Y106956D01*
X584000Y106681D01*
X586088Y106956D01*
X588035Y107762D01*
X589706Y109044D01*
X590988Y110716D01*
X591794Y112662D01*
X592069Y114750D01*
X591794Y116839D01*
X591694Y117079D01*
X591768Y117189D01*
X592078Y118750D01*
X592078Y118750D01*
Y123382D01*
X599384Y130687D01*
X600268Y132010D01*
X600578Y133571D01*
X600578Y133571D01*
Y191183D01*
X604634Y195239D01*
X605518Y196562D01*
X605828Y198123D01*
X605828Y198123D01*
Y204610D01*
X610634Y209415D01*
X610634Y209415D01*
X611518Y210738D01*
X611828Y212299D01*
X611828Y212299D01*
Y325061D01*
X622687Y335920D01*
X624500Y335681D01*
X626588Y335956D01*
X628535Y336762D01*
X630206Y338044D01*
X631488Y339715D01*
X632294Y341662D01*
X632569Y343750D01*
X632294Y345838D01*
X631488Y347785D01*
X630206Y349456D01*
X628535Y350738D01*
X626588Y351544D01*
X624500Y351819D01*
X622412Y351544D01*
X620466Y350738D01*
X618794Y349456D01*
X617512Y347785D01*
X616706Y345838D01*
X616431Y343750D01*
X616706Y341662D01*
X616761Y341529D01*
X608502Y333269D01*
X607328Y333755D01*
Y352797D01*
X607328Y352797D01*
X607018Y354357D01*
X606134Y355681D01*
X606134Y355681D01*
X590782Y371032D01*
X590544Y372838D01*
X589738Y374785D01*
X588456Y376456D01*
X586785Y377738D01*
X584838Y378544D01*
X582750Y378819D01*
D02*
G37*
G36*
X90740Y332255D02*
X82270D01*
Y325715D01*
X85515D01*
X87515Y326112D01*
X89210Y327245D01*
X90343Y328940D01*
X90740Y330940D01*
Y332255D01*
D02*
G37*
G36*
X79730Y341335D02*
X76485D01*
X74485Y340938D01*
X72790Y339805D01*
X71657Y338110D01*
X71260Y336110D01*
Y334795D01*
X79730D01*
Y341335D01*
D02*
G37*
%LPD*%
G36*
X400162Y282338D02*
Y252412D01*
X398750Y251000D01*
X395000D01*
Y251000D01*
X394807Y250871D01*
X393727Y251319D01*
X391769Y251577D01*
X389811Y251319D01*
X387987Y250563D01*
X386420Y249361D01*
X385218Y247794D01*
X384462Y245970D01*
X384249Y244351D01*
X378645Y238747D01*
X377540Y237093D01*
X377152Y235142D01*
Y224652D01*
X372500Y220000D01*
X285358Y132858D01*
X168722D01*
X162500Y139080D01*
Y145000D01*
Y160000D01*
X165000Y162500D01*
X267500D01*
X272500Y167500D01*
X392500Y287500D01*
X395000D01*
X400162Y282338D01*
D02*
G37*
D16*
X727250Y421750D02*
D03*
X10000Y423750D02*
D03*
X728750Y17750D02*
D03*
X291264Y265013D02*
D03*
X326266Y248262D02*
D03*
X257500Y271000D02*
D03*
X48250Y222000D02*
D03*
X38250D02*
D03*
X489086Y22367D02*
D03*
X617250Y217000D02*
D03*
X538000Y211000D02*
D03*
X616750Y272500D02*
D03*
Y297000D02*
D03*
X617250Y242500D02*
D03*
X584278Y301265D02*
D03*
X619250Y204000D02*
D03*
X628250Y309750D02*
D03*
X559750Y186750D02*
D03*
X101000Y41750D02*
D03*
X298750Y75000D02*
D03*
X137750Y45500D02*
D03*
X566528Y53753D02*
D03*
X590029Y67503D02*
D03*
X579778Y81504D02*
D03*
X592750Y55000D02*
D03*
X535000Y58750D02*
D03*
X670533Y48752D02*
D03*
X660084Y74055D02*
D03*
X659282Y91255D02*
D03*
X657500Y32000D02*
D03*
X673783Y28751D02*
D03*
X662000Y303000D02*
D03*
X662250Y267750D02*
D03*
X159250Y128250D02*
D03*
X447750Y222750D02*
D03*
X485024Y275763D02*
D03*
Y254512D02*
D03*
X433250Y163000D02*
D03*
X419771Y163008D02*
D03*
X432000Y138500D02*
D03*
X341767Y123256D02*
D03*
X354500Y123750D02*
D03*
X444000Y180000D02*
D03*
X292250Y302500D02*
D03*
X280250Y295000D02*
D03*
X316045Y294205D02*
D03*
X313500Y276250D02*
D03*
X395250Y268750D02*
D03*
X391769Y244012D02*
D03*
X108500Y15750D02*
D03*
X389500Y209500D02*
D03*
X131000Y150000D02*
D03*
X132250Y160250D02*
D03*
X170000Y150000D02*
D03*
X369500Y189750D02*
D03*
X418500Y136000D02*
D03*
X395000Y280750D02*
D03*
X392250Y231000D02*
D03*
X395250Y257250D02*
D03*
X576000Y322250D02*
D03*
X496500Y302000D02*
D03*
X570000Y291250D02*
D03*
X304000Y426000D02*
D03*
X106000Y195750D02*
D03*
X352750Y102750D02*
D03*
X382769Y194009D02*
D03*
X376518Y211510D02*
D03*
X145000Y210000D02*
D03*
X197000Y143750D02*
D03*
X170000Y140000D02*
D03*
X92000Y33000D02*
D03*
X349000Y425250D02*
D03*
X266250Y424750D02*
D03*
X279750Y35250D02*
D03*
X278750Y50250D02*
D03*
X294750Y35500D02*
D03*
X385019Y135257D02*
D03*
X237000Y196500D02*
D03*
X269750Y177000D02*
D03*
X269500Y222500D02*
D03*
X255000Y252500D02*
D03*
X660250Y180500D02*
D03*
X663408Y146929D02*
D03*
X185750Y316250D02*
D03*
X132500Y375000D02*
D03*
X121000Y348750D02*
D03*
X140500Y349000D02*
D03*
X151750Y376750D02*
D03*
X110750Y358750D02*
D03*
X661250Y423500D02*
D03*
X188750Y247000D02*
D03*
X176750Y212000D02*
D03*
X224500Y252250D02*
D03*
X88250Y358250D02*
D03*
X167750Y352750D02*
D03*
X68500Y316750D02*
D03*
X103750Y375250D02*
D03*
X661032Y377768D02*
D03*
X692000Y232500D02*
D03*
X333266Y46002D02*
D03*
X329000Y117250D02*
D03*
X223000Y391750D02*
D03*
X303500Y363500D02*
D03*
X267250Y369500D02*
D03*
X222750Y371750D02*
D03*
X323500Y305000D02*
D03*
X325750Y261000D02*
D03*
X492500Y387500D02*
D03*
X445000Y384500D02*
D03*
X492500Y375000D02*
D03*
X396000Y380250D02*
D03*
X410500Y380000D02*
D03*
X424750D02*
D03*
X217750Y263250D02*
D03*
X640781Y161258D02*
D03*
X651000Y205000D02*
D03*
X610500Y86750D02*
D03*
X539276Y104255D02*
D03*
X546488Y130500D02*
D03*
X534776Y116756D02*
D03*
X557277Y112255D02*
D03*
X584000Y114750D02*
D03*
X606530Y111756D02*
D03*
X567278Y66253D02*
D03*
X612750Y123213D02*
D03*
X609500Y99250D02*
D03*
X602529Y69753D02*
D03*
X571500Y110659D02*
D03*
X567278Y79004D02*
D03*
X349750Y82000D02*
D03*
X312250Y98569D02*
D03*
X323000Y63500D02*
D03*
X349750Y64500D02*
D03*
X316515Y329516D02*
D03*
X672750Y413500D02*
D03*
X621250Y368750D02*
D03*
X178500Y238250D02*
D03*
X183250Y345500D02*
D03*
X222250Y342000D02*
D03*
X395250Y81500D02*
D03*
X719000Y203500D02*
D03*
X732000Y108500D02*
D03*
X288000Y326250D02*
D03*
X303250Y343750D02*
D03*
X268750Y326250D02*
D03*
X217750Y305250D02*
D03*
X68250Y332000D02*
D03*
X197000Y329250D02*
D03*
X204000Y248250D02*
D03*
X102500Y245250D02*
D03*
X124500Y289000D02*
D03*
X112500Y266500D02*
D03*
X346250Y40500D02*
D03*
X166000Y200750D02*
D03*
X485500Y205750D02*
D03*
X182000Y382500D02*
D03*
X485500Y218250D02*
D03*
X638500Y356250D02*
D03*
X212250Y317500D02*
D03*
X161750Y316000D02*
D03*
X69500Y301500D02*
D03*
X76500Y255500D02*
D03*
X133000Y255750D02*
D03*
X130250Y277000D02*
D03*
X672750Y211500D02*
D03*
X649250Y238000D02*
D03*
X612530Y177759D02*
D03*
X582750Y370750D02*
D03*
X583250Y389750D02*
D03*
X633250Y333750D02*
D03*
X593000Y344000D02*
D03*
X545250Y372250D02*
D03*
X658250Y351000D02*
D03*
X93000Y339750D02*
D03*
X105000Y316000D02*
D03*
X438500Y426000D02*
D03*
X204250D02*
D03*
X671533Y104505D02*
D03*
X692000Y132250D02*
D03*
X685250Y68000D02*
D03*
X718250Y83750D02*
D03*
X462523Y58253D02*
D03*
X487195Y34867D02*
D03*
X489274Y57054D02*
D03*
X346267Y16251D02*
D03*
X361018Y26955D02*
D03*
X373518Y27001D02*
D03*
X484750Y141250D02*
D03*
X471000Y119750D02*
D03*
X422271Y82504D02*
D03*
X425771Y54003D02*
D03*
X509250Y168750D02*
D03*
X630250Y231500D02*
D03*
X559267Y130267D02*
D03*
X465750Y14000D02*
D03*
X459272Y33252D02*
D03*
X458272Y45752D02*
D03*
X527526Y32502D02*
D03*
X167750Y381750D02*
D03*
X319500Y375750D02*
D03*
X619500Y40500D02*
D03*
X184750Y398750D02*
D03*
X38000Y294000D02*
D03*
X159500Y425000D02*
D03*
X460000Y367500D02*
D03*
X497500Y332500D02*
D03*
X456942Y239692D02*
D03*
X460000Y267500D02*
D03*
X533276Y329766D02*
D03*
X530250Y276250D02*
D03*
X568250Y257750D02*
D03*
X544120Y233400D02*
D03*
X576750Y228500D02*
D03*
X583279Y210260D02*
D03*
X624500Y343750D02*
D03*
X627500Y252000D02*
D03*
X627750Y265500D02*
D03*
X659782Y230761D02*
D03*
X684500Y347500D02*
D03*
X724500Y347750D02*
D03*
X643250Y276500D02*
D03*
X622250Y285500D02*
D03*
X654000Y327500D02*
D03*
X729500Y320750D02*
D03*
X729250Y284750D02*
D03*
X730000Y250500D02*
D03*
X143250Y424500D02*
D03*
X589000Y313250D02*
D03*
X640000Y289000D02*
D03*
X58250Y222000D02*
D03*
X194500Y46250D02*
D03*
X193250Y68500D02*
D03*
X122000Y29250D02*
D03*
X129500Y68500D02*
D03*
X115250Y187000D02*
D03*
X149750Y109500D02*
D03*
X143250Y88000D02*
D03*
X143000Y75500D02*
D03*
D17*
X699975Y216500D02*
D03*
X719025D02*
D03*
D18*
X81000Y314475D02*
D03*
Y333525D02*
D03*
D19*
X370500Y387260D02*
D03*
Y417740D02*
D03*
D38*
X65000Y421000D02*
D03*
X95000D02*
D03*
X125000D02*
D03*
D55*
X579000Y82726D02*
X580028Y81698D01*
X693000Y13500D02*
X694750Y15250D01*
X661000D02*
X669350D01*
X264729Y184000D02*
X328991Y248262D01*
X330516D01*
X326266D02*
X328991D01*
X330241Y249512D01*
X331004Y248750D01*
X330516Y248262D02*
X331004Y248750D01*
X312000Y259250D02*
Y277000D01*
X141500Y89250D02*
X143000Y90750D01*
X143250Y89250D02*
X150750D01*
X141500D02*
X143250D01*
X360973Y26955D02*
X361018Y27001D01*
X699975Y215750D02*
X703630D01*
X432000Y138500D02*
Y164250D01*
X373518Y27001D02*
X377270Y23250D01*
X426250D01*
X439250Y36250D01*
Y54250D01*
X434271Y38771D02*
Y55635D01*
X424500Y29000D02*
X434271Y38771D01*
Y55635D02*
X454190Y75554D01*
X496937D01*
X398250Y29000D02*
X424500D01*
X443428Y24752D02*
X455751D01*
X428926Y10250D02*
X443428Y24752D01*
X351750Y10250D02*
X428926D01*
X378000Y49250D02*
X398250Y29000D01*
X405750Y34250D02*
X420695D01*
X385498Y54502D02*
X405750Y34250D01*
X346267Y15733D02*
X351750Y10250D01*
X480658Y22367D02*
X489086D01*
X561000Y23250D02*
X562250Y24500D01*
X507276Y23250D02*
X561000D01*
X562250Y24500D02*
X603550D01*
X625750Y295229D02*
X654000Y323479D01*
X625750Y289000D02*
Y295229D01*
X622250Y285500D02*
X625750Y289000D01*
X607750Y212299D02*
Y326750D01*
X603250Y216250D02*
Y352797D01*
X598750Y221000D02*
Y320500D01*
X607750Y326750D02*
X624500Y343500D01*
X585297Y370750D02*
X603250Y352797D01*
X594000Y325250D02*
X598750Y320500D01*
X584278Y277222D02*
X587250Y274250D01*
X584278Y277222D02*
Y301265D01*
X578500Y272750D02*
Y294771D01*
X554250Y319021D02*
X578500Y294771D01*
X597250Y210250D02*
X603250Y216250D01*
X601750Y206299D02*
X607750Y212299D01*
X591916Y214166D02*
X598750Y221000D01*
X601750Y198123D02*
Y206299D01*
X596500Y192873D02*
X601750Y198123D01*
X624500Y343500D02*
Y343750D01*
X568250Y233500D02*
X582750Y248000D01*
X587250Y226500D02*
Y274250D01*
X572750Y212000D02*
X587250Y226500D01*
X582750Y248000D02*
Y268500D01*
X578500Y272750D02*
X582750Y268500D01*
X568250Y220228D02*
Y233500D01*
X591916Y201834D02*
Y214166D01*
X597250Y199987D02*
Y210250D01*
X588082Y198000D02*
X591916Y201834D01*
X592000Y194737D02*
X597250Y199987D01*
X596500Y133571D02*
Y192873D01*
X619250Y204000D02*
X621030Y202220D01*
X633250Y206500D02*
X648500Y221750D01*
X633250Y172111D02*
Y206500D01*
X621030Y174033D02*
Y202220D01*
X625750Y164611D02*
X633250Y172111D01*
X554250Y319021D02*
Y367250D01*
X654000Y323479D02*
Y327500D01*
X559750Y186750D02*
Y205364D01*
X532750Y184728D02*
X568250Y220228D01*
X656000Y285000D02*
X676250D01*
X640000Y289000D02*
X652000D01*
X656000Y285000D01*
X536250Y47000D02*
X548250Y35000D01*
X599250D02*
X614000Y49750D01*
X530027Y30000D02*
X611750D01*
X527526Y32502D02*
X530027Y30000D01*
X563007Y45253D02*
X572003D01*
X541009Y67250D02*
X563007Y45253D01*
X566528Y53753D02*
X566798D01*
X577250Y54725D02*
X590029Y67503D01*
X581529Y71234D02*
X588278Y77983D01*
Y85025D01*
X579778Y81504D02*
X579835D01*
X572003Y45253D02*
X577500Y50750D01*
X548250Y35000D02*
X599250D01*
X611750Y30000D02*
X615000Y26750D01*
X486750Y47000D02*
X536250D01*
X632000Y45250D02*
X662195D01*
X679000Y43979D02*
Y54521D01*
X675773Y40752D02*
X679000Y43979D01*
X666692Y40752D02*
X675773D01*
X662195Y45250D02*
X666692Y40752D01*
X665036Y36751D02*
X677186D01*
X661769Y40019D02*
X665036Y36751D01*
X619981Y40019D02*
X661769D01*
X677186Y36751D02*
X682500Y31437D01*
X659282Y91255D02*
Y104968D01*
X668584Y72155D02*
X680179Y83750D01*
X668584Y66084D02*
Y72155D01*
X603550Y24500D02*
X613550Y14500D01*
X498877Y67250D02*
X541009D01*
X500741Y71750D02*
X561781D01*
X502605Y76250D02*
X564524D01*
X504469Y80750D02*
X556753D01*
X524253Y85250D02*
X554889D01*
X516503Y93000D02*
X524253Y85250D01*
X526409Y89750D02*
X552500D01*
X518000Y98159D02*
X526409Y89750D01*
X583008Y96659D02*
X592778Y86889D01*
X559409Y96659D02*
X583008D01*
X581144Y92159D02*
X588278Y85025D01*
X561798Y92159D02*
X581144D01*
X576278Y87504D02*
X579000Y84782D01*
X563507Y87504D02*
X576278D01*
X577250Y54725D02*
X577500Y54475D01*
Y50750D02*
Y54475D01*
X410250Y218229D02*
Y263092D01*
X414750Y267592D02*
Y285000D01*
X410250Y263092D02*
X414750Y267592D01*
X521801Y255000D02*
X565500D01*
X492538Y284263D02*
X521801Y255000D01*
X565500D02*
X568250Y257750D01*
X479750Y171282D02*
Y196056D01*
X469250Y206556D02*
X479750Y196056D01*
X298250Y104750D02*
X345250Y151750D01*
X439250Y206000D02*
Y246000D01*
X345250Y151750D02*
X387750D01*
X420250Y184250D01*
Y187000D01*
X439250Y206000D01*
X386030Y194009D02*
X410250Y218229D01*
X439250Y246000D02*
X451000Y257750D01*
X465500D01*
X469250Y261500D01*
Y206556D02*
Y230250D01*
X485024Y246024D01*
Y254512D01*
X481503Y284263D02*
X492538D01*
X469250Y272011D02*
X481503Y284263D01*
X469250Y261500D02*
Y272011D01*
X479750Y171282D02*
X534276Y116756D01*
X432000Y164250D02*
X433250Y165500D01*
Y163000D02*
Y165500D01*
X391000Y115250D02*
X413250Y93000D01*
X350750Y115250D02*
X391000D01*
X342744Y123256D02*
X350750Y115250D01*
X312750Y276250D02*
X313500D01*
X370234Y329516D02*
X414750Y285000D01*
X316515Y329516D02*
X370234D01*
X382769Y194009D02*
X386030D01*
X576000Y322250D02*
X579000Y325250D01*
X693000Y13500D02*
X694500D01*
X686000D02*
X693000D01*
X682500Y17000D02*
Y31437D01*
Y17000D02*
X686000Y13500D01*
X320319Y90500D02*
X386250D01*
X588000Y125071D02*
X596500Y133571D01*
X598000Y120484D02*
X615750Y138233D01*
X598000Y98729D02*
Y120484D01*
X648500Y221750D02*
X686750D01*
X625750Y118756D02*
Y164611D01*
X615750Y138233D02*
Y168753D01*
X663500Y61000D02*
X668584Y66084D01*
X649750Y61000D02*
X663500D01*
X611500Y99250D02*
X649750Y61000D01*
X565076Y116256D02*
X587500Y138680D01*
X571278Y114713D02*
X592000Y135435D01*
X615750Y168753D02*
X621030Y174033D01*
X632281Y157737D02*
X641250Y148768D01*
X632281Y157737D02*
Y164779D01*
X637261Y169758D01*
X637510D01*
X329171Y365000D02*
X361181Y397010D01*
X344807Y387000D02*
X359807Y402000D01*
X324636Y387000D02*
X344807D01*
X303136Y408500D02*
X324636Y387000D01*
X208000Y408500D02*
X303136D01*
X342943Y391500D02*
X357943Y406500D01*
X326500Y391500D02*
X342943D01*
X304000Y414000D02*
X326500Y391500D01*
X200000Y414000D02*
X304000D01*
X361181Y397010D02*
X445761D01*
X359807Y402000D02*
X496377D01*
X357943Y406500D02*
X498241D01*
X172750Y184000D02*
X264729D01*
X294750Y35500D02*
X299000Y31250D01*
X385019Y135257D02*
X386153D01*
X166000Y190750D02*
X172750Y184000D01*
X275250Y222500D02*
X312000Y259250D01*
X269500Y222500D02*
X275250D01*
X651000Y183247D02*
Y205000D01*
X637510Y169758D02*
X651000Y183247D01*
X175500Y241250D02*
X178000Y238750D01*
X175500Y241250D02*
Y337750D01*
X692000Y216500D02*
X699975D01*
X686750Y221750D02*
X692000Y216500D01*
X333266Y46002D02*
X335752D01*
X312000Y277000D02*
X312750Y276250D01*
X552500Y89750D02*
X559409Y96659D01*
X554889Y85250D02*
X561798Y92159D01*
X556753Y80750D02*
X563507Y87504D01*
X564524Y76250D02*
X567278Y79004D01*
X561781Y71750D02*
X567278Y66253D01*
X592778Y77151D02*
X600176Y69753D01*
X592778Y77151D02*
Y86889D01*
X609979Y86750D02*
X610500D01*
X539276Y104255D02*
X539776D01*
X543276Y107755D01*
X534276Y116756D02*
X534776D01*
X532750Y131717D02*
X543276Y121191D01*
Y107755D02*
Y121191D01*
X557277Y112255D02*
X561075D01*
X584000Y114750D02*
X588000Y118750D01*
X606530Y111756D02*
X618750D01*
X581529Y68484D02*
Y71234D01*
X609500Y99250D02*
X611500D01*
X600176Y69753D02*
X602529D01*
X566798Y53753D02*
X581529Y68484D01*
X571500Y110659D02*
Y114491D01*
X312250Y98569D02*
X320319Y90500D01*
X386250D02*
X395250Y81500D01*
X336787Y37502D02*
X339785Y40500D01*
X346250D01*
X339000Y49250D02*
X378000D01*
X335752Y46002D02*
X339000Y49250D01*
X175500Y337750D02*
X183250Y345500D01*
X618750Y111756D02*
X625750Y118756D01*
X718870Y203630D02*
X719000Y203500D01*
X718870Y203630D02*
Y215750D01*
X678783Y54738D02*
Y61533D01*
Y54738D02*
X679000Y54521D01*
X598000Y98729D02*
X609979Y86750D01*
X562778Y113958D02*
Y113958D01*
X571278Y114713D02*
X571500Y114491D01*
X561075Y112255D02*
X562778Y113958D01*
X579000Y82726D02*
Y84782D01*
X579835Y81504D02*
X580028Y81698D01*
X166000Y190750D02*
Y200750D01*
X182000Y382500D02*
X208000Y408500D01*
X359250Y25233D02*
X360973Y26955D01*
X562778Y113958D02*
X565076Y116256D01*
X576750Y389750D02*
X583250D01*
X641250Y123000D02*
Y148768D01*
Y123000D02*
X659282Y104968D01*
X678783Y61533D02*
X685250Y68000D01*
X680179Y83750D02*
X718250D01*
X467000Y33252D02*
X474498Y40750D01*
X480500D01*
X495393Y34867D02*
X495526Y35000D01*
X487195Y34867D02*
X495393D01*
X489274Y55888D02*
Y57054D01*
X495073Y71054D02*
X498877Y67250D01*
X496937Y75554D02*
X500741Y71750D01*
X498801Y80054D02*
X502605Y76250D01*
X500665Y84554D02*
X504469Y80750D01*
X444092Y84554D02*
X500665D01*
X450304Y80054D02*
X498801D01*
X456054Y71054D02*
X495073D01*
X346267Y15733D02*
Y16251D01*
X360973Y26955D02*
X361018D01*
X400750Y50750D02*
X407250Y44250D01*
X415500D01*
X400750Y50750D02*
Y64000D01*
X420695Y34250D02*
X425771Y39326D01*
X386153Y135257D02*
X423250Y98159D01*
X518000D01*
X437750Y67500D02*
X450304Y80054D01*
X425771Y39326D02*
Y54003D01*
X466752Y33500D02*
X467000Y33252D01*
X466504Y33252D02*
X466752Y33500D01*
X455751Y24752D02*
X455752Y24752D01*
X462793D01*
X462794Y24752D01*
X588000Y118750D02*
Y125071D01*
X565076Y116256D02*
X565076D01*
X582750Y370750D02*
X585297D01*
X559267Y130267D02*
X559267D01*
X459272Y33252D02*
X466504D01*
X439250Y54250D02*
X456054Y71054D01*
X458272Y45752D02*
X479138D01*
X489274Y55888D01*
X478272Y24752D02*
X480658Y22367D01*
X462794Y24752D02*
X478272D01*
X480500Y40750D02*
X486750Y47000D01*
X495526Y35000D02*
X507276Y23250D01*
X121000Y348750D02*
X134500Y362250D01*
X187250D01*
X207500Y382500D01*
X297750D01*
X315250Y365000D02*
X329171D01*
X297750Y382500D02*
X315250Y365000D01*
X614000Y49750D02*
X627500D01*
X632000Y45250D01*
X619500Y40500D02*
X619981Y40019D01*
X649500Y26750D02*
X661000Y15250D01*
X615000Y26750D02*
X649500D01*
X630051Y408750D02*
X661032Y377768D01*
X511754Y392500D02*
X511754Y392500D01*
X507741Y397000D02*
X509890D01*
X509890Y397000D01*
X496377Y402000D02*
X505877Y392500D01*
X511754D01*
X498241Y406500D02*
X507741Y397000D01*
X184750Y398750D02*
X200000Y414000D01*
X460000Y367500D02*
Y382771D01*
X445761Y397010D02*
X460000Y382771D01*
X559267Y130267D02*
X572750Y143750D01*
X587500Y138680D02*
Y197436D01*
X588064Y198000D01*
X588082D01*
X576750Y222364D02*
Y228500D01*
X559750Y205364D02*
X576750Y222364D01*
X532750Y131717D02*
Y184728D01*
X572750Y143750D02*
Y212000D01*
X592000Y135435D02*
Y194737D01*
X659782Y230761D02*
Y241468D01*
X649250Y252000D02*
X659782Y241468D01*
X627500Y252000D02*
X649250D01*
X356769Y31250D02*
X361018Y27001D01*
X299000Y31250D02*
X356769D01*
X579000Y325250D02*
X594000D01*
X567000Y413500D02*
X672750D01*
X569000Y408750D02*
X630051D01*
X509890Y397000D02*
X550500D01*
X567000Y413500D01*
X511754Y392500D02*
X552750D01*
X569000Y408750D01*
X554250Y367250D02*
X576750Y389750D01*
X413250Y61500D02*
X419250Y67500D01*
X437750D01*
X400750Y64000D02*
X409004Y72254D01*
X431792D02*
X444092Y84554D01*
X409004Y72254D02*
X431792D01*
X398771Y73000D02*
X408275Y82504D01*
X422271D01*
X413250Y93000D02*
X516503D01*
X324766Y42481D02*
X329745Y37502D01*
X324766Y42481D02*
Y42484D01*
X319250Y48000D02*
X324766Y42484D01*
X312612Y54502D02*
X385498D01*
X312750Y48000D02*
X319250D01*
X301114Y66000D02*
X312612Y54502D01*
X299250Y61500D02*
X312750Y48000D01*
X329745Y37502D02*
X336787D01*
X105250Y172500D02*
X107500Y170250D01*
Y150500D02*
Y170250D01*
Y150500D02*
X110500Y147500D01*
Y135500D02*
Y147500D01*
X92500D02*
X104136D01*
X106000Y145636D01*
X92500Y172500D02*
X105250D01*
X143000Y90750D02*
X143250Y90500D01*
Y89250D02*
Y90500D01*
X106000Y133636D02*
Y145636D01*
X143250Y88000D02*
Y89250D01*
X106000Y133636D02*
X143136Y96500D01*
X150271D01*
X110500Y135500D02*
X145000Y101000D01*
X168750Y104750D02*
X298250D01*
X166250Y107250D02*
Y117500D01*
X160250Y123500D02*
X166250Y117500D01*
Y107250D02*
X168750Y104750D01*
X145000Y101000D02*
X152135D01*
X292500Y61500D02*
X299250D01*
X313771Y73000D02*
X398771D01*
X152135Y101000D02*
X162135Y91000D01*
X295771D01*
X313771Y73000D01*
X150271Y96500D02*
X160271Y86500D01*
X295000Y66000D02*
X301114D01*
X160271Y86500D02*
X274500D01*
X295000Y66000D01*
X158000Y82000D02*
X272000D01*
X150750Y89250D02*
X158000Y82000D01*
X272000D02*
X292500Y61500D01*
D56*
X663408Y147381D02*
X678790Y132000D01*
X660069Y74069D02*
X678250Y92250D01*
X418500Y136000D02*
Y170000D01*
X644000Y323250D02*
Y350750D01*
X630500Y309750D02*
X644000Y323250D01*
X628250Y309750D02*
X630500D01*
X550000Y269250D02*
Y287250D01*
X533276Y303974D02*
X550000Y287250D01*
X533276Y303974D02*
Y329766D01*
X524037Y261250D02*
X542000D01*
X495023Y290264D02*
X524037Y261250D01*
X542000D02*
X550000Y269250D01*
X478513Y290264D02*
X495023D01*
X382250Y235142D02*
X391120Y244012D01*
X391769D01*
X460750Y272500D02*
X478513Y290264D01*
X351250Y186242D02*
X376518Y211510D01*
X382250Y217242D01*
X659645Y179895D02*
X660250Y180500D01*
X663408Y146929D02*
Y147381D01*
X710750Y92250D02*
X727000Y108500D01*
X732000D01*
Y143500D01*
X713964Y146036D02*
X729464D01*
X732000Y143500D01*
X382250Y217242D02*
Y235142D01*
X659645Y151145D02*
Y179895D01*
X68500Y316750D02*
X70775Y314475D01*
X81000D01*
X699928Y132000D02*
X713964Y146036D01*
X699678Y132250D02*
X699928Y132000D01*
X692000Y132250D02*
X699678D01*
X678790Y132000D02*
X679040Y132250D01*
X692000D01*
X678250Y92250D02*
X710750D01*
X638500Y356250D02*
X644000Y350750D01*
D57*
X662750Y250250D02*
X677250D01*
X497000Y14000D02*
X551250D01*
X551750Y13500D01*
X567500D01*
X197250Y255000D02*
Y329000D01*
X197000Y329250D02*
X197250Y329000D01*
Y255000D02*
X204000Y248250D01*
X68250Y332000D02*
X68380Y331870D01*
X79250D01*
X677250Y250250D02*
X677500Y250000D01*
X676250D02*
X677500D01*
X627750Y265500D02*
X647500D01*
X662750Y250250D01*
X68000Y21500D02*
X75750D01*
X76000Y21250D01*
D58*
X615522Y213000D02*
X622978D01*
X462253Y58253D02*
X470054Y66054D01*
X372500Y389760D02*
X373500Y388760D01*
Y375750D02*
Y388760D01*
X291264Y278014D02*
X307455Y294205D01*
X291264Y265013D02*
Y278014D01*
X257500Y271000D02*
Y271224D01*
X266263Y279987D01*
X105250Y122500D02*
X111750Y116000D01*
X426855Y15250D02*
X446250Y34645D01*
X359996Y15250D02*
X426855D01*
X446250Y34645D02*
Y50250D01*
X355267Y19979D02*
X359996Y15250D01*
X493447Y14000D02*
X497000D01*
X610250Y207728D02*
X615522Y213000D01*
X610250Y180039D02*
Y207728D01*
X628250Y174182D02*
Y207728D01*
X622978Y213000D02*
X628250Y207728D01*
X620750Y166682D02*
X628250Y174182D01*
X577750Y40000D02*
X592750Y55000D01*
X554750Y40000D02*
X577750D01*
X592750Y55000D02*
X601750D01*
X536000Y58750D02*
X554750Y40000D01*
X535000Y58750D02*
X536000D01*
X534500Y58250D02*
X535000Y58750D01*
X611529Y64779D02*
X632721D01*
X666535Y52750D02*
X669535Y49750D01*
X644750Y52750D02*
X666535D01*
X632721Y64779D02*
X644750Y52750D01*
X673584Y70084D02*
X682000Y78500D01*
X673584Y51342D02*
Y70084D01*
X657500Y32000D02*
X670534D01*
X673783Y28751D01*
X550645Y101659D02*
X585079D01*
X593000Y93738D01*
X548276Y104028D02*
X550645Y101659D01*
X316045Y294205D02*
Y299955D01*
X302000Y314000D02*
X316045Y299955D01*
X226750Y314000D02*
X302000D01*
X265750Y280500D02*
X280250Y295000D01*
X307455Y294205D02*
X316045D01*
X563005Y121256D02*
X582250Y140501D01*
X485500Y205750D02*
X509250Y182000D01*
Y168750D02*
Y182000D01*
X92500Y122500D02*
X105250D01*
X602250Y132250D02*
Y169500D01*
X593000Y123000D02*
X602250Y132250D01*
X620750Y131213D02*
Y166682D01*
X485500Y218250D02*
X508750D01*
X350250Y373250D02*
X371000D01*
X344500Y367500D02*
X350250Y373250D01*
X344500Y359000D02*
Y367500D01*
X279750Y35250D02*
X281750D01*
X244000Y263500D02*
X255000Y252500D01*
X265750Y280500D02*
X266263Y279987D01*
X79250Y292000D02*
X87750Y283500D01*
X79250Y312725D02*
X81000Y314475D01*
X79250Y292000D02*
Y312725D01*
X86250Y292843D02*
X88593Y290500D01*
X86250Y292843D02*
Y302500D01*
X94000Y310250D01*
X92250Y290500D02*
X92750Y290000D01*
X88593Y290500D02*
X92250D01*
X94000Y310250D02*
Y328000D01*
X217750Y263250D02*
X243750D01*
X244000Y263500D01*
X648750Y126000D02*
Y153289D01*
X640781Y161258D02*
X648750Y153289D01*
X499254Y58250D02*
X534500D01*
X546488Y130500D02*
X548276Y128711D01*
X612750Y123213D02*
X620750Y131213D01*
X597778Y79222D02*
Y88960D01*
Y79222D02*
X598247Y78753D01*
X606257D01*
X611529Y73481D01*
X593000Y93738D02*
X597778Y88960D01*
X611529Y64779D02*
Y73481D01*
X609741Y176009D02*
X611492Y177759D01*
X725500Y73250D02*
X731750Y79500D01*
X601750Y55000D02*
X611529Y64779D01*
X217750Y305250D02*
X218000D01*
X226750Y314000D01*
X87750Y283500D02*
X92750D01*
X123500Y290000D02*
X124500Y289000D01*
X111750Y290000D02*
X123500D01*
X111750Y267250D02*
X112500Y266500D01*
X602250Y169500D02*
X609250Y176500D01*
X609741Y176009D01*
X349541Y25750D02*
X350250Y25041D01*
X111750Y267250D02*
Y283500D01*
X105250Y294000D02*
X107750Y296500D01*
X102500Y245250D02*
Y270500D01*
X107750Y296500D02*
X111750D01*
X102500Y270500D02*
X105250Y273250D01*
Y294000D01*
X611492Y177759D02*
X612530D01*
X88475Y333525D02*
X94000Y328000D01*
X81000Y333525D02*
X88475D01*
X329250Y343750D02*
X344500Y359000D01*
X303250Y343750D02*
X329250D01*
X670245Y104505D02*
X671533D01*
X648750Y126000D02*
X670245Y104505D01*
X682000Y78500D02*
X698500D01*
X703750Y73250D01*
X725500D01*
X731750Y79500D02*
Y108250D01*
X732000Y108500D01*
X454000Y58000D02*
X462000D01*
X462253Y58253D01*
X462523D01*
X499024Y58481D02*
X499254Y58250D01*
X470054Y66054D02*
X493002D01*
X499024Y60032D01*
Y58481D02*
Y60032D01*
X350250Y24996D02*
Y25041D01*
Y24996D02*
X355267Y19979D01*
Y19979D02*
Y19979D01*
X446250Y50250D02*
X454000Y58000D01*
X610250Y180039D02*
X612530Y177759D01*
X593000Y93738D02*
Y123000D01*
X548276Y122500D02*
X549520Y121256D01*
X563005D01*
X548276Y104028D02*
Y122500D01*
Y128711D01*
X465750Y14000D02*
X466383Y13367D01*
X492814D01*
X493447Y14000D01*
X371000Y373250D02*
X373500Y375750D01*
X508750Y218250D02*
X523900Y233400D01*
X544120D01*
X582250Y209232D02*
X583279Y210260D01*
X582250Y140501D02*
Y209232D01*
X291250Y25750D02*
X349541D01*
X281750Y35250D02*
X291250Y25750D01*
X111750Y100750D02*
Y116000D01*
Y100750D02*
X137000Y75500D01*
X143000D01*
D61*
X460500Y192500D02*
X468750Y184250D01*
Y157250D02*
Y184250D01*
Y157250D02*
X484750Y141250D01*
D62*
X460250Y189250D02*
Y236385D01*
X438822Y192500D02*
X456000D01*
X145000Y175000D02*
X170000Y150000D01*
X145000Y175000D02*
Y210000D01*
X431500Y185178D02*
X438822Y192500D01*
X431500Y179928D02*
Y185178D01*
X456942Y239692D02*
X460250Y236385D01*
X419750Y168178D02*
X431500Y179928D01*
X419771Y163008D02*
Y168157D01*
X419750Y168178D02*
X419771Y168157D01*
X68000Y21500D02*
X74500Y28000D01*
D64*
X39250Y227250D02*
Y312249D01*
X471513Y305263D02*
X501487D01*
X132250Y151500D02*
X160250Y123500D01*
X423750Y257500D02*
X471513Y305263D01*
X423750Y212637D02*
Y257500D01*
X530250Y276250D02*
Y276500D01*
X501487Y305263D02*
X530250Y276500D01*
X292000Y120250D02*
X350000Y178250D01*
X380758Y167250D02*
X400269Y186761D01*
X361000Y167250D02*
X380758D01*
X400269Y189156D02*
X423750Y212637D01*
X400269Y186761D02*
Y189156D01*
X350000Y178250D02*
X361000Y167250D01*
X15750Y129750D02*
Y312250D01*
X50000Y357500D02*
X59234D01*
X15500Y323000D02*
X50000Y357500D01*
X15500Y312250D02*
Y323000D01*
X61251Y334250D02*
X63500D01*
X16000Y99000D02*
X18234D01*
X15500Y312250D02*
X15750D01*
X59234Y357500D02*
X96984Y395250D01*
X142250D02*
X152250Y405250D01*
X96984Y395250D02*
X142250D01*
X39250Y312249D02*
X61251Y334250D01*
X132250Y151500D02*
Y160250D01*
X164500Y120250D02*
X292000D01*
D65*
X61500Y80000D02*
Y207750D01*
X74500D01*
Y28000D02*
Y207750D01*
X48500Y80000D02*
Y207750D01*
Y80000D02*
X61500D01*
X35500Y145750D02*
Y207750D01*
X48500D01*
D66*
X550750Y176250D02*
D03*
X559500Y164500D02*
D03*
X35500Y132750D02*
D03*
Y88750D02*
D03*
D67*
X16000Y99000D02*
D03*
X68000Y21500D02*
D03*
D68*
X15750Y129750D02*
D03*
D69*
X676250Y320000D02*
D03*
Y285000D02*
D03*
X92500Y95000D02*
D03*
Y60000D02*
D03*
Y147500D02*
D03*
Y172500D02*
D03*
D70*
X676250Y250000D02*
D03*
X92500Y122500D02*
D03*
D71*
X69000Y399000D02*
D03*
X707750Y108500D02*
D03*
Y157500D02*
D03*
D72*
X532750Y407250D02*
D03*
X516750D02*
D03*
D73*
X532750Y382250D02*
D03*
X516750Y382250D02*
D03*
D74*
X336750Y405000D02*
D03*
X152250Y405250D02*
D03*
X245750Y220500D02*
D03*
D75*
X415500Y44250D02*
D03*
X413250Y61500D02*
D03*
D76*
X694500Y13500D02*
D03*
D77*
X669100D02*
D03*
X643700D02*
D03*
X618300D02*
D03*
X592900D02*
D03*
X567500D02*
D03*
D78*
X705000Y45000D02*
D03*
Y395000D02*
D03*
D79*
X30000D02*
D03*
Y45000D02*
D03*
D80*
X92750Y283500D02*
D03*
Y290000D02*
D03*
Y296500D02*
D03*
X111750D02*
D03*
Y290000D02*
D03*
Y283500D02*
D03*
D81*
X323500Y305000D02*
X384000D01*
X398750Y290250D01*
X398935D01*
X404750Y284435D01*
Y243500D02*
Y284435D01*
X392250Y231000D02*
X404750Y243500D01*
M02*
