G04 Layer_Physical_Order=1*
G04 Layer_Color=255*
%FSLAX44Y44*%
%MOMM*%
G71*
G01*
G75*
G04:AMPARAMS|DCode=10|XSize=2.6mm|YSize=2.2mm|CornerRadius=0.55mm|HoleSize=0mm|Usage=FLASHONLY|Rotation=90.000|XOffset=0mm|YOffset=0mm|HoleType=Round|Shape=RoundedRectangle|*
%AMROUNDEDRECTD10*
21,1,2.6000,1.1000,0,0,90.0*
21,1,1.5000,2.2000,0,0,90.0*
1,1,1.1000,0.5500,0.7500*
1,1,1.1000,0.5500,-0.7500*
1,1,1.1000,-0.5500,-0.7500*
1,1,1.1000,-0.5500,0.7500*
%
%ADD10ROUNDEDRECTD10*%
%ADD11R,0.4000X0.5000*%
G04:AMPARAMS|DCode=12|XSize=0.85mm|YSize=0.9mm|CornerRadius=0.2125mm|HoleSize=0mm|Usage=FLASHONLY|Rotation=270.000|XOffset=0mm|YOffset=0mm|HoleType=Round|Shape=RoundedRectangle|*
%AMROUNDEDRECTD12*
21,1,0.8500,0.4750,0,0,270.0*
21,1,0.4250,0.9000,0,0,270.0*
1,1,0.4250,-0.2375,-0.2125*
1,1,0.4250,-0.2375,0.2125*
1,1,0.4250,0.2375,0.2125*
1,1,0.4250,0.2375,-0.2125*
%
%ADD12ROUNDEDRECTD12*%
%ADD13R,1.5000X3.6000*%
G04:AMPARAMS|DCode=14|XSize=0.85mm|YSize=0.9mm|CornerRadius=0.2125mm|HoleSize=0mm|Usage=FLASHONLY|Rotation=0.000|XOffset=0mm|YOffset=0mm|HoleType=Round|Shape=RoundedRectangle|*
%AMROUNDEDRECTD14*
21,1,0.8500,0.4750,0,0,0.0*
21,1,0.4250,0.9000,0,0,0.0*
1,1,0.4250,0.2125,-0.2375*
1,1,0.4250,-0.2125,-0.2375*
1,1,0.4250,-0.2125,0.2375*
1,1,0.4250,0.2125,0.2375*
%
%ADD14ROUNDEDRECTD14*%
G04:AMPARAMS|DCode=15|XSize=0.96mm|YSize=1.02mm|CornerRadius=0.24mm|HoleSize=0mm|Usage=FLASHONLY|Rotation=270.000|XOffset=0mm|YOffset=0mm|HoleType=Round|Shape=RoundedRectangle|*
%AMROUNDEDRECTD15*
21,1,0.9600,0.5400,0,0,270.0*
21,1,0.4800,1.0200,0,0,270.0*
1,1,0.4800,-0.2700,-0.2400*
1,1,0.4800,-0.2700,0.2400*
1,1,0.4800,0.2700,0.2400*
1,1,0.4800,0.2700,-0.2400*
%
%ADD15ROUNDEDRECTD15*%
%ADD16C,1.0000*%
G04:AMPARAMS|DCode=17|XSize=1.034mm|YSize=1.42mm|CornerRadius=0.2585mm|HoleSize=0mm|Usage=FLASHONLY|Rotation=180.000|XOffset=0mm|YOffset=0mm|HoleType=Round|Shape=RoundedRectangle|*
%AMROUNDEDRECTD17*
21,1,1.0340,0.9030,0,0,180.0*
21,1,0.5170,1.4200,0,0,180.0*
1,1,0.5170,-0.2585,0.4515*
1,1,0.5170,0.2585,0.4515*
1,1,0.5170,0.2585,-0.4515*
1,1,0.5170,-0.2585,-0.4515*
%
%ADD17ROUNDEDRECTD17*%
G04:AMPARAMS|DCode=18|XSize=1.034mm|YSize=1.42mm|CornerRadius=0.2585mm|HoleSize=0mm|Usage=FLASHONLY|Rotation=90.000|XOffset=0mm|YOffset=0mm|HoleType=Round|Shape=RoundedRectangle|*
%AMROUNDEDRECTD18*
21,1,1.0340,0.9030,0,0,90.0*
21,1,0.5170,1.4200,0,0,90.0*
1,1,0.5170,0.4515,0.2585*
1,1,0.5170,0.4515,-0.2585*
1,1,0.5170,-0.4515,-0.2585*
1,1,0.5170,-0.4515,0.2585*
%
%ADD18ROUNDEDRECTD18*%
G04:AMPARAMS|DCode=19|XSize=1.25mm|YSize=1.84mm|CornerRadius=0.3125mm|HoleSize=0mm|Usage=FLASHONLY|Rotation=90.000|XOffset=0mm|YOffset=0mm|HoleType=Round|Shape=RoundedRectangle|*
%AMROUNDEDRECTD19*
21,1,1.2500,1.2150,0,0,90.0*
21,1,0.6250,1.8400,0,0,90.0*
1,1,0.6250,0.6075,0.3125*
1,1,0.6250,0.6075,-0.3125*
1,1,0.6250,-0.6075,-0.3125*
1,1,0.6250,-0.6075,0.3125*
%
%ADD19ROUNDEDRECTD19*%
%ADD20O,0.6000X1.8000*%
%ADD21O,1.8000X0.6000*%
%ADD22R,1.1000X0.6500*%
G04:AMPARAMS|DCode=23|XSize=0.65mm|YSize=1.1mm|CornerRadius=0.1625mm|HoleSize=0mm|Usage=FLASHONLY|Rotation=90.000|XOffset=0mm|YOffset=0mm|HoleType=Round|Shape=RoundedRectangle|*
%AMROUNDEDRECTD23*
21,1,0.6500,0.7750,0,0,90.0*
21,1,0.3250,1.1000,0,0,90.0*
1,1,0.3250,0.3875,0.1625*
1,1,0.3250,0.3875,-0.1625*
1,1,0.3250,-0.3875,-0.1625*
1,1,0.3250,-0.3875,0.1625*
%
%ADD23ROUNDEDRECTD23*%
G04:AMPARAMS|DCode=24|XSize=2.2mm|YSize=0.6mm|CornerRadius=0.15mm|HoleSize=0mm|Usage=FLASHONLY|Rotation=90.000|XOffset=0mm|YOffset=0mm|HoleType=Round|Shape=RoundedRectangle|*
%AMROUNDEDRECTD24*
21,1,2.2000,0.3000,0,0,90.0*
21,1,1.9000,0.6000,0,0,90.0*
1,1,0.3000,0.1500,0.9500*
1,1,0.3000,0.1500,-0.9500*
1,1,0.3000,-0.1500,-0.9500*
1,1,0.3000,-0.1500,0.9500*
%
%ADD24ROUNDEDRECTD24*%
G04:AMPARAMS|DCode=25|XSize=2.2mm|YSize=0.6mm|CornerRadius=0.15mm|HoleSize=0mm|Usage=FLASHONLY|Rotation=90.000|XOffset=0mm|YOffset=0mm|HoleType=Round|Shape=RoundedRectangle|*
%AMROUNDEDRECTD25*
21,1,2.2000,0.3000,0,0,90.0*
21,1,1.9000,0.6000,0,0,90.0*
1,1,0.3000,0.1500,0.9500*
1,1,0.3000,0.1500,-0.9500*
1,1,0.3000,-0.1500,-0.9500*
1,1,0.3000,-0.1500,0.9500*
%
%ADD25ROUNDEDRECTD25*%
G04:AMPARAMS|DCode=26|XSize=2.2mm|YSize=0.6mm|CornerRadius=0.15mm|HoleSize=0mm|Usage=FLASHONLY|Rotation=0.000|XOffset=0mm|YOffset=0mm|HoleType=Round|Shape=RoundedRectangle|*
%AMROUNDEDRECTD26*
21,1,2.2000,0.3000,0,0,0.0*
21,1,1.9000,0.6000,0,0,0.0*
1,1,0.3000,0.9500,-0.1500*
1,1,0.3000,-0.9500,-0.1500*
1,1,0.3000,-0.9500,0.1500*
1,1,0.3000,0.9500,0.1500*
%
%ADD26ROUNDEDRECTD26*%
G04:AMPARAMS|DCode=27|XSize=2.2mm|YSize=0.6mm|CornerRadius=0.15mm|HoleSize=0mm|Usage=FLASHONLY|Rotation=0.000|XOffset=0mm|YOffset=0mm|HoleType=Round|Shape=RoundedRectangle|*
%AMROUNDEDRECTD27*
21,1,2.2000,0.3000,0,0,0.0*
21,1,1.9000,0.6000,0,0,0.0*
1,1,0.3000,0.9500,-0.1500*
1,1,0.3000,-0.9500,-0.1500*
1,1,0.3000,-0.9500,0.1500*
1,1,0.3000,0.9500,0.1500*
%
%ADD27ROUNDEDRECTD27*%
%ADD28O,1.9000X0.6000*%
G04:AMPARAMS|DCode=29|XSize=0.8mm|YSize=0.75mm|CornerRadius=0.1875mm|HoleSize=0mm|Usage=FLASHONLY|Rotation=180.000|XOffset=0mm|YOffset=0mm|HoleType=Round|Shape=RoundedRectangle|*
%AMROUNDEDRECTD29*
21,1,0.8000,0.3750,0,0,180.0*
21,1,0.4250,0.7500,0,0,180.0*
1,1,0.3750,-0.2125,0.1875*
1,1,0.3750,0.2125,0.1875*
1,1,0.3750,0.2125,-0.1875*
1,1,0.3750,-0.2125,-0.1875*
%
%ADD29ROUNDEDRECTD29*%
G04:AMPARAMS|DCode=30|XSize=0.8mm|YSize=0.75mm|CornerRadius=0.1875mm|HoleSize=0mm|Usage=FLASHONLY|Rotation=90.000|XOffset=0mm|YOffset=0mm|HoleType=Round|Shape=RoundedRectangle|*
%AMROUNDEDRECTD30*
21,1,0.8000,0.3750,0,0,90.0*
21,1,0.4250,0.7500,0,0,90.0*
1,1,0.3750,0.1875,0.2125*
1,1,0.3750,0.1875,-0.2125*
1,1,0.3750,-0.1875,-0.2125*
1,1,0.3750,-0.1875,0.2125*
%
%ADD30ROUNDEDRECTD30*%
%ADD31R,2.6500X7.3000*%
%ADD32O,1.8000X0.3000*%
%ADD33O,0.3000X1.8000*%
G04:AMPARAMS|DCode=34|XSize=1.38mm|YSize=1.68mm|CornerRadius=0.345mm|HoleSize=0mm|Usage=FLASHONLY|Rotation=90.000|XOffset=0mm|YOffset=0mm|HoleType=Round|Shape=RoundedRectangle|*
%AMROUNDEDRECTD34*
21,1,1.3800,0.9900,0,0,90.0*
21,1,0.6900,1.6800,0,0,90.0*
1,1,0.6900,0.4950,0.3450*
1,1,0.6900,0.4950,-0.3450*
1,1,0.6900,-0.4950,-0.3450*
1,1,0.6900,-0.4950,0.3450*
%
%ADD34ROUNDEDRECTD34*%
G04:AMPARAMS|DCode=35|XSize=1.25mm|YSize=1.1mm|CornerRadius=0.275mm|HoleSize=0mm|Usage=FLASHONLY|Rotation=0.000|XOffset=0mm|YOffset=0mm|HoleType=Round|Shape=RoundedRectangle|*
%AMROUNDEDRECTD35*
21,1,1.2500,0.5500,0,0,0.0*
21,1,0.7000,1.1000,0,0,0.0*
1,1,0.5500,0.3500,-0.2750*
1,1,0.5500,-0.3500,-0.2750*
1,1,0.5500,-0.3500,0.2750*
1,1,0.5500,0.3500,0.2750*
%
%ADD35ROUNDEDRECTD35*%
G04:AMPARAMS|DCode=36|XSize=2mm|YSize=2mm|CornerRadius=0.5mm|HoleSize=0mm|Usage=FLASHONLY|Rotation=270.000|XOffset=0mm|YOffset=0mm|HoleType=Round|Shape=RoundedRectangle|*
%AMROUNDEDRECTD36*
21,1,2.0000,1.0000,0,0,270.0*
21,1,1.0000,2.0000,0,0,270.0*
1,1,1.0000,-0.5000,-0.5000*
1,1,1.0000,-0.5000,0.5000*
1,1,1.0000,0.5000,0.5000*
1,1,1.0000,0.5000,-0.5000*
%
%ADD36ROUNDEDRECTD36*%
G04:AMPARAMS|DCode=37|XSize=2.1mm|YSize=2.1mm|CornerRadius=0.525mm|HoleSize=0mm|Usage=FLASHONLY|Rotation=90.000|XOffset=0mm|YOffset=0mm|HoleType=Round|Shape=RoundedRectangle|*
%AMROUNDEDRECTD37*
21,1,2.1000,1.0500,0,0,90.0*
21,1,1.0500,2.1000,0,0,90.0*
1,1,1.0500,0.5250,0.5250*
1,1,1.0500,0.5250,-0.5250*
1,1,1.0500,-0.5250,-0.5250*
1,1,1.0500,-0.5250,0.5250*
%
%ADD37ROUNDEDRECTD37*%
G04:AMPARAMS|DCode=38|XSize=2mm|YSize=2mm|CornerRadius=0.5mm|HoleSize=0mm|Usage=FLASHONLY|Rotation=0.000|XOffset=0mm|YOffset=0mm|HoleType=Round|Shape=RoundedRectangle|*
%AMROUNDEDRECTD38*
21,1,2.0000,1.0000,0,0,0.0*
21,1,1.0000,2.0000,0,0,0.0*
1,1,1.0000,0.5000,-0.5000*
1,1,1.0000,-0.5000,-0.5000*
1,1,1.0000,-0.5000,0.5000*
1,1,1.0000,0.5000,0.5000*
%
%ADD38ROUNDEDRECTD38*%
G04:AMPARAMS|DCode=39|XSize=1.38mm|YSize=1.68mm|CornerRadius=0.345mm|HoleSize=0mm|Usage=FLASHONLY|Rotation=0.000|XOffset=0mm|YOffset=0mm|HoleType=Round|Shape=RoundedRectangle|*
%AMROUNDEDRECTD39*
21,1,1.3800,0.9900,0,0,0.0*
21,1,0.6900,1.6800,0,0,0.0*
1,1,0.6900,0.3450,-0.4950*
1,1,0.6900,-0.3450,-0.4950*
1,1,0.6900,-0.3450,0.4950*
1,1,0.6900,0.3450,0.4950*
%
%ADD39ROUNDEDRECTD39*%
G04:AMPARAMS|DCode=40|XSize=0.96mm|YSize=1.02mm|CornerRadius=0.24mm|HoleSize=0mm|Usage=FLASHONLY|Rotation=180.000|XOffset=0mm|YOffset=0mm|HoleType=Round|Shape=RoundedRectangle|*
%AMROUNDEDRECTD40*
21,1,0.9600,0.5400,0,0,180.0*
21,1,0.4800,1.0200,0,0,180.0*
1,1,0.4800,-0.2400,0.2700*
1,1,0.4800,0.2400,0.2700*
1,1,0.4800,0.2400,-0.2700*
1,1,0.4800,-0.2400,-0.2700*
%
%ADD40ROUNDEDRECTD40*%
%ADD41R,1.5000X0.8000*%
G04:AMPARAMS|DCode=42|XSize=1.6mm|YSize=1.5mm|CornerRadius=0.375mm|HoleSize=0mm|Usage=FLASHONLY|Rotation=270.000|XOffset=0mm|YOffset=0mm|HoleType=Round|Shape=RoundedRectangle|*
%AMROUNDEDRECTD42*
21,1,1.6000,0.7500,0,0,270.0*
21,1,0.8500,1.5000,0,0,270.0*
1,1,0.7500,-0.3750,-0.4250*
1,1,0.7500,-0.3750,0.4250*
1,1,0.7500,0.3750,0.4250*
1,1,0.7500,0.3750,-0.4250*
%
%ADD42ROUNDEDRECTD42*%
%ADD43R,1.6000X1.7000*%
G04:AMPARAMS|DCode=44|XSize=1.7mm|YSize=1.6mm|CornerRadius=0.4mm|HoleSize=0mm|Usage=FLASHONLY|Rotation=270.000|XOffset=0mm|YOffset=0mm|HoleType=Round|Shape=RoundedRectangle|*
%AMROUNDEDRECTD44*
21,1,1.7000,0.8000,0,0,270.0*
21,1,0.9000,1.6000,0,0,270.0*
1,1,0.8000,-0.4000,-0.4500*
1,1,0.8000,-0.4000,0.4500*
1,1,0.8000,0.4000,0.4500*
1,1,0.8000,0.4000,-0.4500*
%
%ADD44ROUNDEDRECTD44*%
%ADD45R,0.9906X0.6858*%
G04:AMPARAMS|DCode=46|XSize=0.9906mm|YSize=0.6858mm|CornerRadius=0.1714mm|HoleSize=0mm|Usage=FLASHONLY|Rotation=0.000|XOffset=0mm|YOffset=0mm|HoleType=Round|Shape=RoundedRectangle|*
%AMROUNDEDRECTD46*
21,1,0.9906,0.3429,0,0,0.0*
21,1,0.6477,0.6858,0,0,0.0*
1,1,0.3429,0.3239,-0.1714*
1,1,0.3429,-0.3239,-0.1714*
1,1,0.3429,-0.3239,0.1714*
1,1,0.3429,0.3239,0.1714*
%
%ADD46ROUNDEDRECTD46*%
%ADD47R,2.2500X0.5000*%
%ADD48R,1.7000X2.5400*%
G04:AMPARAMS|DCode=49|XSize=1.7mm|YSize=2.54mm|CornerRadius=0.425mm|HoleSize=0mm|Usage=FLASHONLY|Rotation=90.000|XOffset=0mm|YOffset=0mm|HoleType=Round|Shape=RoundedRectangle|*
%AMROUNDEDRECTD49*
21,1,1.7000,1.6900,0,0,90.0*
21,1,0.8500,2.5400,0,0,90.0*
1,1,0.8500,0.8450,0.4250*
1,1,0.8500,0.8450,-0.4250*
1,1,0.8500,-0.8450,-0.4250*
1,1,0.8500,-0.8450,0.4250*
%
%ADD49ROUNDEDRECTD49*%
%ADD50R,2.5400X2.0320*%
G04:AMPARAMS|DCode=51|XSize=2.032mm|YSize=2.54mm|CornerRadius=0.6096mm|HoleSize=0mm|Usage=FLASHONLY|Rotation=270.000|XOffset=0mm|YOffset=0mm|HoleType=Round|Shape=RoundedRectangle|*
%AMROUNDEDRECTD51*
21,1,2.0320,1.3208,0,0,270.0*
21,1,0.8128,2.5400,0,0,270.0*
1,1,1.2192,-0.6604,-0.4064*
1,1,1.2192,-0.6604,0.4064*
1,1,1.2192,0.6604,0.4064*
1,1,1.2192,0.6604,-0.4064*
%
%ADD51ROUNDEDRECTD51*%
%ADD52O,0.6000X2.2000*%
%ADD53O,2.5000X1.0000*%
G04:AMPARAMS|DCode=54|XSize=2.1mm|YSize=2.1mm|CornerRadius=0.525mm|HoleSize=0mm|Usage=FLASHONLY|Rotation=0.000|XOffset=0mm|YOffset=0mm|HoleType=Round|Shape=RoundedRectangle|*
%AMROUNDEDRECTD54*
21,1,2.1000,1.0500,0,0,0.0*
21,1,1.0500,2.1000,0,0,0.0*
1,1,1.0500,0.5250,-0.5250*
1,1,1.0500,-0.5250,-0.5250*
1,1,1.0500,-0.5250,0.5250*
1,1,1.0500,0.5250,0.5250*
%
%ADD54ROUNDEDRECTD54*%
%ADD55C,0.2000*%
%ADD56C,0.5000*%
%ADD57C,0.7000*%
%ADD58C,0.3000*%
%ADD59C,0.2500*%
%ADD60C,1.3000*%
%ADD61C,1.5000*%
%ADD62C,1.0000*%
%ADD63C,0.6000*%
%ADD64C,2.0000*%
%ADD65C,0.9000*%
%ADD66C,1.2000*%
%ADD67C,2.5000*%
%ADD68C,2.2000*%
%ADD69R,2.0000X2.0000*%
%ADD70R,2.0000X2.0000*%
%ADD71C,1.5000*%
%ADD72R,1.3500X1.3500*%
%ADD73C,1.3500*%
%ADD74C,2.0000*%
%ADD75C,1.3000*%
G04:AMPARAMS|DCode=76|XSize=1.6mm|YSize=1.5mm|CornerRadius=0.375mm|HoleSize=0mm|Usage=FLASHONLY|Rotation=180.000|XOffset=0mm|YOffset=0mm|HoleType=Round|Shape=RoundedRectangle|*
%AMROUNDEDRECTD76*
21,1,1.6000,0.7500,0,0,180.0*
21,1,0.8500,1.5000,0,0,180.0*
1,1,0.7500,-0.4250,0.3750*
1,1,0.7500,0.4250,0.3750*
1,1,0.7500,0.4250,-0.3750*
1,1,0.7500,-0.4250,-0.3750*
%
%ADD76ROUNDEDRECTD76*%
%ADD77O,1.6000X1.5000*%
%ADD78C,4.5000*%
%ADD79C,5.5000*%
G36*
X483150Y282869D02*
X484005D01*
X485825Y283231D01*
X487368Y284262D01*
X488399Y285805D01*
X488618Y286904D01*
X489913Y286904D01*
X490167Y285625D01*
X491300Y283930D01*
X492947Y282829D01*
X493084Y282055D01*
X493041Y281493D01*
X491534Y280487D01*
X490442Y278853D01*
X490058Y276925D01*
Y275795D01*
X497795D01*
Y273255D01*
X490058D01*
Y272125D01*
X490412Y270348D01*
X490288Y269911D01*
X489843Y269078D01*
X484077D01*
X483992Y269507D01*
X482798Y271293D01*
X481012Y272487D01*
X478905Y272906D01*
X473505D01*
X471398Y272487D01*
X469612Y271293D01*
X468902Y270231D01*
X467469Y270373D01*
X466988Y271535D01*
X465706Y273206D01*
X465664Y273838D01*
X473659Y281833D01*
X473752Y281973D01*
X473773Y281987D01*
X473803Y282031D01*
X473882Y282096D01*
X473975Y282209D01*
X474095Y282434D01*
X474194Y282554D01*
X474216Y282595D01*
X474245Y282693D01*
X474436Y282979D01*
X474466Y283128D01*
X474538Y283262D01*
X474566Y283551D01*
X474566Y283552D01*
X474571Y283604D01*
X474610Y283698D01*
X474639Y283842D01*
X474639Y283998D01*
X474669Y284150D01*
X474934Y284329D01*
X476392Y284262D01*
X477935Y283231D01*
X479755Y282869D01*
X480610D01*
Y290000D01*
X483150D01*
Y282869D01*
D02*
G37*
G36*
X228250Y295838D02*
X128730D01*
X128534Y295988D01*
X126588Y296794D01*
X124500Y297069D01*
X122412Y296794D01*
X120465Y295988D01*
X118794Y294706D01*
X117937Y293588D01*
X109500D01*
X107744Y293239D01*
X106256Y292244D01*
X97149Y283138D01*
X65320D01*
Y286662D01*
X89750D01*
X91506Y287011D01*
X92994Y288006D01*
X105400Y300412D01*
X211379D01*
X212044Y299544D01*
X213715Y298262D01*
X215662Y297456D01*
X217750Y297181D01*
X219838Y297456D01*
X221784Y298262D01*
X223456Y299544D01*
X224738Y301215D01*
X225544Y303162D01*
X225819Y305250D01*
X225544Y307339D01*
X224738Y309284D01*
X223456Y310956D01*
X221784Y312238D01*
X219838Y313044D01*
X217750Y313319D01*
X215662Y313044D01*
X213715Y312238D01*
X212044Y310956D01*
X210995Y309588D01*
X103500D01*
X101744Y309239D01*
X100256Y308244D01*
X87850Y295838D01*
X65320D01*
Y308265D01*
X66032Y308741D01*
X66590Y308932D01*
X68500Y308681D01*
X70588Y308956D01*
X72534Y309762D01*
X72967Y310094D01*
X85900D01*
X87597Y310317D01*
X89178Y310972D01*
X90536Y312014D01*
X101216Y322694D01*
X192403D01*
X192966Y322262D01*
X194912Y321456D01*
X197000Y321181D01*
X199088Y321456D01*
X201035Y322262D01*
X201728Y322794D01*
X228250D01*
Y295838D01*
D02*
G37*
G36*
Y283138D02*
X162300D01*
X160544Y282789D01*
X159056Y281794D01*
X148350Y271088D01*
X119063D01*
X118206Y272206D01*
X116535Y273488D01*
X114588Y274294D01*
X112500Y274569D01*
X110412Y274294D01*
X108465Y273488D01*
X106794Y272206D01*
X105512Y270534D01*
X105472Y270438D01*
X65320D01*
Y273962D01*
X99050D01*
X100806Y274311D01*
X102294Y275306D01*
X111400Y284412D01*
X117937D01*
X118794Y283294D01*
X120465Y282012D01*
X122412Y281206D01*
X124500Y280931D01*
X126588Y281206D01*
X128534Y282012D01*
X130206Y283294D01*
X131488Y284965D01*
X132191Y286662D01*
X228250D01*
Y283138D01*
D02*
G37*
G36*
X191210Y188790D02*
X190585Y187619D01*
X190245Y187687D01*
X190045D01*
Y182750D01*
X195262D01*
X194898Y184578D01*
X193806Y186212D01*
X193779Y186230D01*
X194164Y187500D01*
X227500D01*
X240000Y175000D01*
X250000Y165000D01*
Y160000D01*
Y117500D01*
X267500Y100000D01*
Y45000D01*
Y40000D01*
X267901Y34111D01*
X266020Y32230D01*
X264915Y30576D01*
X264527Y28625D01*
Y27425D01*
X263257Y27039D01*
X262619Y27994D01*
X261125Y28992D01*
Y18000D01*
X256125D01*
Y28992D01*
X254631Y27994D01*
X253889Y26883D01*
X252361D01*
X251619Y27994D01*
X250125Y28992D01*
Y18000D01*
X247625D01*
Y15500D01*
X241977D01*
Y12000D01*
X242309Y10329D01*
X241516Y9059D01*
X129750D01*
Y11327D01*
X131020Y12369D01*
X131500Y12273D01*
Y19130D01*
Y25986D01*
X131020Y25891D01*
X130919Y25900D01*
X130084Y27246D01*
X130218Y27586D01*
X130645Y27724D01*
X131625Y27529D01*
X136375D01*
X138180Y27888D01*
X138721Y28250D01*
X142000D01*
X142500Y28750D01*
Y37250D01*
X145250Y40000D01*
X147702D01*
X148141Y39500D01*
Y37000D01*
X161750D01*
X175359D01*
Y39500D01*
X175798Y40000D01*
X190325D01*
X190718Y39699D01*
X192141Y39109D01*
X200000Y31250D01*
X243750D01*
X244150Y31650D01*
X245000D01*
X245995Y31848D01*
X246838Y32412D01*
X247402Y33255D01*
X247600Y34250D01*
Y82250D01*
X247402Y83245D01*
X246838Y84088D01*
X245995Y84652D01*
X245000Y84850D01*
X240150D01*
X225000Y100000D01*
Y162500D01*
X223750Y163750D01*
Y168750D01*
X223418Y169082D01*
X223306Y169646D01*
X222090Y171465D01*
X220271Y172681D01*
X218125Y173108D01*
X206125D01*
X203979Y172681D01*
X202160Y171465D01*
X200944Y169646D01*
X200517Y167500D01*
X200246D01*
X200000Y167549D01*
X195766D01*
X195520Y167500D01*
X182500D01*
X177549Y172451D01*
Y177249D01*
X177500Y177495D01*
Y187500D01*
X182500Y192500D01*
X187500Y192500D01*
X191210Y188790D01*
D02*
G37*
G36*
X623792Y216941D02*
Y212140D01*
X622522Y211304D01*
X621338Y211794D01*
X619250Y212069D01*
X617162Y211794D01*
X615215Y210988D01*
X613544Y209706D01*
X612262Y208034D01*
X611456Y206088D01*
X611181Y204000D01*
X611456Y201912D01*
X612262Y199965D01*
X613544Y198294D01*
X613874Y198041D01*
X612927Y196625D01*
X612919Y196583D01*
X611284D01*
X611203Y196995D01*
X610070Y198690D01*
X608375Y199823D01*
X606375Y200220D01*
X601625D01*
X599625Y199823D01*
X597930Y198690D01*
X597514Y198067D01*
X595986D01*
X595570Y198690D01*
X593875Y199823D01*
X592666Y200063D01*
X592248Y201441D01*
X594662Y203856D01*
X595546Y205179D01*
X595857Y206740D01*
Y213781D01*
X595857Y213781D01*
X595546Y215342D01*
X594662Y216665D01*
X584587Y226740D01*
X584819Y228500D01*
X584544Y230588D01*
X583738Y232535D01*
X582456Y234206D01*
X580784Y235488D01*
X578838Y236294D01*
X576750Y236569D01*
X574662Y236294D01*
X572715Y235488D01*
X571044Y234206D01*
X569762Y232535D01*
X568956Y230588D01*
X568681Y228500D01*
X568956Y226412D01*
X569762Y224466D01*
X571044Y222794D01*
X572715Y221512D01*
X574662Y220706D01*
X576750Y220431D01*
X578838Y220706D01*
X579013Y220778D01*
X587700Y212092D01*
Y208429D01*
X585110Y205839D01*
X583010D01*
X581450Y205528D01*
X580126Y204644D01*
X580126Y204644D01*
X577616Y202134D01*
X577389Y201794D01*
X576125Y201670D01*
X572161Y205634D01*
X570838Y206518D01*
X569277Y206828D01*
X569277Y206828D01*
X540723D01*
X540723Y206828D01*
X539162Y206518D01*
X537839Y205634D01*
X537839Y205634D01*
X533023Y200818D01*
X532244Y200894D01*
X530840Y201833D01*
X530761Y202500D01*
X530840Y203167D01*
X532244Y204106D01*
X533239Y205594D01*
X533588Y207350D01*
Y210350D01*
X533239Y212106D01*
X532244Y213594D01*
X530840Y214533D01*
X530761Y215200D01*
X530840Y215867D01*
X532244Y216806D01*
X533239Y218294D01*
X533588Y220050D01*
Y223050D01*
X533239Y224806D01*
X532244Y226294D01*
X530756Y227289D01*
X529000Y227638D01*
X525873D01*
X525833Y227947D01*
X525178Y229528D01*
X524136Y230886D01*
X523686Y231336D01*
Y231782D01*
X524083Y232375D01*
X524337Y233654D01*
X525632Y233654D01*
X525851Y232555D01*
X526882Y231012D01*
X528425Y229981D01*
X530245Y229619D01*
X531100D01*
Y236750D01*
X533640D01*
Y229619D01*
X534495D01*
X536315Y229981D01*
X536958Y229786D01*
X537132Y229366D01*
X537500Y228886D01*
Y212000D01*
X566500D01*
Y233982D01*
X570439Y237922D01*
X602811D01*
X623792Y216941D01*
D02*
G37*
G36*
X736431Y410967D02*
Y340000D01*
Y270000D01*
Y200005D01*
X735161Y198962D01*
X734250Y199144D01*
X732020D01*
Y191000D01*
X729480D01*
Y199144D01*
X727250D01*
X727227Y199139D01*
X726314Y200252D01*
X726794Y201412D01*
X727069Y203500D01*
X726794Y205588D01*
X725988Y207535D01*
X724706Y209206D01*
X723035Y210488D01*
X721088Y211294D01*
X719000Y211569D01*
X716912Y211294D01*
X714966Y210488D01*
X713294Y209206D01*
X712012Y207535D01*
X711206Y205588D01*
X710931Y203500D01*
X711206Y201412D01*
X711474Y200763D01*
X711004Y200016D01*
X710576Y199613D01*
X703750D01*
X701507Y199166D01*
X700224Y198310D01*
X698690Y198320D01*
X696995Y199453D01*
X694995Y199850D01*
X690745D01*
X688745Y199453D01*
X687050Y198320D01*
X685917Y196625D01*
X685897Y196525D01*
X684603D01*
X684583Y196625D01*
X683450Y198320D01*
X681755Y199453D01*
X679755Y199850D01*
X675505D01*
X673505Y199453D01*
X671810Y198320D01*
X670677Y196625D01*
X670280Y194625D01*
Y189875D01*
X670677Y187875D01*
X671247Y187023D01*
X670291Y186384D01*
X670291Y186384D01*
X666996Y183089D01*
X666112Y181766D01*
X665802Y180205D01*
X665802Y180205D01*
Y179683D01*
X658759Y172640D01*
X657585Y173126D01*
Y178265D01*
X657188Y180265D01*
X656055Y181960D01*
X654360Y183093D01*
X652360Y183490D01*
X651045D01*
Y173750D01*
X648505D01*
Y183490D01*
X647190D01*
X645190Y183093D01*
X644654Y182735D01*
X643512Y182163D01*
X643139Y182413D01*
X642791Y182698D01*
X642646Y182742D01*
X642520Y182826D01*
X642079Y182914D01*
X641649Y183044D01*
X641498Y183029D01*
X641349Y183059D01*
X639191D01*
X639043Y183029D01*
X638891Y183044D01*
X638461Y182914D01*
X638021Y182826D01*
X637895Y182742D01*
X637749Y182698D01*
X637402Y182413D01*
X637279Y182330D01*
X635708Y183380D01*
X635826Y184406D01*
X635919Y184650D01*
X637245D01*
X639245Y185047D01*
X640812Y186095D01*
X642005Y185297D01*
X644005Y184900D01*
X648255D01*
X650255Y185297D01*
X651950Y186430D01*
X653083Y188125D01*
X653103Y188225D01*
X654397D01*
X654417Y188125D01*
X655550Y186430D01*
X657245Y185297D01*
X659245Y184900D01*
X663495D01*
X665495Y185297D01*
X667190Y186430D01*
X668323Y188125D01*
X668720Y190125D01*
Y194875D01*
X668323Y196875D01*
X667190Y198570D01*
X665495Y199703D01*
X665448Y199712D01*
Y225025D01*
X665488Y225056D01*
X666770Y226727D01*
X667576Y228673D01*
X667851Y230761D01*
X667576Y232850D01*
X666770Y234796D01*
X666053Y235730D01*
X666680Y237000D01*
X687750D01*
X694187Y230562D01*
X695084Y229604D01*
X694967Y228917D01*
X694652Y228207D01*
X692915Y227488D01*
X691244Y226206D01*
X689962Y224534D01*
X689156Y222588D01*
X688881Y220500D01*
X689156Y218412D01*
X689962Y216465D01*
X691244Y214794D01*
X692915Y213512D01*
X694862Y212706D01*
X696950Y212431D01*
X711950D01*
X714038Y212706D01*
X715984Y213512D01*
X717656Y214794D01*
X718847Y216347D01*
X722250Y219750D01*
X722250Y242875D01*
Y335125D01*
X719750Y337625D01*
X689875D01*
X687375Y335125D01*
Y332540D01*
X677520D01*
Y320000D01*
Y307460D01*
X687375D01*
Y298000D01*
X663250D01*
Y272000D01*
X687375D01*
Y263000D01*
X663250D01*
Y239127D01*
X662194Y238421D01*
X661871Y238555D01*
X659782Y238830D01*
X657694Y238555D01*
X655748Y237749D01*
X654077Y236467D01*
X652794Y234796D01*
X651988Y232850D01*
X651713Y230761D01*
X651988Y228673D01*
X652794Y226727D01*
X654077Y225056D01*
X655748Y223773D01*
X657292Y223134D01*
Y211857D01*
X656022Y211231D01*
X655034Y211988D01*
X653088Y212794D01*
X651000Y213069D01*
X648912Y212794D01*
X646965Y211988D01*
X645994Y211243D01*
X644724Y211869D01*
Y241486D01*
X656494Y253256D01*
X657489Y254744D01*
X657838Y256500D01*
Y272850D01*
X658244Y273256D01*
X659239Y274744D01*
X659588Y276500D01*
Y297250D01*
X659239Y299006D01*
X658244Y300494D01*
X648838Y309900D01*
Y316261D01*
X648489Y318016D01*
X647494Y319505D01*
X639005Y327994D01*
X637517Y328989D01*
X635761Y329338D01*
X631423D01*
X630130Y330630D01*
X629377Y331134D01*
X625807Y334704D01*
X626215Y335907D01*
X626588Y335956D01*
X628535Y336762D01*
X630206Y338044D01*
X631488Y339715D01*
X632294Y341662D01*
X632569Y343750D01*
X632294Y345838D01*
X631488Y347785D01*
X630270Y349372D01*
X630373Y349948D01*
X630608Y350642D01*
X632719D01*
X632794Y350544D01*
X634465Y349262D01*
X636412Y348456D01*
X638500Y348181D01*
X640588Y348456D01*
X642534Y349262D01*
X644206Y350544D01*
X645255Y351912D01*
X649500D01*
X651256Y352261D01*
X652744Y353256D01*
X656900Y357412D01*
X669250D01*
X670309Y357622D01*
X670934Y356452D01*
X651366Y336884D01*
X650482Y335561D01*
X650296Y334625D01*
X649966Y334488D01*
X648294Y333206D01*
X647012Y331535D01*
X646206Y329588D01*
X645931Y327500D01*
X646206Y325412D01*
X647012Y323465D01*
X648294Y321794D01*
X649966Y320512D01*
X651912Y319706D01*
X654000Y319431D01*
X656088Y319706D01*
X658035Y320512D01*
X659706Y321794D01*
X660988Y323465D01*
X661794Y325412D01*
X662069Y327500D01*
X661794Y329588D01*
X660988Y331535D01*
X659706Y333206D01*
X659676Y333658D01*
X686384Y360366D01*
X687268Y361689D01*
X687578Y363250D01*
X687578Y363250D01*
Y374824D01*
X688726Y375367D01*
X690764Y373695D01*
X695194Y371327D01*
X700001Y369869D01*
X705000Y369377D01*
X709999Y369869D01*
X714806Y371327D01*
X719236Y373695D01*
X723119Y376881D01*
X726305Y380764D01*
X728673Y385194D01*
X730131Y390001D01*
X730623Y395000D01*
X730131Y399999D01*
X728673Y404806D01*
X727281Y407410D01*
X728014Y408733D01*
X730645Y409080D01*
X733809Y410390D01*
X735292Y411529D01*
X736431Y410967D01*
D02*
G37*
G36*
X122116Y388366D02*
X122116Y388366D01*
X123439Y387482D01*
X125000Y387172D01*
X173990D01*
X174750Y385902D01*
X174206Y384588D01*
X173931Y382500D01*
X174199Y380466D01*
X163811Y370078D01*
X129439D01*
X92760Y406758D01*
X93246Y407931D01*
X100000D01*
X102088Y408206D01*
X102221Y408261D01*
X122116Y388366D01*
D02*
G37*
G36*
X615270Y374301D02*
X620500D01*
X622662Y374731D01*
X624494Y375956D01*
X625260Y377102D01*
X626530Y376716D01*
Y372625D01*
X626927Y370625D01*
X628060Y368930D01*
X629755Y367797D01*
X631755Y367400D01*
X633799D01*
X634398Y366280D01*
X634261Y366075D01*
X633912Y364319D01*
Y362813D01*
X632794Y361956D01*
X632719Y361858D01*
X620823D01*
X609552Y373128D01*
X610038Y374301D01*
X612730D01*
Y379950D01*
X615270D01*
Y374301D01*
D02*
G37*
G36*
X503616Y333116D02*
X503616Y333116D01*
X504939Y332232D01*
X506500Y331922D01*
X506500Y331922D01*
X513811D01*
X518486Y327247D01*
X518000Y326073D01*
X509500D01*
X507281Y325781D01*
X505213Y324925D01*
X503438Y323562D01*
X502075Y321787D01*
X501898Y321358D01*
X494120D01*
X493739Y321589D01*
X493056Y322497D01*
X493039Y322582D01*
X493045Y322628D01*
X493059Y322696D01*
Y332009D01*
X493019Y332206D01*
X493033Y332408D01*
X493021Y332500D01*
X493033Y332592D01*
X493019Y332794D01*
X493059Y332991D01*
Y341878D01*
X494329Y342404D01*
X503616Y333116D01*
D02*
G37*
G36*
X490000Y352500D02*
X490000Y342500D01*
Y332991D01*
X489935Y332500D01*
X490000Y332009D01*
Y322696D01*
X489983Y322639D01*
X489997Y322497D01*
X489080Y321580D01*
X488832Y321746D01*
X487125Y322086D01*
X482875D01*
X481168Y321746D01*
X479721Y320779D01*
X478754Y319332D01*
X478522Y318166D01*
X477227D01*
X477049Y319063D01*
X476018Y320606D01*
X474474Y321637D01*
X472779Y321975D01*
Y315118D01*
Y308262D01*
X473072Y308320D01*
X474168Y307398D01*
X473168Y306617D01*
X472654Y306719D01*
X467904D01*
X466100Y306360D01*
X464570Y305338D01*
X463548Y303808D01*
X463189Y302003D01*
Y297753D01*
X463548Y295949D01*
X464570Y294419D01*
X465215Y293988D01*
X465569Y292205D01*
X466675Y290551D01*
X471395Y285830D01*
X471809Y285554D01*
X471746Y285436D01*
X471709Y285063D01*
X471618Y284699D01*
X471628Y284626D01*
X471624Y284588D01*
X471639Y284439D01*
X471610Y284295D01*
Y284150D01*
X471518Y284037D01*
X471496Y283996D01*
X462205Y274705D01*
X461958Y274807D01*
X460000Y275065D01*
X458042Y274807D01*
X456218Y274051D01*
X454651Y272849D01*
X453449Y271282D01*
X452693Y269458D01*
X452435Y267500D01*
X452593Y266303D01*
X438395Y252105D01*
X437290Y250451D01*
X437126Y249626D01*
X436624Y249124D01*
X434728Y248747D01*
X432862Y247500D01*
X422500D01*
X398442Y247500D01*
X398320Y247794D01*
X397118Y249361D01*
X395551Y250563D01*
X393727Y251319D01*
X393674Y251326D01*
X390000Y255000D01*
Y325000D01*
X400000Y335000D01*
X436250D01*
X437920Y336670D01*
X438212Y336709D01*
X438386Y336552D01*
X438748Y335226D01*
X438481Y334825D01*
X438119Y333005D01*
Y332150D01*
X445250D01*
X452381D01*
Y333005D01*
X452019Y334825D01*
X450988Y336368D01*
X450180Y336908D01*
X449918Y338502D01*
X451750Y340500D01*
Y341844D01*
X451982Y342190D01*
X452341Y343995D01*
Y348245D01*
X452076Y349576D01*
X452500Y350000D01*
X460000Y357500D01*
X462500Y360000D01*
X482500D01*
X490000Y352500D01*
D02*
G37*
G36*
X174279Y178221D02*
X175000Y177249D01*
D01*
X175000Y177249D01*
Y165000D01*
X171638Y161638D01*
X170565Y160565D01*
X170565Y160565D01*
X170355Y160355D01*
X170354Y160354D01*
X170319Y160319D01*
X170278Y160292D01*
X170278Y160292D01*
X170278Y160291D01*
X170136Y160150D01*
X169969Y160038D01*
X169968Y160038D01*
X169817D01*
X169626Y160000D01*
X167500D01*
X166754Y159254D01*
X166753Y159254D01*
X163736Y156236D01*
X163736Y156236D01*
X163246Y155746D01*
X162626Y155126D01*
X162617Y155118D01*
Y155118D01*
X162500Y155000D01*
X162500Y153944D01*
X162500Y153944D01*
Y150492D01*
X162435Y150000D01*
X162500Y149508D01*
Y140492D01*
X162435Y140000D01*
X162500Y139508D01*
X162500Y139508D01*
X162500D01*
Y133013D01*
Y125000D01*
X157500Y120000D01*
X142408D01*
X140829Y121055D01*
X138507Y121517D01*
X131608D01*
X129286Y121055D01*
X127707Y120000D01*
X127500D01*
X125000Y117500D01*
Y110000D01*
Y102500D01*
Y92500D01*
Y74649D01*
X124982Y74510D01*
X124883Y74411D01*
X124151Y73849D01*
X123906Y73530D01*
X123906Y73530D01*
X122949Y72282D01*
X122193Y70458D01*
X122116Y69876D01*
X122085Y69782D01*
X122059Y69586D01*
X121919Y69446D01*
X121864Y69364D01*
X114169Y61669D01*
X114169Y61669D01*
X103337Y50837D01*
X103337Y50837D01*
X102500Y50000D01*
X82500D01*
Y57182D01*
X82500Y57182D01*
X82500Y57182D01*
Y70000D01*
X96233D01*
X96233Y70000D01*
X96233Y70000D01*
X97500D01*
X107500Y80000D01*
Y125000D01*
Y130962D01*
X108770Y132005D01*
X110050Y131750D01*
X112500D01*
Y141307D01*
X115000D01*
Y143807D01*
X126057D01*
Y144757D01*
X125592Y147095D01*
X124269Y149076D01*
X122287Y150400D01*
X120126Y150830D01*
X119568Y151787D01*
X119486Y151986D01*
X120000Y152500D01*
Y162008D01*
X120098Y162500D01*
Y162589D01*
X122561Y164831D01*
X124240Y165953D01*
X125555Y167921D01*
X126017Y170243D01*
X127194Y170614D01*
X127287Y170601D01*
X128262Y169142D01*
X129805Y168111D01*
X131500Y167773D01*
Y174630D01*
X136500D01*
Y167773D01*
X138195Y168111D01*
X139738Y169142D01*
X140705Y170588D01*
X141375Y170659D01*
X142045Y170588D01*
X143012Y169142D01*
X144555Y168111D01*
X146250Y167773D01*
Y174630D01*
X148750D01*
Y177130D01*
X155807D01*
X155519Y178575D01*
X154488Y180118D01*
X152945Y181149D01*
X152540Y181230D01*
X152665Y182500D01*
X162647D01*
X163255Y182379D01*
X168655D01*
X169263Y182500D01*
X170000D01*
X174279Y178221D01*
D02*
G37*
G36*
X678640Y50869D02*
X678806D01*
X679314Y50453D01*
X679783Y49824D01*
X679834Y49641D01*
X679377Y45000D01*
X679869Y40001D01*
X681327Y35194D01*
X683695Y30764D01*
X685755Y28255D01*
X678378Y20877D01*
X677110Y20961D01*
X677089Y20989D01*
X674895Y22672D01*
X672341Y23730D01*
X669600Y24091D01*
X668600D01*
X668338Y24056D01*
X667776Y25195D01*
X668384Y25802D01*
X668384Y25803D01*
X669268Y27126D01*
X669578Y28686D01*
Y37000D01*
X669578Y37000D01*
X669268Y38561D01*
X668384Y39884D01*
X662578Y45689D01*
Y49085D01*
X662578Y49085D01*
X662570Y49130D01*
X663612Y50400D01*
X664255D01*
X666255Y50797D01*
X667950Y51930D01*
X669083Y53625D01*
X669337Y54904D01*
X670632Y54904D01*
X670851Y53805D01*
X671882Y52262D01*
X673425Y51231D01*
X675245Y50869D01*
X676100D01*
Y58000D01*
X678640D01*
Y50869D01*
D02*
G37*
G36*
X457270Y122999D02*
X458375D01*
X460195Y123361D01*
X461738Y124392D01*
X461940Y124694D01*
X463210Y124308D01*
Y123960D01*
X469980D01*
Y129750D01*
X472520D01*
Y123960D01*
X479290D01*
Y123960D01*
X480498Y123810D01*
X480511Y123744D01*
X481506Y122256D01*
X482008Y121754D01*
X481639Y120538D01*
X480655Y120342D01*
X478674Y119018D01*
X477350Y117037D01*
X476885Y114700D01*
Y111020D01*
X486442D01*
Y108480D01*
X476885D01*
Y104800D01*
X477350Y102463D01*
X478674Y100482D01*
X480655Y99158D01*
X482993Y98693D01*
X484793D01*
X485512Y97423D01*
X485259Y97000D01*
X482000D01*
Y84500D01*
X489073D01*
X489559Y83327D01*
X487616Y81384D01*
X486732Y80061D01*
X486422Y78500D01*
X485441Y77855D01*
X484820Y77732D01*
X483291Y76709D01*
X482268Y75180D01*
X481909Y73375D01*
Y70125D01*
X482268Y68320D01*
X483291Y66791D01*
X484820Y65768D01*
X485677Y65598D01*
X485807Y64277D01*
X485239Y64042D01*
X483568Y62760D01*
X482286Y61089D01*
X481219Y60765D01*
X480730Y61092D01*
X478392Y61557D01*
X476213D01*
Y50500D01*
Y39443D01*
X478392D01*
X479179Y39599D01*
X479352Y39482D01*
X480030Y38473D01*
X479401Y36955D01*
X479126Y34867D01*
X479401Y32778D01*
X479532Y32462D01*
X478827Y31406D01*
X475505D01*
X473398Y30987D01*
X471612Y29793D01*
X470418Y28007D01*
X469999Y25900D01*
Y21100D01*
X470418Y18993D01*
X471612Y17207D01*
X473398Y16013D01*
X475505Y15594D01*
X480905D01*
X483012Y16013D01*
X483660Y16446D01*
X485052Y15379D01*
X486998Y14573D01*
X489086Y14298D01*
X490319Y14460D01*
X491589Y13457D01*
Y11575D01*
X491793Y10550D01*
X490987Y9569D01*
X434338D01*
X433295Y10839D01*
X433442Y11575D01*
Y12705D01*
X425705D01*
Y13975D01*
X424435D01*
Y21412D01*
X423005D01*
X421077Y21028D01*
X420958Y20949D01*
X419751Y21669D01*
Y24777D01*
X420804Y25476D01*
X421021Y25514D01*
X423005Y25119D01*
X428405D01*
X430512Y25538D01*
X432298Y26732D01*
X433492Y28518D01*
X433572Y28922D01*
X438708D01*
X439438Y27652D01*
X439089Y25900D01*
Y21100D01*
X439508Y18993D01*
X440702Y17207D01*
X442488Y16013D01*
X444595Y15594D01*
X449995D01*
X452102Y16013D01*
X453888Y17207D01*
X455082Y18993D01*
X455250Y19422D01*
X456811Y19732D01*
X458134Y20616D01*
X462156Y24639D01*
X462156Y24639D01*
X463040Y25962D01*
X463082Y26170D01*
X463307Y26264D01*
X464978Y27546D01*
X466260Y29217D01*
X467066Y31163D01*
X467341Y33252D01*
X467066Y35340D01*
X466260Y37286D01*
X464978Y38957D01*
X464746Y39135D01*
X464596Y40851D01*
X465260Y41718D01*
X465353Y41941D01*
X466617Y42066D01*
X467174Y41231D01*
X469155Y39908D01*
X471493Y39443D01*
X473672D01*
Y50500D01*
Y61557D01*
X471493D01*
X469155Y61092D01*
X467174Y59769D01*
X465850Y57787D01*
X465385Y55450D01*
Y51710D01*
X464115Y51279D01*
X463978Y51458D01*
X462307Y52740D01*
X460361Y53546D01*
X458272Y53821D01*
X456184Y53546D01*
X454238Y52740D01*
X453723Y52345D01*
X452584Y52907D01*
Y55450D01*
X452230Y57229D01*
X452805Y58361D01*
X453162Y58556D01*
X454695Y58861D01*
X456238Y59892D01*
X457269Y61435D01*
X457631Y63255D01*
Y65033D01*
X458460Y65960D01*
X465230D01*
Y71750D01*
X466500D01*
Y73020D01*
X474540D01*
Y75000D01*
X475000D01*
Y84500D01*
Y97000D01*
X460285D01*
X460001Y97425D01*
X460024Y98724D01*
X462158Y100150D01*
X463583Y102283D01*
X464084Y104800D01*
Y114700D01*
X463583Y117217D01*
X462158Y119350D01*
X460024Y120776D01*
X457508Y121276D01*
X454286D01*
X453897Y121649D01*
X453866Y121729D01*
X454730Y122992D01*
Y129880D01*
X457270D01*
Y122999D01*
D02*
G37*
G36*
X201583Y49674D02*
X200907Y48661D01*
X200729Y47770D01*
X212125D01*
Y46500D01*
X213395D01*
Y40851D01*
X218125D01*
X219620Y41149D01*
X220890Y40274D01*
Y34309D01*
X201267D01*
X194304Y41272D01*
X193311Y41935D01*
X192260Y42371D01*
X192187Y42427D01*
X191828Y42604D01*
X191496Y42826D01*
X191298Y42865D01*
X191117Y42955D01*
X190718Y42981D01*
X190325Y43059D01*
X175798D01*
X175698Y43039D01*
X175598Y43052D01*
X175117Y42923D01*
X175039Y42908D01*
X174675Y43787D01*
X173312Y45562D01*
X171537Y46925D01*
X169469Y47781D01*
X167250Y48073D01*
X156250D01*
X154031Y47781D01*
X151963Y46925D01*
X150188Y45562D01*
X148825Y43787D01*
X148461Y42908D01*
X148384Y42923D01*
X147902Y43052D01*
X147802Y43039D01*
X147702Y43059D01*
X145250D01*
X144079Y42826D01*
X143087Y42163D01*
X143087Y42163D01*
X141072Y40148D01*
X139738Y39858D01*
X138195Y40889D01*
X136500Y41227D01*
Y34370D01*
X134000D01*
Y31870D01*
X126943D01*
X127231Y30425D01*
X127865Y29475D01*
X127773Y29332D01*
X127494Y28979D01*
X127453Y28833D01*
X127371Y28705D01*
X127237Y28365D01*
X127198Y28146D01*
X127106Y27943D01*
X127093Y27564D01*
X127025Y27190D01*
X127073Y26973D01*
X127065Y26751D01*
X127199Y26395D01*
X127280Y26024D01*
X127407Y25842D01*
X127485Y25633D01*
X127919Y24933D01*
X126797Y23255D01*
X126400Y21255D01*
Y17005D01*
X126797Y15005D01*
X127044Y14637D01*
X127587Y13490D01*
X127337Y13116D01*
X127052Y12769D01*
X127008Y12623D01*
X126924Y12497D01*
X126836Y12057D01*
X126706Y11626D01*
X126721Y11475D01*
X126691Y11327D01*
Y9569D01*
X79784D01*
X79302Y10839D01*
X80950Y12847D01*
X82071Y14944D01*
X97000D01*
X98697Y15167D01*
X100278Y15822D01*
X101636Y16864D01*
X135716Y50944D01*
X200904D01*
X201583Y49674D01*
D02*
G37*
G36*
X357806Y35427D02*
X357558Y34181D01*
X356984Y33943D01*
X355312Y32661D01*
X354030Y30990D01*
X353224Y29044D01*
X352949Y26955D01*
X353224Y24867D01*
X354030Y22921D01*
X355312Y21250D01*
X356984Y19967D01*
X358930Y19161D01*
X361018Y18886D01*
X363092Y19159D01*
X366634Y15618D01*
X366634Y15618D01*
X367957Y14733D01*
X369518Y14423D01*
X369518Y14423D01*
X378251D01*
X378251Y14423D01*
X379812Y14733D01*
X380948Y15493D01*
X381618Y15299D01*
X381701Y15245D01*
X389955D01*
Y12705D01*
X382218D01*
Y11575D01*
X382365Y10839D01*
X381323Y9569D01*
X352628D01*
X352198Y10839D01*
X353255Y12216D01*
X354061Y14162D01*
X354336Y16251D01*
X354061Y18339D01*
X353255Y20285D01*
X351973Y21957D01*
X350345Y23205D01*
Y33559D01*
X351956Y34794D01*
X353238Y36465D01*
X353745Y37691D01*
X355217Y38015D01*
X357806Y35427D01*
D02*
G37*
G36*
X661422Y35311D02*
Y30376D01*
X652013Y20967D01*
X651689Y20989D01*
X649495Y22672D01*
X646941Y23730D01*
X644200Y24091D01*
X643200D01*
X640459Y23730D01*
X637905Y22672D01*
X635711Y20989D01*
X634953Y20000D01*
X627047D01*
X626289Y20989D01*
X624095Y22672D01*
X621541Y23730D01*
X618800Y24091D01*
X617800D01*
X615059Y23730D01*
X612505Y22672D01*
X610311Y20989D01*
X608628Y18795D01*
X607570Y16241D01*
X607209Y13500D01*
X607560Y10839D01*
X607538Y10493D01*
X606920Y9569D01*
X604280D01*
X603662Y10493D01*
X603640Y10839D01*
X603991Y13500D01*
X603630Y16241D01*
X602572Y18795D01*
X600889Y20989D01*
X598695Y22672D01*
X598583Y22718D01*
X598425Y23944D01*
X598490Y24131D01*
X599244Y24428D01*
X599494Y24261D01*
X601250Y23912D01*
X603006Y24261D01*
X604164Y25035D01*
X604674Y24694D01*
X604980Y24634D01*
Y25982D01*
X605489Y26744D01*
X605839Y28500D01*
Y36000D01*
X606661D01*
Y28500D01*
X607011Y26744D01*
X607520Y25982D01*
Y24634D01*
X607826Y24694D01*
X608336Y25035D01*
X609494Y24261D01*
X611250Y23912D01*
X613006Y24261D01*
X614494Y25256D01*
X615489Y26744D01*
X616321Y27520D01*
X622243D01*
X622539Y27578D01*
X622840D01*
X624097Y27828D01*
X624583Y28030D01*
X625038Y28194D01*
X626005Y27547D01*
X628005Y27150D01*
X632255D01*
X634255Y27547D01*
X635950Y28680D01*
X637083Y30375D01*
X637337Y31654D01*
X638632Y31654D01*
X638851Y30555D01*
X639882Y29012D01*
X641425Y27981D01*
X643245Y27619D01*
X644100D01*
Y34750D01*
X645370D01*
Y36020D01*
X652251D01*
Y37125D01*
X652070Y38035D01*
X652896Y38199D01*
X654715Y39415D01*
X654906Y39701D01*
X655070Y39810D01*
X655256Y40088D01*
X656520Y40213D01*
X661422Y35311D01*
D02*
G37*
G36*
X642155Y179018D02*
X642005Y178265D01*
Y169235D01*
X642400Y167251D01*
X643524Y165569D01*
X645000Y164583D01*
Y158503D01*
X634727Y148229D01*
X633953Y147071D01*
X633681Y145706D01*
Y141681D01*
X626000Y134000D01*
X621000D01*
X618919Y131919D01*
X618866Y131884D01*
X618830Y131831D01*
X617000Y130000D01*
X615962D01*
X614708Y130520D01*
X612750Y130777D01*
X610792Y130520D01*
X608968Y129764D01*
X607401Y128562D01*
X606199Y126995D01*
X605443Y125171D01*
X605185Y123213D01*
X605443Y121255D01*
X605756Y120499D01*
X604956Y119113D01*
X604572Y119062D01*
X602747Y118307D01*
X601180Y117105D01*
X599978Y115538D01*
X599223Y113713D01*
X598965Y111756D01*
X599223Y109798D01*
X599978Y107973D01*
X601180Y106406D01*
X602747Y105204D01*
X602950Y105120D01*
X603364Y103574D01*
X602949Y103032D01*
X602193Y101208D01*
X601935Y99250D01*
X602193Y97292D01*
X602949Y95468D01*
X604151Y93901D01*
X604782Y93417D01*
X605151Y92099D01*
X603949Y90532D01*
X603193Y88708D01*
X602935Y86750D01*
X603193Y84792D01*
X603949Y82968D01*
X605151Y81401D01*
X606718Y80199D01*
X608542Y79443D01*
X610500Y79185D01*
X611911Y79371D01*
X613181Y78506D01*
Y51929D01*
X613453Y50563D01*
X614227Y49406D01*
X617156Y46477D01*
X618313Y45703D01*
X619679Y45431D01*
X635000D01*
Y42313D01*
X633730Y41588D01*
X632255Y41881D01*
X631400D01*
Y34750D01*
X630130D01*
Y33480D01*
X623249D01*
Y32375D01*
X623325Y31990D01*
X623500Y30828D01*
X622243Y30578D01*
X616321D01*
X615369Y31360D01*
Y34730D01*
X611250D01*
Y36000D01*
X610329D01*
Y43500D01*
X610018Y45061D01*
X609980Y45118D01*
Y48024D01*
X609604Y48587D01*
X610047Y49250D01*
X610318Y50615D01*
Y67250D01*
X610047Y68616D01*
X609961Y68744D01*
X610094Y69753D01*
X609836Y71711D01*
X609081Y73536D01*
X607878Y75103D01*
X606312Y76305D01*
X604487Y77060D01*
X602529Y77318D01*
X600572Y77060D01*
X598747Y76305D01*
X597180Y75103D01*
X596151Y73761D01*
X595959Y73535D01*
X594575Y73468D01*
X593811Y74054D01*
X591987Y74810D01*
X590029Y75068D01*
X588071Y74810D01*
X586367Y74105D01*
X585432Y74444D01*
X585097Y74608D01*
Y76132D01*
X585127Y76155D01*
X586329Y77722D01*
X587085Y79546D01*
X587343Y81504D01*
X587085Y83462D01*
X586329Y85286D01*
X585127Y86853D01*
X583561Y88055D01*
X581736Y88811D01*
X579778Y89069D01*
X577820Y88811D01*
X575996Y88055D01*
X574429Y86853D01*
X573327Y85416D01*
X573115Y85267D01*
X571746Y85029D01*
X571060Y85555D01*
X569235Y86311D01*
X567278Y86569D01*
X565320Y86311D01*
X563495Y85555D01*
X562866Y85072D01*
X561596Y85699D01*
Y87479D01*
X563773Y89656D01*
X563916Y89870D01*
X571478Y97431D01*
X574043D01*
X575409Y97703D01*
X576567Y98477D01*
X585469Y107379D01*
X585958Y107443D01*
X587782Y108199D01*
X589349Y109401D01*
X590551Y110968D01*
X591307Y112792D01*
X591565Y114750D01*
X591307Y116708D01*
X590551Y118532D01*
X589349Y120099D01*
X587782Y121301D01*
X585958Y122057D01*
X584000Y122315D01*
X582042Y122057D01*
X580218Y121301D01*
X578651Y120099D01*
X577449Y118532D01*
X577014Y117483D01*
X575520Y117028D01*
X575282Y117211D01*
X573458Y117966D01*
X571500Y118224D01*
X569542Y117966D01*
X567718Y117211D01*
X566151Y116008D01*
X565543Y115217D01*
X564089Y115408D01*
X563828Y116038D01*
X562626Y117605D01*
X561059Y118807D01*
X559235Y119562D01*
X557277Y119820D01*
X555319Y119562D01*
X553495Y118807D01*
X551928Y117605D01*
X550726Y116038D01*
X549970Y114213D01*
X549712Y112255D01*
X549970Y110298D01*
X550726Y108473D01*
X551928Y106906D01*
X553495Y105704D01*
X553709Y105616D01*
Y102483D01*
X549727Y98501D01*
X549584Y98287D01*
X546503Y95206D01*
X545729Y94049D01*
X545457Y92683D01*
Y47974D01*
X544261Y47974D01*
X533974D01*
X530610Y44610D01*
Y40137D01*
X529340Y39827D01*
X527526Y40066D01*
X525568Y39808D01*
X525423Y39748D01*
X524310Y40662D01*
X524501Y41625D01*
Y42730D01*
X517620D01*
Y45270D01*
X524501D01*
Y46375D01*
X524139Y48195D01*
X523862Y48611D01*
X524540Y49881D01*
X525750D01*
X527326Y50194D01*
X528663Y51087D01*
X529312Y52060D01*
X530775Y52539D01*
X531218Y52199D01*
X533042Y51443D01*
X535000Y51185D01*
X536958Y51443D01*
X538782Y52199D01*
X540349Y53401D01*
X541551Y54968D01*
X542307Y56792D01*
X542565Y58750D01*
X542307Y60708D01*
X541551Y62532D01*
X540349Y64099D01*
X538782Y65301D01*
X536958Y66057D01*
X535000Y66315D01*
X533742Y66149D01*
X533149Y67352D01*
X537773Y71977D01*
X538547Y73134D01*
X538819Y74500D01*
Y96289D01*
X539276Y96690D01*
X541234Y96948D01*
X543059Y97704D01*
X544625Y98906D01*
X545827Y100473D01*
X546583Y102297D01*
X546841Y104255D01*
X546583Y106213D01*
X545827Y108037D01*
X544625Y109604D01*
X543059Y110806D01*
X541698Y111370D01*
X541145Y112735D01*
X541327Y112973D01*
X542083Y114798D01*
X542341Y116756D01*
X542083Y118714D01*
X541327Y120538D01*
X540125Y122105D01*
X538558Y123307D01*
X536734Y124063D01*
X534776Y124320D01*
X533270Y124122D01*
X532000Y124945D01*
Y129000D01*
X526811Y134189D01*
X512500D01*
X512551Y134153D01*
X512500Y134028D01*
Y136250D01*
X482500D01*
Y150000D01*
X484681Y152181D01*
X487210D01*
Y150020D01*
X495250D01*
X503290D01*
Y152181D01*
X507564D01*
X508929Y152453D01*
X509000Y152500D01*
X532131D01*
Y148270D01*
X536250D01*
Y145730D01*
X532131D01*
Y139500D01*
X532444Y137924D01*
X533337Y136587D01*
X534674Y135694D01*
X536250Y135381D01*
X536911Y135512D01*
X537455Y134326D01*
X537482Y134189D01*
X538366Y132866D01*
X539133Y132099D01*
X538923Y130500D01*
X539181Y128542D01*
X539936Y126718D01*
X541138Y125151D01*
X542705Y123949D01*
X544530Y123193D01*
X546488Y122935D01*
X548446Y123193D01*
X550270Y123949D01*
X551837Y125151D01*
X552153Y125563D01*
X553423Y125563D01*
X553918Y124918D01*
X555484Y123716D01*
X557309Y122960D01*
X559267Y122702D01*
X561225Y122960D01*
X563049Y123716D01*
X564616Y124918D01*
X565818Y126484D01*
X566574Y128309D01*
X566832Y130267D01*
X566639Y131730D01*
X567481Y133000D01*
X599000D01*
X600000Y134000D01*
Y134629D01*
X600982Y135434D01*
X601250Y135381D01*
X602707Y135671D01*
X602911Y135639D01*
X603030Y135562D01*
X603047Y134033D01*
X603000Y134000D01*
X612000D01*
X617116Y139116D01*
Y143701D01*
X617930Y144247D01*
X618273Y144477D01*
X624393Y150597D01*
X625167Y151754D01*
X625439Y153120D01*
Y163465D01*
X626709Y164294D01*
X628140Y164010D01*
X629455D01*
Y173750D01*
X630725D01*
Y175020D01*
X638535D01*
Y178265D01*
X638386Y179018D01*
X639191Y180000D01*
X641349D01*
X642155Y179018D01*
D02*
G37*
G36*
X408420Y174104D02*
X409312Y174282D01*
X411024Y175426D01*
X412294Y175115D01*
Y170350D01*
X412517Y168653D01*
X413044Y167383D01*
X412783Y167043D01*
X411976Y165096D01*
X411702Y163008D01*
X411976Y160919D01*
X412416Y159858D01*
X411567Y158588D01*
X407650D01*
X399038Y167201D01*
Y175567D01*
X400102Y177159D01*
X400387Y178593D01*
X401682D01*
X401931Y177338D01*
X403156Y175506D01*
X404988Y174282D01*
X405880Y174104D01*
Y187500D01*
X408420D01*
Y174104D01*
D02*
G37*
G36*
X201500Y163500D02*
Y139250D01*
X201419Y123919D01*
X192500Y115000D01*
X188491D01*
X188482Y115050D01*
X187459Y116579D01*
X185930Y117602D01*
X184125Y117961D01*
X179375D01*
X177570Y117602D01*
X176201Y118214D01*
X175182Y119740D01*
X173214Y121055D01*
X170893Y121517D01*
X165984D01*
X165000Y122500D01*
Y123424D01*
X165801Y124468D01*
X166557Y126292D01*
X166815Y128250D01*
X166557Y130208D01*
X165801Y132032D01*
X165049Y133013D01*
Y139508D01*
X165016Y139673D01*
X165027Y139841D01*
X165006Y140000D01*
X165027Y140159D01*
X165016Y140327D01*
X165049Y140492D01*
Y149508D01*
X165016Y149673D01*
X165027Y149841D01*
X165006Y150000D01*
X165027Y150159D01*
X165016Y150327D01*
X165049Y150492D01*
Y153944D01*
X165538Y154433D01*
X165538Y154433D01*
X168556Y157451D01*
X169626D01*
X169817Y157489D01*
X169968D01*
X170024Y157500D01*
X170123D01*
X170314Y157538D01*
X170315Y157538D01*
X170465Y157538D01*
X170697Y157634D01*
X170944Y157683D01*
X171112Y157795D01*
X171112Y157795D01*
X171153Y157823D01*
X171384Y157918D01*
X171552Y158030D01*
X171694Y158172D01*
X171734Y158199D01*
X171770Y158235D01*
X171771Y158236D01*
X171771Y158236D01*
X171781Y158242D01*
X171781Y158242D01*
X171782Y158243D01*
X171782Y158243D01*
X171939Y158348D01*
X172080Y158489D01*
X172080Y158489D01*
X172081Y158490D01*
X172121Y158517D01*
X172156Y158552D01*
X172157Y158553D01*
X172367Y158763D01*
X172367Y158763D01*
X172368Y158763D01*
X173440Y159835D01*
X173440Y159835D01*
X173537Y159932D01*
X174710Y159446D01*
Y151250D01*
X194790D01*
Y164290D01*
X195766Y165000D01*
X200000D01*
X201500Y163500D01*
D02*
G37*
G36*
X732020Y115856D02*
X734250D01*
X735161Y116038D01*
X736431Y114995D01*
Y101315D01*
X735161Y100563D01*
X733500Y100894D01*
X731270D01*
Y92750D01*
X728730D01*
Y100894D01*
X726500D01*
X724436Y100483D01*
X722686Y99314D01*
X721517Y97564D01*
X721106Y95500D01*
Y92456D01*
X719836Y91610D01*
X718250Y91819D01*
X717133Y91672D01*
X715863Y92726D01*
Y95500D01*
X715416Y97744D01*
X714146Y99646D01*
X714129Y100160D01*
X715239Y101011D01*
X716922Y103205D01*
X717980Y105759D01*
X718341Y108500D01*
X717980Y111241D01*
X716922Y113795D01*
X715331Y115868D01*
X714895Y117105D01*
X716166Y119007D01*
X716177Y119060D01*
X717000Y119922D01*
X718561Y120232D01*
X719884Y121116D01*
X720586Y121819D01*
X721856Y121293D01*
Y121250D01*
X722267Y119186D01*
X723436Y117436D01*
X725186Y116267D01*
X727250Y115856D01*
X729480D01*
Y124000D01*
X732020D01*
Y115856D01*
D02*
G37*
G36*
X668272Y150369D02*
X668150Y149755D01*
Y145505D01*
X668547Y143505D01*
X669091Y142692D01*
X667995Y141960D01*
X666862Y140265D01*
X666465Y138265D01*
Y135020D01*
X674275D01*
Y132480D01*
X666465D01*
Y129235D01*
X666862Y127235D01*
X667995Y125540D01*
X668931Y124915D01*
X668663Y123567D01*
X668425Y123519D01*
X666882Y122488D01*
X665851Y120945D01*
X665632Y119846D01*
X664337Y119846D01*
X664083Y121125D01*
X662950Y122820D01*
X661749Y123623D01*
X661545Y125014D01*
X661836Y125209D01*
X663071Y127056D01*
X663504Y129235D01*
Y138265D01*
X663071Y140444D01*
X661836Y142292D01*
X659989Y143526D01*
X657810Y143959D01*
X655658D01*
X655173Y145133D01*
X657781Y147741D01*
X658342Y148116D01*
X661577Y151351D01*
X667466D01*
X668272Y150369D01*
D02*
G37*
G36*
X395000Y417500D02*
Y400000D01*
X387500D01*
Y395000D01*
X387163Y394663D01*
X387163Y394663D01*
X387163Y394663D01*
X385000Y392501D01*
X377713Y385213D01*
X377477Y385055D01*
X377199Y385000D01*
X355000D01*
X348396Y378396D01*
X348396Y378396D01*
X348396Y378396D01*
X347500Y377500D01*
Y376233D01*
X347500Y376233D01*
X347500Y376233D01*
X347500Y376233D01*
X347500D01*
Y362500D01*
X347500Y347500D01*
X351898Y343102D01*
X352131Y341796D01*
X351953Y341456D01*
X351111Y340195D01*
X350773Y338500D01*
X357630D01*
Y333500D01*
X350773D01*
X351111Y331805D01*
X352142Y330262D01*
X353685Y329231D01*
X353960Y329176D01*
Y295500D01*
X369750D01*
Y290500D01*
X374750D01*
Y251460D01*
X377500D01*
Y250000D01*
X375000Y247500D01*
X373096D01*
X371749Y248400D01*
X369765Y248795D01*
X360735D01*
X358751Y248400D01*
X357404Y247500D01*
X347801D01*
X347425Y247575D01*
X345146Y249854D01*
Y250995D01*
X344766Y252907D01*
X343683Y254528D01*
X342062Y255611D01*
X340150Y255991D01*
X339009D01*
X335534Y259466D01*
X335534Y259466D01*
X333424Y261576D01*
X333369Y261658D01*
X333229Y261798D01*
X333203Y261994D01*
X333172Y262088D01*
X333057Y262958D01*
X332615Y264024D01*
X332500Y264604D01*
Y318733D01*
X332500Y318733D01*
X332500Y318733D01*
Y320000D01*
X330213Y322287D01*
X330055Y322523D01*
X330000Y322801D01*
Y379159D01*
X330000Y379159D01*
X330000Y379159D01*
Y385000D01*
X337489Y392490D01*
X340013Y392822D01*
X343054Y394081D01*
X345665Y396085D01*
X347669Y398696D01*
X348928Y401737D01*
X349123Y403214D01*
X350393Y403131D01*
Y396720D01*
X350661Y394686D01*
X351445Y392791D01*
X352694Y391164D01*
X354321Y389916D01*
X356216Y389131D01*
X358250Y388863D01*
X358500D01*
Y401970D01*
Y415077D01*
X358250D01*
X356216Y414809D01*
X354321Y414025D01*
X352694Y412776D01*
X351445Y411149D01*
X351270Y410725D01*
X350000Y410978D01*
Y412500D01*
X357500Y420000D01*
X395000D01*
Y417500D01*
D02*
G37*
G36*
X442500Y425000D02*
X412000D01*
X410337Y423337D01*
X410337Y423337D01*
X410337Y423337D01*
X409000Y422000D01*
Y399000D01*
X408000Y398000D01*
X402000D01*
X401000Y399000D01*
Y422000D01*
X399000Y424000D01*
X333000D01*
X331281Y422281D01*
X330013Y422809D01*
X329661Y424575D01*
X328409Y426449D01*
X326535Y427701D01*
X324325Y428141D01*
X319520D01*
Y419240D01*
X318250D01*
Y417970D01*
X306399D01*
Y416115D01*
X306619Y415010D01*
X306093Y414449D01*
X305513Y414058D01*
X303118Y413743D01*
X300685Y412735D01*
X300620Y412685D01*
X299430Y413372D01*
X299607Y414720D01*
Y414970D01*
X286500D01*
X273393D01*
Y414720D01*
X273661Y412686D01*
X274445Y410791D01*
X275694Y409164D01*
X275770Y409106D01*
X275338Y407836D01*
X260884D01*
X260402Y409106D01*
X261096Y410782D01*
X261355Y412750D01*
Y412750D01*
X248750D01*
X236145D01*
Y412750D01*
X236404Y410782D01*
X237164Y408947D01*
X238372Y407372D01*
X238620Y406332D01*
X238305Y405900D01*
X238277Y405841D01*
X238232Y405796D01*
X238102Y405602D01*
X232713Y400213D01*
X232477Y400055D01*
X232199Y400000D01*
X205301D01*
X205023Y400055D01*
X204787Y400213D01*
X197713Y407287D01*
X197555Y407523D01*
X197500Y407801D01*
Y430431D01*
X198650Y430941D01*
X240504D01*
X240756Y429671D01*
X239947Y429336D01*
X238372Y428128D01*
X237164Y426553D01*
X236404Y424718D01*
X236145Y422750D01*
D01*
X248750D01*
X261355D01*
X261096Y424718D01*
X260336Y426553D01*
X259128Y428128D01*
X257553Y429336D01*
X256744Y429671D01*
X256996Y430941D01*
X274220D01*
X274846Y429671D01*
X274445Y429149D01*
X273661Y427254D01*
X273393Y425220D01*
Y424970D01*
X286500D01*
X299607D01*
Y425220D01*
X299340Y427254D01*
X298554Y429149D01*
X298153Y429671D01*
X298780Y430941D01*
X442500D01*
Y425000D01*
D02*
G37*
G36*
X306399Y388390D02*
Y385635D01*
X306839Y383425D01*
X308091Y381551D01*
X309965Y380299D01*
X312175Y379859D01*
X316980D01*
Y388760D01*
X319520D01*
Y379859D01*
X324325D01*
X325671Y380127D01*
X326941Y379159D01*
Y322801D01*
X327000Y322506D01*
X327000Y322204D01*
X327055Y321926D01*
X327171Y321648D01*
X327174Y321631D01*
X327184Y321616D01*
X327321Y321286D01*
X327384Y321134D01*
X327387Y321116D01*
X327397Y321102D01*
X327512Y320824D01*
X327670Y320588D01*
X327883Y320375D01*
X328050Y320124D01*
X329441Y318733D01*
Y264604D01*
X329500Y264308D01*
Y264007D01*
X329615Y263427D01*
X329731Y263149D01*
X329789Y262854D01*
X330077Y262159D01*
X330139Y261688D01*
X330171Y261595D01*
X330196Y261399D01*
X330262Y261207D01*
X330275Y261105D01*
X330307Y261011D01*
X330337Y260958D01*
X330403Y260628D01*
X330515Y260460D01*
X330580Y260269D01*
X330802Y260015D01*
X330826Y259959D01*
X330881Y259877D01*
X330954Y259804D01*
X331066Y259635D01*
X331206Y259495D01*
X331261Y259413D01*
X333289Y257386D01*
X333276Y256969D01*
X332975Y255903D01*
X331457Y254888D01*
X330893Y254795D01*
X330300Y255250D01*
X328354Y256056D01*
X326266Y256331D01*
X324178Y256056D01*
X322231Y255250D01*
X321683Y254830D01*
X320430Y255036D01*
X319820Y255950D01*
X318125Y257083D01*
X318025Y257103D01*
Y258398D01*
X318125Y258417D01*
X319820Y259550D01*
X320953Y261245D01*
X321350Y263245D01*
Y267495D01*
X320953Y269495D01*
X319820Y271190D01*
X319799Y271317D01*
X320488Y272215D01*
X321294Y274162D01*
X321569Y276250D01*
X321294Y278338D01*
X320488Y280285D01*
X319206Y281956D01*
X317535Y283238D01*
X315588Y284044D01*
X313500Y284319D01*
X311412Y284044D01*
X309466Y283238D01*
X307794Y281956D01*
X306512Y280285D01*
X306111Y279317D01*
X304613Y279019D01*
X294393Y289239D01*
X293070Y290123D01*
X291509Y290433D01*
X291509Y290433D01*
X288365D01*
X287544Y291703D01*
X288044Y292912D01*
X288319Y295000D01*
X288044Y297088D01*
X287238Y299035D01*
X285956Y300706D01*
X284284Y301988D01*
X282338Y302794D01*
X280250Y303069D01*
X278162Y302794D01*
X276215Y301988D01*
X275536Y301467D01*
X275043Y301548D01*
X273257Y302742D01*
X271150Y303161D01*
X266350D01*
X264243Y302742D01*
X262457Y301548D01*
X261759Y301479D01*
X256044Y307194D01*
X255033Y307870D01*
X255529Y309066D01*
X256825Y308808D01*
X257955D01*
Y316545D01*
Y324282D01*
X256825D01*
X254897Y323898D01*
X254234Y324963D01*
X256579Y327307D01*
X257332Y328288D01*
X257375Y328280D01*
X262125D01*
X264125Y328677D01*
X265820Y329810D01*
X266953Y331505D01*
X267350Y333505D01*
Y337755D01*
X266953Y339755D01*
X265820Y341450D01*
X264125Y342583D01*
X262846Y342837D01*
X262846Y344132D01*
X263945Y344351D01*
X265488Y345382D01*
X266519Y346925D01*
X266725Y347961D01*
X268103Y348379D01*
X268496Y347986D01*
X268496Y347986D01*
X269819Y347102D01*
X271024Y346862D01*
X271047Y346745D01*
X272180Y345050D01*
X273875Y343917D01*
X273975Y343898D01*
Y342603D01*
X273875Y342583D01*
X272180Y341450D01*
X271047Y339755D01*
X270650Y337755D01*
Y333505D01*
X271047Y331505D01*
X272180Y329810D01*
X273687Y328803D01*
Y324277D01*
X271982Y323138D01*
X270788Y321352D01*
X270369Y319245D01*
Y313845D01*
X270788Y311738D01*
X271982Y309952D01*
X273768Y308758D01*
X275875Y308339D01*
X280675D01*
X282782Y308758D01*
X284568Y309952D01*
X285762Y311738D01*
X286027Y313073D01*
X287288Y313095D01*
X287672Y311168D01*
X288763Y309534D01*
X290397Y308442D01*
X292325Y308058D01*
X293455D01*
Y315795D01*
X294725D01*
Y317065D01*
X302162D01*
Y318495D01*
X301778Y320423D01*
X301010Y321572D01*
X301415Y322380D01*
X301751Y322749D01*
X306196D01*
X306617Y322261D01*
X306928Y321559D01*
X306288Y320602D01*
X305869Y318495D01*
Y313095D01*
X306288Y310988D01*
X307482Y309202D01*
X309268Y308008D01*
X311375Y307589D01*
X316175D01*
X318282Y308008D01*
X320068Y309202D01*
X321262Y310988D01*
X321681Y313095D01*
Y318495D01*
X321262Y320602D01*
X320370Y321936D01*
X320550Y322528D01*
X322221Y323810D01*
X323503Y325482D01*
X324310Y327428D01*
X324585Y329516D01*
X324310Y331604D01*
X323503Y333551D01*
X322221Y335222D01*
X320550Y336504D01*
X318604Y337310D01*
X318113Y337375D01*
Y344813D01*
X319818Y345952D01*
X321012Y347738D01*
X321431Y349845D01*
Y355245D01*
X321012Y357352D01*
X319818Y359138D01*
X318032Y360332D01*
X315925Y360751D01*
X311125D01*
X309018Y360332D01*
X307232Y359138D01*
X306038Y357352D01*
X305619Y355245D01*
Y349845D01*
X306038Y347738D01*
X307232Y345952D01*
X308937Y344813D01*
Y339866D01*
X307667Y338909D01*
X306400Y339161D01*
X301600D01*
X299493Y338742D01*
X297707Y337548D01*
X297647Y337458D01*
X296383Y337334D01*
X294842Y338874D01*
X293354Y339869D01*
X291598Y340218D01*
X285143D01*
X284320Y341450D01*
X282625Y342583D01*
X282525Y342603D01*
Y343898D01*
X282625Y343917D01*
X284320Y345050D01*
X285453Y346745D01*
X285850Y348745D01*
Y349307D01*
X287120Y349432D01*
X287422Y347918D01*
X288513Y346283D01*
X290147Y345192D01*
X292075Y344808D01*
X293205D01*
Y352545D01*
X294475D01*
Y353815D01*
X301912D01*
Y355245D01*
X301528Y357173D01*
X300436Y358806D01*
X298803Y359898D01*
X296875Y360282D01*
X294377D01*
X294125Y361552D01*
X295679Y362196D01*
X297306Y363444D01*
X298554Y365071D01*
X299340Y366966D01*
X299607Y369000D01*
Y369250D01*
X286500D01*
X273393D01*
Y369000D01*
X273661Y366966D01*
X274445Y365071D01*
X275694Y363444D01*
X277321Y362196D01*
X279216Y361410D01*
X281250Y361143D01*
X289898D01*
X290132Y359976D01*
X290109Y359873D01*
X288513Y358806D01*
X287422Y357173D01*
X287038Y355245D01*
Y353533D01*
X285768Y353408D01*
X285453Y354995D01*
X284320Y356690D01*
X282625Y357823D01*
X280625Y358220D01*
X275875D01*
X273875Y357823D01*
X272758Y357076D01*
X271884Y358384D01*
X268634Y361634D01*
X267311Y362518D01*
X265750Y362828D01*
X265750Y362828D01*
X260507D01*
X259881Y364098D01*
X260738Y365215D01*
X261544Y367162D01*
X261819Y369250D01*
Y379250D01*
X261544Y381338D01*
X260738Y383284D01*
X259554Y384827D01*
X261887Y387159D01*
X276349D01*
X276780Y385889D01*
X275694Y385056D01*
X274445Y383429D01*
X273661Y381534D01*
X273393Y379500D01*
Y379250D01*
X286500D01*
X299607D01*
Y379500D01*
X299340Y381534D01*
X298554Y383429D01*
X297306Y385056D01*
X296220Y385889D01*
X296651Y387159D01*
X299478D01*
X299478Y387159D01*
X302220Y387520D01*
X304774Y388578D01*
X305260Y388951D01*
X306399Y388390D01*
D02*
G37*
G36*
X194441Y430431D02*
Y407801D01*
X194500Y407506D01*
X194500Y407204D01*
X194555Y406926D01*
X194671Y406648D01*
X194674Y406631D01*
X194684Y406616D01*
X194821Y406286D01*
X194884Y406134D01*
X194887Y406116D01*
X194897Y406102D01*
X195012Y405824D01*
X195170Y405588D01*
X195383Y405375D01*
X195550Y405124D01*
X202624Y398050D01*
X202875Y397883D01*
X203088Y397670D01*
X203324Y397512D01*
X203602Y397397D01*
X203617Y397387D01*
X203634Y397384D01*
X203848Y397295D01*
X204116Y397184D01*
X204131Y397174D01*
X204148Y397171D01*
X204426Y397055D01*
X204704Y397000D01*
X205006Y397000D01*
X205301Y396941D01*
X232199D01*
X232494Y397000D01*
X232796Y397000D01*
X233074Y397055D01*
X233352Y397171D01*
X233369Y397174D01*
X233384Y397184D01*
X233714Y397321D01*
X233866Y397384D01*
X233883Y397387D01*
X233898Y397397D01*
X234176Y397512D01*
X234412Y397670D01*
X234625Y397883D01*
X234876Y398050D01*
X240265Y403439D01*
X240395Y403633D01*
X240395Y403633D01*
X240441Y403679D01*
X240479Y403736D01*
X240646Y403903D01*
X240775Y404096D01*
X241090Y404528D01*
X241141Y404639D01*
X241224Y404728D01*
X241241Y404772D01*
X241662Y404956D01*
X243750Y404681D01*
X247794D01*
X248280Y403508D01*
X241261Y396489D01*
X239578Y394295D01*
X238520Y391741D01*
X238159Y389000D01*
X238159Y389000D01*
Y385044D01*
X238044Y384956D01*
X236762Y383284D01*
X235956Y381338D01*
X235681Y379250D01*
Y369250D01*
X235956Y367162D01*
X236762Y365215D01*
X237619Y364098D01*
X236993Y362828D01*
X221000D01*
X219439Y362518D01*
X218116Y361634D01*
X218116Y361634D01*
X206061Y349578D01*
X190204D01*
X188956Y351206D01*
X187285Y352488D01*
X185338Y353294D01*
X183250Y353569D01*
X181162Y353294D01*
X179216Y352488D01*
X177544Y351206D01*
X176262Y349534D01*
X175456Y347588D01*
X175181Y345500D01*
X175456Y343412D01*
X176262Y341465D01*
X177544Y339794D01*
X179216Y338512D01*
X181162Y337706D01*
X183250Y337431D01*
X185338Y337706D01*
X187285Y338512D01*
X188956Y339794D01*
X190204Y341422D01*
X207750D01*
X207750Y341422D01*
X209311Y341732D01*
X210634Y342616D01*
X222689Y354672D01*
X251951D01*
X252757Y353690D01*
X252619Y352995D01*
Y352140D01*
X259750D01*
Y349600D01*
X252619D01*
Y348745D01*
X252981Y346925D01*
X254012Y345382D01*
X255555Y344351D01*
X256654Y344132D01*
X256654Y342837D01*
X255375Y342583D01*
X254774Y342181D01*
X253118Y341963D01*
X251537Y341308D01*
X251260Y341095D01*
X249990Y341721D01*
Y348590D01*
X241220D01*
Y342050D01*
X239950D01*
Y340780D01*
X229910D01*
Y336350D01*
X229450D01*
Y335906D01*
X201467D01*
X201035Y336238D01*
X199088Y337044D01*
X197000Y337319D01*
X194912Y337044D01*
X192966Y336238D01*
X192403Y335806D01*
X98500D01*
X96803Y335583D01*
X95222Y334928D01*
X93864Y333886D01*
X83184Y323206D01*
X73228D01*
X72534Y323738D01*
X70588Y324544D01*
X68500Y324819D01*
X66590Y324568D01*
X66032Y324759D01*
X65320Y325235D01*
Y327930D01*
X65250Y328000D01*
X64090D01*
Y328080D01*
X54050D01*
X44010D01*
Y328000D01*
X41250D01*
Y323022D01*
X40953Y322983D01*
X39372Y322328D01*
X38014Y321286D01*
X37164Y320436D01*
X19342D01*
X18375Y321083D01*
X17096Y321337D01*
X17096Y322632D01*
X18195Y322851D01*
X19738Y323882D01*
X20769Y325425D01*
X21131Y327245D01*
Y328100D01*
X14000D01*
X6869D01*
Y327245D01*
X7231Y325425D01*
X8262Y323882D01*
X9805Y322851D01*
X10904Y322632D01*
X10904Y321337D01*
X9625Y321083D01*
X7930Y319950D01*
X6797Y318255D01*
X6400Y316255D01*
Y312005D01*
X6797Y310005D01*
X7930Y308310D01*
X9412Y307320D01*
Y306750D01*
X9761Y304994D01*
X10756Y303506D01*
X19912Y294349D01*
Y287500D01*
X20007Y287022D01*
X19201Y286040D01*
X17500D01*
Y286500D01*
X7500D01*
Y275500D01*
X17500D01*
Y275960D01*
X17730D01*
Y281000D01*
X20270D01*
Y275960D01*
X20500D01*
Y275500D01*
X30500D01*
Y286500D01*
X30088D01*
X29739Y288256D01*
X29088Y289230D01*
Y296250D01*
X28739Y298006D01*
X27744Y299494D01*
X21088Y306151D01*
X21574Y307324D01*
X39880D01*
X40295Y307379D01*
X41250Y306541D01*
Y281289D01*
X39756Y279794D01*
X38761Y278306D01*
X38412Y276550D01*
Y276465D01*
X35034Y273088D01*
X20750D01*
X18994Y272739D01*
X17506Y271744D01*
X15756Y269994D01*
X14761Y268506D01*
X14561Y267500D01*
X7500D01*
Y256500D01*
X8210D01*
X8261Y256244D01*
X9256Y254756D01*
X12256Y251756D01*
X13744Y250761D01*
X15500Y250412D01*
X28849D01*
X34912Y244349D01*
Y236500D01*
X35261Y234744D01*
X36256Y233256D01*
X40756Y228756D01*
X42244Y227761D01*
X44000Y227412D01*
X64750D01*
X66506Y227761D01*
X67994Y228756D01*
X79900Y240662D01*
X95937D01*
X96794Y239544D01*
X98465Y238262D01*
X100412Y237456D01*
X102500Y237181D01*
X104588Y237456D01*
X106535Y238262D01*
X108206Y239544D01*
X108488Y239912D01*
X153000D01*
X154756Y240261D01*
X156244Y241256D01*
X173650Y258662D01*
X211187D01*
X212044Y257544D01*
X213715Y256262D01*
X215662Y255456D01*
X217750Y255181D01*
X219838Y255456D01*
X221784Y256262D01*
X223456Y257544D01*
X224738Y259216D01*
X225544Y261162D01*
X225819Y263250D01*
X225544Y265338D01*
X224738Y267285D01*
X223456Y268956D01*
X221784Y270238D01*
X219838Y271044D01*
X217750Y271319D01*
X215662Y271044D01*
X213715Y270238D01*
X212044Y268956D01*
X211187Y267838D01*
X173257D01*
X172000Y268088D01*
X170244Y267739D01*
X168756Y266744D01*
X151100Y249088D01*
X109569D01*
X109488Y249284D01*
X108206Y250956D01*
X106535Y252238D01*
X104588Y253044D01*
X102500Y253319D01*
X100412Y253044D01*
X98465Y252238D01*
X96794Y250956D01*
X95937Y249838D01*
X78000D01*
X76244Y249489D01*
X74756Y248494D01*
X66493Y240232D01*
X65320Y240718D01*
Y261262D01*
X106436D01*
X106794Y260794D01*
X108465Y259512D01*
X110412Y258706D01*
X112500Y258431D01*
X114588Y258706D01*
X116535Y259512D01*
X118206Y260794D01*
X119063Y261912D01*
X150250D01*
X152006Y262261D01*
X153494Y263256D01*
X164200Y273962D01*
X228250D01*
Y247806D01*
X213216D01*
X211963Y249059D01*
X211794Y250338D01*
X210988Y252285D01*
X209706Y253956D01*
X208034Y255238D01*
X206088Y256044D01*
X204000Y256319D01*
X201912Y256044D01*
X199965Y255238D01*
X198294Y253956D01*
X197012Y252285D01*
X196206Y250338D01*
X195931Y248250D01*
X196206Y246162D01*
X197012Y244216D01*
X198294Y242544D01*
X199965Y241262D01*
X201912Y240456D01*
X202039Y240439D01*
X205864Y236614D01*
X207222Y235572D01*
X208803Y234917D01*
X210500Y234694D01*
X225000D01*
Y217500D01*
X241977Y200524D01*
Y198500D01*
X247625D01*
Y196000D01*
X250125D01*
Y183937D01*
X250375Y183764D01*
Y183500D01*
X251375Y182500D01*
X266625D01*
Y183930D01*
X267895Y184696D01*
X268355Y184604D01*
Y196000D01*
X270895D01*
Y184475D01*
X271750Y183773D01*
Y183500D01*
X272750Y182500D01*
X331750D01*
X332250Y183000D01*
Y184129D01*
X333125Y184680D01*
Y196000D01*
X335625D01*
Y198500D01*
X342199D01*
X342447Y198603D01*
X343422Y197628D01*
Y132070D01*
X342467Y131233D01*
X341767Y131325D01*
X339678Y131050D01*
X337732Y130244D01*
X336061Y128962D01*
X334779Y127290D01*
X333973Y125344D01*
X333698Y123256D01*
X333973Y121168D01*
X334779Y119221D01*
X336061Y117550D01*
X337732Y116268D01*
X339678Y115462D01*
X341767Y115187D01*
X343855Y115462D01*
X345801Y116268D01*
X347472Y117550D01*
X348755Y119221D01*
X349561Y121168D01*
X349836Y123256D01*
X349568Y125290D01*
X350384Y126105D01*
X350384Y126105D01*
X351268Y127429D01*
X351578Y128989D01*
Y199317D01*
X351578Y199317D01*
X351268Y200878D01*
X350384Y202201D01*
X334000Y218585D01*
X334125Y219849D01*
X334518Y220112D01*
X335712Y221898D01*
X336131Y224005D01*
Y229405D01*
X335712Y231512D01*
X334518Y233298D01*
X332732Y234492D01*
X330625Y234911D01*
X325825D01*
X323718Y234492D01*
X321932Y233298D01*
X321278Y232320D01*
X320440D01*
X318745Y233453D01*
X318083Y233584D01*
Y243169D01*
X318125Y243177D01*
X319420Y244043D01*
X320560Y242556D01*
X322231Y241274D01*
X324178Y240468D01*
X326266Y240193D01*
X328354Y240468D01*
X330300Y241274D01*
X330964Y241783D01*
X331457Y241702D01*
X333243Y240508D01*
X335350Y240089D01*
X340150D01*
X342257Y240508D01*
X344043Y241702D01*
X345237Y243488D01*
X345305Y243831D01*
X345334Y243877D01*
X345571Y244101D01*
X346082Y244409D01*
X346754Y244606D01*
X346828Y244575D01*
X347204Y244500D01*
X347506Y244500D01*
X347801Y244441D01*
X354358D01*
X355041Y243610D01*
Y238440D01*
X355474Y236261D01*
X356708Y234414D01*
X358556Y233179D01*
X360735Y232746D01*
X369765D01*
X371944Y233179D01*
X372387Y233475D01*
X373507Y232876D01*
Y232520D01*
X388493D01*
Y234321D01*
X388953D01*
Y235392D01*
X389750D01*
X391896Y235819D01*
X392158Y235994D01*
X393857Y236218D01*
X395804Y237024D01*
X397177Y238078D01*
X398447Y237644D01*
Y234321D01*
X405435D01*
X406400Y234194D01*
X412603D01*
X413458Y232913D01*
X415306Y231679D01*
X417485Y231246D01*
X426515D01*
X428694Y231679D01*
X430324Y232768D01*
X431735Y232588D01*
X432400Y231592D01*
X434533Y230167D01*
X437050Y229666D01*
X446950D01*
X449467Y230167D01*
X451600Y231592D01*
X451621Y231623D01*
X456942D01*
X459031Y231898D01*
X460977Y232705D01*
X461291Y232945D01*
X462453Y232236D01*
X462797Y230505D01*
X463865Y228908D01*
X463751Y228416D01*
X463398Y227638D01*
X458000D01*
X456244Y227289D01*
X454756Y226294D01*
X453761Y224806D01*
X453412Y223050D01*
Y220050D01*
X453761Y218294D01*
X454756Y216806D01*
X456160Y215867D01*
X456239Y215200D01*
X456160Y214533D01*
X454756Y213594D01*
X454010Y212478D01*
X452677Y212670D01*
X452592Y213095D01*
X451269Y215076D01*
X449287Y216400D01*
X446950Y216865D01*
X443270D01*
Y207307D01*
Y197750D01*
X446950D01*
X449287Y198215D01*
X451269Y199539D01*
X452592Y201520D01*
X453057Y203857D01*
Y204362D01*
X454327Y204747D01*
X454756Y204106D01*
X456160Y203167D01*
X456239Y202500D01*
X456160Y201833D01*
X454756Y200894D01*
X453761Y199406D01*
X453412Y197650D01*
Y194650D01*
X453761Y192894D01*
X454756Y191406D01*
X456244Y190411D01*
X457240Y190213D01*
Y188918D01*
X456424Y188756D01*
X455087Y187863D01*
X454194Y186526D01*
X453881Y184950D01*
Y184720D01*
X467500D01*
Y182180D01*
X453881D01*
Y181950D01*
X453968Y181510D01*
X453163Y180528D01*
X452471D01*
X450910Y180218D01*
X449587Y179334D01*
X438959Y168706D01*
X438956Y168706D01*
X437285Y169988D01*
X435338Y170794D01*
X433250Y171069D01*
X431162Y170794D01*
X429216Y169988D01*
X427676Y168807D01*
X427132Y168924D01*
X426406Y169308D01*
Y175609D01*
X427676Y175995D01*
X428224Y175174D01*
X430209Y173848D01*
X432550Y173382D01*
X434891Y173848D01*
X436876Y175174D01*
X438202Y177159D01*
X438667Y179500D01*
Y195500D01*
X438415Y196768D01*
X439221Y197750D01*
X440730D01*
Y207307D01*
Y216865D01*
X437050D01*
X434713Y216400D01*
X432731Y215076D01*
X431408Y213095D01*
X430943Y210758D01*
Y207577D01*
X429769Y207091D01*
X427616Y209244D01*
X426127Y210239D01*
X426099Y210245D01*
X426073Y210375D01*
X425391Y211395D01*
X426070Y212665D01*
X426515D01*
X428515Y213062D01*
X430210Y214195D01*
X431343Y215890D01*
X431740Y217890D01*
Y219205D01*
X422000D01*
Y220475D01*
X420730D01*
Y228285D01*
X417485D01*
X415485Y227888D01*
X413790Y226755D01*
X412552Y227188D01*
X411478Y227906D01*
X409638Y228272D01*
X403162D01*
X401322Y227906D01*
X399762Y226864D01*
X398721Y225305D01*
X398355Y223465D01*
Y220036D01*
X398721Y218197D01*
X399762Y216637D01*
X401322Y215595D01*
X403162Y215229D01*
X409638D01*
X411478Y215595D01*
X411515Y215620D01*
X413135Y215175D01*
X413790Y214195D01*
X413992Y214060D01*
Y212533D01*
X413300Y212070D01*
X412167Y210375D01*
X411913Y209096D01*
X410618Y209096D01*
X410399Y210195D01*
X409368Y211738D01*
X407825Y212769D01*
X406005Y213131D01*
X405150D01*
Y206000D01*
X403880D01*
Y204730D01*
X396999D01*
Y203625D01*
X397271Y202253D01*
X397260Y202225D01*
X396389Y201313D01*
X396274Y201255D01*
X394450Y201618D01*
X392109Y201152D01*
X390124Y199826D01*
X389922Y199524D01*
X388653Y199482D01*
X388474Y199715D01*
X386803Y200997D01*
X384857Y201803D01*
X382769Y202078D01*
X380680Y201803D01*
X378734Y200997D01*
X377063Y199715D01*
X375781Y198044D01*
X374975Y196098D01*
X374700Y194009D01*
X374975Y191921D01*
X375781Y189975D01*
X377063Y188304D01*
X378734Y187022D01*
X380680Y186215D01*
X380940Y186181D01*
Y173347D01*
X379820Y172748D01*
X379216Y173152D01*
X376875Y173617D01*
X364875D01*
X362534Y173152D01*
X360575Y171843D01*
X359777D01*
Y170670D01*
X359223Y169841D01*
X358758Y167500D01*
X359223Y165159D01*
X359777Y164330D01*
Y147907D01*
X361500Y146184D01*
Y137816D01*
X359777Y136093D01*
Y126843D01*
X360178Y126442D01*
X359883Y126000D01*
X360620D01*
X361777Y124843D01*
X363777D01*
X370875Y125082D01*
Y121000D01*
X359883D01*
X360881Y119506D01*
X360475Y118250D01*
X358750D01*
Y57250D01*
X358821Y57179D01*
X359223Y55159D01*
X360549Y53174D01*
X360624Y51596D01*
X360509Y51492D01*
X359134Y51634D01*
X353134Y57634D01*
X351811Y58518D01*
X350250Y58828D01*
X350250Y58828D01*
X329250D01*
X329250Y58828D01*
X327689Y58518D01*
X326366Y57634D01*
X321741Y53009D01*
X320857Y51686D01*
X320547Y50125D01*
X320547Y50125D01*
Y28491D01*
X320299Y28326D01*
X320152Y28105D01*
X318662Y28011D01*
X318093Y28624D01*
Y93043D01*
X319238Y94535D01*
X320044Y96481D01*
X320319Y98569D01*
X320044Y100657D01*
X319238Y102604D01*
X317956Y104275D01*
X316285Y105557D01*
X314338Y106363D01*
X312250Y106638D01*
X310162Y106363D01*
X308216Y105557D01*
X306544Y104275D01*
X305262Y102604D01*
X304456Y100657D01*
X304181Y98569D01*
X304456Y96481D01*
X305262Y94535D01*
X306544Y92863D01*
X308216Y91581D01*
X309937Y90868D01*
Y28752D01*
X309299Y28326D01*
X308760Y27519D01*
X307490D01*
X306951Y28326D01*
X306619Y28547D01*
X306393Y29686D01*
X305509Y31009D01*
X305509Y31009D01*
X302610Y33908D01*
X302819Y35500D01*
X302544Y37588D01*
X301738Y39534D01*
X300456Y41206D01*
X298785Y42488D01*
X296838Y43294D01*
X294750Y43569D01*
X292662Y43294D01*
X290716Y42488D01*
X289044Y41206D01*
X287762Y39534D01*
X286956Y37588D01*
X286681Y35500D01*
X286023Y34750D01*
X285750D01*
X284250Y33250D01*
Y30000D01*
X284259Y29590D01*
X283146Y28979D01*
X282787Y29218D01*
X281895Y29396D01*
Y18000D01*
X279355D01*
Y29396D01*
X278463Y29218D01*
X276631Y27994D01*
X275889Y26883D01*
X274361D01*
X273619Y27994D01*
X271787Y29218D01*
X269625Y29648D01*
X269545Y29632D01*
X268919Y30803D01*
X270064Y31948D01*
X270123Y32036D01*
X270207Y32100D01*
X270453Y32529D01*
X270727Y32941D01*
X270748Y33044D01*
X270800Y33135D01*
X270864Y33626D01*
X270960Y34111D01*
X270940Y34215D01*
X270953Y34319D01*
X270559Y40104D01*
Y45000D01*
Y100000D01*
X270326Y101171D01*
X269663Y102163D01*
X269663Y102163D01*
X253059Y118767D01*
Y160000D01*
Y165000D01*
X252826Y166171D01*
X252163Y167163D01*
X252163Y167163D01*
X242163Y177163D01*
X242163Y177163D01*
X229663Y189663D01*
X228671Y190326D01*
X227500Y190559D01*
X227500Y190559D01*
X212927D01*
X212231Y191829D01*
X212663Y194000D01*
Y195750D01*
X202500D01*
Y198250D01*
X200000D01*
Y208913D01*
X198750D01*
X196296Y208425D01*
X194215Y207035D01*
X193552Y206043D01*
X191827Y205711D01*
X191623Y205850D01*
Y229205D01*
X191623Y229205D01*
X191313Y230766D01*
X190429Y232089D01*
X186301Y236216D01*
X186569Y238250D01*
X186294Y240338D01*
X185488Y242285D01*
X184206Y243956D01*
X182535Y245238D01*
X180588Y246044D01*
X178500Y246319D01*
X176412Y246044D01*
X174466Y245238D01*
X172794Y243956D01*
X171512Y242285D01*
X170706Y240338D01*
X170431Y238250D01*
X170706Y236162D01*
X171512Y234216D01*
X172794Y232544D01*
X174466Y231262D01*
X176412Y230456D01*
X178500Y230181D01*
X180534Y230449D01*
X183467Y227516D01*
Y196324D01*
X182500Y195559D01*
X181329Y195326D01*
X180337Y194663D01*
X175431Y189757D01*
X175035Y189798D01*
X174161Y190188D01*
Y192175D01*
X173742Y194282D01*
X172548Y196068D01*
X172538Y196129D01*
X172988Y196716D01*
X173794Y198662D01*
X174069Y200750D01*
X173794Y202838D01*
X172988Y204785D01*
X171706Y206456D01*
X170035Y207738D01*
X168088Y208544D01*
X166000Y208819D01*
X163912Y208544D01*
X161966Y207738D01*
X160294Y206456D01*
X159012Y204785D01*
X158206Y202838D01*
X157931Y200750D01*
X158206Y198662D01*
X159012Y196716D01*
X158361Y195478D01*
X154962D01*
X154820Y195690D01*
X153125Y196823D01*
X151125Y197220D01*
X146375D01*
X144375Y196823D01*
X142680Y195690D01*
X142538Y195478D01*
X140212D01*
X140070Y195690D01*
X138375Y196823D01*
X136375Y197220D01*
X131625D01*
X129625Y196823D01*
X127930Y195690D01*
X126797Y193995D01*
X126400Y191995D01*
Y187745D01*
X126797Y185745D01*
X127930Y184050D01*
X129625Y182917D01*
X129726Y182897D01*
Y181603D01*
X129625Y181583D01*
X127930Y180450D01*
X126978Y179025D01*
X125865Y179085D01*
X125656Y179159D01*
X125592Y179480D01*
X124269Y181461D01*
X122287Y182785D01*
X119950Y183250D01*
X117500D01*
Y173692D01*
X112500D01*
Y183250D01*
X110050D01*
X107713Y182785D01*
X107415Y182586D01*
X105500Y184500D01*
Y185500D01*
X79500D01*
Y159500D01*
Y134500D01*
Y109500D01*
X80000D01*
Y107540D01*
X79960D01*
Y82460D01*
X90000D01*
Y95000D01*
X95000D01*
Y82460D01*
X104255D01*
X104364Y81190D01*
X96233Y73059D01*
X96233Y73059D01*
X82500D01*
X82205Y73000D01*
X80893D01*
X80815Y73593D01*
X80131Y75244D01*
X79043Y76663D01*
X77624Y77751D01*
X75972Y78435D01*
X74200Y78669D01*
X68250D01*
Y67570D01*
Y56471D01*
X74200D01*
X75972Y56705D01*
X77624Y57389D01*
X78171Y57809D01*
X79441Y57182D01*
Y50000D01*
X79500Y49704D01*
Y47000D01*
X82205D01*
X82500Y46941D01*
X102500D01*
X102795Y47000D01*
X105500D01*
Y48674D01*
X116332Y59506D01*
X116332Y59506D01*
X124027Y67201D01*
X124082Y67284D01*
X124221Y67423D01*
X124334Y67592D01*
X124407Y67665D01*
X124462Y67747D01*
X124486Y67803D01*
X124708Y68057D01*
X124773Y68248D01*
X124885Y68415D01*
X124951Y68746D01*
X124981Y68799D01*
X125013Y68892D01*
X125026Y68995D01*
X125091Y69187D01*
X125117Y69383D01*
X125149Y69476D01*
X125173Y69659D01*
X125621Y70740D01*
X126332Y71667D01*
X126745Y71984D01*
X126822Y72072D01*
X126844Y72083D01*
X126908Y72156D01*
X127046Y72248D01*
X127145Y72347D01*
X127356Y72664D01*
X127372Y72685D01*
X127631Y72980D01*
X128125Y73677D01*
X130125Y73280D01*
X133362D01*
X134386Y72256D01*
X135874Y71261D01*
X136222Y71192D01*
X137294Y69794D01*
X138966Y68512D01*
X140912Y67706D01*
X143000Y67431D01*
X145088Y67706D01*
X147035Y68512D01*
X148341Y69514D01*
X149590Y69539D01*
X150016Y69416D01*
X150516Y68766D01*
X152195Y67477D01*
X154151Y66667D01*
X156250Y66391D01*
X156750D01*
Y82000D01*
Y97609D01*
X156250D01*
X154151Y97333D01*
X152195Y96523D01*
X150516Y95234D01*
X149944Y94490D01*
X149859Y94422D01*
X148207Y94280D01*
X147284Y94988D01*
X145338Y95794D01*
X144630Y95887D01*
X141951Y98566D01*
X141873Y99393D01*
X141998Y100125D01*
X143158Y100900D01*
X144583Y103033D01*
X145084Y105550D01*
Y115450D01*
X144983Y115960D01*
X145788Y116941D01*
X156887D01*
X157968Y115865D01*
X157885Y115450D01*
Y111770D01*
X167442D01*
Y110500D01*
X168713D01*
Y99443D01*
X170893D01*
X173230Y99908D01*
X173234Y99910D01*
X174377Y99147D01*
X174150Y98005D01*
Y95802D01*
X173329Y95402D01*
X172880Y95314D01*
X171305Y96523D01*
X169349Y97333D01*
X167250Y97609D01*
X166750D01*
Y87000D01*
X175359D01*
Y88747D01*
X176629Y89426D01*
X177375Y88927D01*
X179375Y88530D01*
X184125D01*
X186125Y88927D01*
X187820Y90060D01*
X188643Y91292D01*
X190000D01*
X191756Y91641D01*
X193244Y92636D01*
X193511Y92902D01*
X195091Y92813D01*
X200250Y87655D01*
Y82250D01*
X200250D01*
X200771Y80980D01*
X200729Y80770D01*
X212125D01*
Y78230D01*
X200729D01*
X200907Y77338D01*
X202131Y75506D01*
X203242Y74764D01*
Y73236D01*
X202131Y72494D01*
X200907Y70662D01*
X200729Y69770D01*
X212125D01*
Y67230D01*
X200729D01*
X200907Y66338D01*
X201583Y65326D01*
X200904Y64056D01*
X133000D01*
X131303Y63833D01*
X129722Y63178D01*
X128364Y62136D01*
X94284Y28056D01*
X82071D01*
X80950Y30153D01*
X79013Y32513D01*
X76653Y34450D01*
X74562Y35568D01*
X60178Y49952D01*
X59097Y54454D01*
X58699Y55416D01*
X59404Y56471D01*
X63250D01*
Y67570D01*
Y78669D01*
X57300D01*
X55527Y78435D01*
X53876Y77751D01*
X52457Y76663D01*
X51369Y75244D01*
X50685Y73593D01*
X50451Y71820D01*
Y69160D01*
X49298Y68628D01*
X47983Y69751D01*
X43889Y72260D01*
X39454Y74097D01*
X34786Y75218D01*
X30000Y75594D01*
X25214Y75218D01*
X20910Y74184D01*
X19640Y74889D01*
Y86620D01*
X11100D01*
Y71380D01*
X6100D01*
Y86620D01*
X3569D01*
Y120652D01*
X4771Y121060D01*
X5765Y119765D01*
X8690Y117521D01*
X12095Y116110D01*
X15750Y115629D01*
X19405Y116110D01*
X22810Y117521D01*
X25735Y119765D01*
X27979Y122690D01*
X28990Y125131D01*
X30217Y125460D01*
X30961Y124889D01*
X33150Y123982D01*
X35500Y123672D01*
X37850Y123982D01*
X40039Y124889D01*
X41919Y126331D01*
X43361Y128211D01*
X43928Y129578D01*
X45442Y130017D01*
X46100Y129512D01*
X48046Y128706D01*
X48500Y128646D01*
Y121250D01*
Y113250D01*
Y105250D01*
Y97250D01*
X48960D01*
Y96020D01*
X62750D01*
X76540D01*
Y97250D01*
X77000D01*
Y105250D01*
Y113250D01*
Y121250D01*
Y132250D01*
X70972D01*
X70315Y133000D01*
X70057Y134958D01*
X69301Y136782D01*
X68099Y138349D01*
X65243Y141206D01*
X65769Y142476D01*
X68104D01*
X70358Y142772D01*
X72459Y143643D01*
X74263Y145027D01*
X75648Y146831D01*
X76518Y148932D01*
X76814Y151186D01*
Y152750D01*
X61500D01*
Y155250D01*
X59000D01*
Y168025D01*
X54896D01*
X52642Y167728D01*
X50541Y166858D01*
X48737Y165473D01*
X47352Y163669D01*
X46482Y161569D01*
X46185Y159314D01*
Y153520D01*
X45012Y153034D01*
X41569Y156477D01*
Y170750D01*
X41294Y172838D01*
X40488Y174785D01*
X39206Y176456D01*
X28071Y187590D01*
Y188250D01*
X27788Y190404D01*
X26956Y192411D01*
X25634Y194134D01*
X23911Y195456D01*
X21904Y196288D01*
X19750Y196571D01*
X9250D01*
X7096Y196288D01*
X5089Y195456D01*
X4708Y195163D01*
X3569Y195725D01*
Y377419D01*
X4791Y377764D01*
X5249Y377017D01*
X8367Y373367D01*
X12017Y370249D01*
X16111Y367740D01*
X20546Y365903D01*
X25214Y364782D01*
X30000Y364406D01*
X34786Y364782D01*
X39454Y365903D01*
X43889Y367740D01*
X47983Y370249D01*
X51633Y373367D01*
X54751Y377017D01*
X57260Y381110D01*
X59097Y385546D01*
X60218Y390214D01*
X60283Y391038D01*
X61449Y391388D01*
X62422Y390582D01*
Y365500D01*
X62422Y365500D01*
X62732Y363939D01*
X63616Y362616D01*
X80366Y345866D01*
X80366Y345866D01*
X81689Y344982D01*
X83250Y344672D01*
X83250Y344672D01*
X114046D01*
X115294Y343044D01*
X116966Y341762D01*
X118912Y340956D01*
X121000Y340681D01*
X123088Y340956D01*
X125035Y341762D01*
X126706Y343044D01*
X127988Y344715D01*
X128794Y346662D01*
X129069Y348750D01*
X128794Y350838D01*
X127988Y352785D01*
X126706Y354456D01*
X125035Y355738D01*
X123088Y356544D01*
X121000Y356819D01*
X118912Y356544D01*
X116966Y355738D01*
X115294Y354456D01*
X114046Y352828D01*
X84939D01*
X70578Y367189D01*
Y388617D01*
X71741Y388770D01*
X72828Y389221D01*
X73903Y388291D01*
Y386750D01*
X84500D01*
X95096D01*
Y388750D01*
X94872Y390457D01*
X94213Y392048D01*
X95242Y392740D01*
X124866Y363116D01*
X124866Y363116D01*
X126189Y362232D01*
X127750Y361922D01*
X165500D01*
X165500Y361922D01*
X167061Y362232D01*
X168384Y363116D01*
X179966Y374699D01*
X182000Y374431D01*
X184088Y374706D01*
X186035Y375512D01*
X187706Y376794D01*
X188988Y378465D01*
X189794Y380412D01*
X190069Y382500D01*
X189794Y384588D01*
X188988Y386535D01*
X187706Y388206D01*
X186035Y389488D01*
X185886Y389550D01*
X186057Y390853D01*
X186838Y390956D01*
X188785Y391762D01*
X190456Y393044D01*
X190690Y393350D01*
X191960Y392919D01*
Y386750D01*
X200000D01*
Y395290D01*
X193119D01*
X192413Y396346D01*
X192544Y396662D01*
X192819Y398750D01*
X192544Y400838D01*
X191738Y402785D01*
X190456Y404456D01*
X188785Y405738D01*
X189436Y406746D01*
X189988Y407466D01*
X190794Y409412D01*
X191069Y411500D01*
Y421500D01*
X190794Y423588D01*
X189988Y425535D01*
X188706Y427206D01*
X187034Y428488D01*
X185409Y429161D01*
X185661Y430431D01*
X194441D01*
X194441Y430431D01*
D02*
G37*
G36*
X716645Y429292D02*
X715890Y428309D01*
X714580Y425145D01*
X714133Y421750D01*
X714374Y419919D01*
X713405Y419098D01*
X709999Y420131D01*
X705000Y420623D01*
X700001Y420131D01*
X695194Y418673D01*
X690764Y416305D01*
X686881Y413119D01*
X683695Y409236D01*
X681327Y404806D01*
X679869Y399999D01*
X679501Y396263D01*
X678163Y395630D01*
X677875Y395823D01*
X675875Y396220D01*
X671125D01*
X669125Y395823D01*
X668100Y395137D01*
X667310Y396320D01*
X666309Y396989D01*
Y398511D01*
X667310Y399180D01*
X668443Y400875D01*
X668448Y400900D01*
X669006Y401011D01*
X670494Y402006D01*
X674097Y405608D01*
X674838Y405706D01*
X676785Y406512D01*
X678456Y407794D01*
X679738Y409465D01*
X680544Y411412D01*
X680819Y413500D01*
X680544Y415588D01*
X679738Y417534D01*
X678456Y419206D01*
X676785Y420488D01*
X674838Y421294D01*
X672750Y421569D01*
X670662Y421294D01*
X668716Y420488D01*
X667044Y419206D01*
X665762Y417534D01*
X664956Y415588D01*
X664736Y413922D01*
X663733Y412935D01*
X663485Y412850D01*
X659365D01*
X657365Y412453D01*
X655670Y411320D01*
X654537Y409625D01*
X654517Y409524D01*
X653223D01*
X653203Y409625D01*
X652070Y411320D01*
X651266Y411857D01*
X651258Y412296D01*
X651568Y413183D01*
X653065Y413481D01*
X654608Y414512D01*
X655639Y416055D01*
X656001Y417875D01*
Y418980D01*
X649120D01*
Y420250D01*
X647850D01*
Y427381D01*
X646995D01*
X645175Y427019D01*
X643632Y425988D01*
X642601Y424445D01*
X642382Y423346D01*
X641087Y423346D01*
X640833Y424625D01*
X639700Y426320D01*
X638005Y427453D01*
X636005Y427850D01*
X631755D01*
X629755Y427453D01*
X628060Y426320D01*
X626927Y424625D01*
X626530Y422625D01*
Y422112D01*
X625260Y421726D01*
X624826Y422376D01*
X622841Y423702D01*
X620500Y424168D01*
X607500D01*
X605159Y423702D01*
X604544Y423291D01*
X603800Y423439D01*
X598944Y428294D01*
X597647Y429161D01*
X597698Y429976D01*
X597858Y430431D01*
X716083D01*
X716645Y429292D01*
D02*
G37*
G36*
X555552Y429976D02*
X555603Y429161D01*
X554306Y428294D01*
X553899Y427888D01*
X552875Y428573D01*
X550875Y428970D01*
X546125D01*
X544125Y428573D01*
X542430Y427440D01*
X541297Y425745D01*
X540900Y423745D01*
Y419495D01*
X541143Y418270D01*
X540217Y417000D01*
X507000D01*
Y397500D01*
X534479D01*
X546662Y385317D01*
Y379500D01*
X547011Y377744D01*
X548006Y376256D01*
X549854Y374407D01*
X550256Y373806D01*
X565556Y358506D01*
X567045Y357511D01*
X568801Y357162D01*
X590372D01*
X623392Y324142D01*
X624145Y323638D01*
X626278Y321506D01*
X627766Y320511D01*
X629522Y320162D01*
X633860D01*
X639662Y314360D01*
Y308000D01*
X640011Y306244D01*
X641006Y304756D01*
X650412Y295350D01*
Y278400D01*
X650006Y277994D01*
X649011Y276506D01*
X648662Y274750D01*
Y258400D01*
X636892Y246630D01*
X635897Y245142D01*
X635548Y243386D01*
Y210287D01*
X633122Y207860D01*
X631948Y208346D01*
Y218630D01*
X631948Y218630D01*
X631638Y220191D01*
X630754Y221514D01*
X630754Y221514D01*
X607384Y244884D01*
X606061Y245768D01*
X604500Y246078D01*
X604500Y246078D01*
X574000D01*
Y247922D01*
X574000Y247922D01*
X574000Y247922D01*
X620546D01*
X621794Y246294D01*
X623465Y245012D01*
X625412Y244206D01*
X627500Y243931D01*
X629588Y244206D01*
X631535Y245012D01*
X633206Y246294D01*
X634488Y247966D01*
X635294Y249912D01*
X635569Y252000D01*
X635294Y254088D01*
X634488Y256035D01*
X633206Y257706D01*
X632797Y258019D01*
Y259289D01*
X633456Y259794D01*
X634738Y261465D01*
X635544Y263412D01*
X635819Y265500D01*
X635544Y267588D01*
X634738Y269534D01*
X633456Y271206D01*
X631785Y272488D01*
X629838Y273294D01*
X627750Y273569D01*
X625662Y273294D01*
X623716Y272488D01*
X622044Y271206D01*
X621819Y270912D01*
X620808Y270136D01*
X617978Y267306D01*
X589766D01*
X581136Y275936D01*
X579778Y276978D01*
X578197Y277633D01*
X576500Y277856D01*
X574000D01*
Y282000D01*
X569750Y286250D01*
X553772D01*
X552886Y287136D01*
X551988Y287825D01*
X552419Y289095D01*
X559550D01*
X561518Y289354D01*
X563353Y290114D01*
X564928Y291322D01*
X566136Y292897D01*
X566896Y294732D01*
X566988Y295430D01*
X552050D01*
Y297970D01*
X566988D01*
X566896Y298668D01*
X566136Y300502D01*
X564928Y302078D01*
X563353Y303286D01*
X561518Y304046D01*
X560715Y304152D01*
X560799Y305422D01*
X573618D01*
X576392Y302648D01*
X576209Y301265D01*
X576484Y299176D01*
X577290Y297230D01*
X578573Y295559D01*
X580244Y294277D01*
X582190Y293471D01*
X584278Y293196D01*
X585662Y293378D01*
X596424Y282616D01*
X597747Y281732D01*
X599308Y281422D01*
X599308Y281422D01*
X615296D01*
X616544Y279794D01*
X618215Y278512D01*
X620162Y277706D01*
X622250Y277431D01*
X624338Y277706D01*
X626284Y278512D01*
X627956Y279794D01*
X629238Y281465D01*
X630044Y283412D01*
X630319Y285500D01*
X630044Y287588D01*
X629238Y289534D01*
X627956Y291206D01*
X626284Y292488D01*
X624338Y293294D01*
X622250Y293569D01*
X620162Y293294D01*
X618215Y292488D01*
X616544Y291206D01*
X615296Y289578D01*
X600997D01*
X591875Y298700D01*
X592073Y299176D01*
X592347Y301265D01*
X592073Y303353D01*
X591267Y305299D01*
X589984Y306970D01*
X588313Y308253D01*
X586367Y309059D01*
X584278Y309334D01*
X582190Y309059D01*
X581714Y308862D01*
X578191Y312384D01*
X577185Y313056D01*
X577379Y314363D01*
X578088Y314456D01*
X580034Y315262D01*
X581706Y316544D01*
X582954Y318172D01*
X602040D01*
X621845Y298366D01*
X621845Y298366D01*
X623168Y297482D01*
X624729Y297172D01*
X629061D01*
X633093Y293140D01*
X633012Y293034D01*
X632206Y291088D01*
X631931Y289000D01*
X632206Y286912D01*
X633012Y284965D01*
X634294Y283294D01*
X635965Y282012D01*
X637912Y281206D01*
X640000Y280931D01*
X642088Y281206D01*
X644035Y282012D01*
X645706Y283294D01*
X646988Y284965D01*
X647794Y286912D01*
X648069Y289000D01*
X647794Y291088D01*
X646988Y293034D01*
X645706Y294706D01*
X644035Y295988D01*
X642088Y296794D01*
X640805Y296963D01*
X633941Y303826D01*
X633956Y304044D01*
X635238Y305716D01*
X636044Y307662D01*
X636319Y309750D01*
X636044Y311838D01*
X635238Y313785D01*
X633956Y315456D01*
X632285Y316738D01*
X630338Y317544D01*
X628250Y317819D01*
X626162Y317544D01*
X625264Y317172D01*
X605205Y337231D01*
X603386Y338447D01*
X601240Y338873D01*
X567000D01*
Y349500D01*
X562750Y353750D01*
X537750D01*
X534000Y350000D01*
Y338935D01*
X533457Y338111D01*
X533028Y337802D01*
X531188Y337560D01*
X529241Y336754D01*
X527570Y335472D01*
X526288Y333801D01*
X525988Y333076D01*
X524490Y332778D01*
X518384Y338884D01*
X517061Y339768D01*
X515500Y340078D01*
X515500Y340078D01*
X508189D01*
X499078Y349189D01*
Y357500D01*
X498768Y359061D01*
X497884Y360384D01*
X497884Y360384D01*
X487884Y370384D01*
X486561Y371268D01*
X485000Y371578D01*
X485000Y371578D01*
X466954D01*
X465706Y373206D01*
X465144Y373637D01*
X465647Y374852D01*
X467250Y374641D01*
X467750D01*
Y385250D01*
X459141D01*
Y382750D01*
X459417Y380651D01*
X460227Y378695D01*
X461516Y377016D01*
X462091Y376575D01*
X461587Y375360D01*
X460000Y375569D01*
X457912Y375294D01*
X455965Y374488D01*
X454294Y373206D01*
X453901Y372693D01*
X452631Y373125D01*
Y375495D01*
X452269Y377315D01*
X451238Y378858D01*
X449695Y379889D01*
X447875Y380251D01*
X446770D01*
Y373370D01*
X445500D01*
Y372100D01*
X438369D01*
Y371245D01*
X438731Y369425D01*
X439762Y367882D01*
X441305Y366851D01*
X442404Y366632D01*
X442404Y365337D01*
X441125Y365083D01*
X439430Y363950D01*
X439288Y363738D01*
X437500D01*
Y367500D01*
X436174Y368826D01*
X436039Y369506D01*
X435044Y370994D01*
X433556Y371989D01*
X432876Y372124D01*
X430000Y375000D01*
X390000D01*
X385000Y370000D01*
Y343431D01*
X383177Y341608D01*
X378999D01*
X378690Y342070D01*
X376995Y343203D01*
X374995Y343600D01*
X373989D01*
X373558Y344870D01*
X374306Y345444D01*
X375555Y347071D01*
X376339Y348966D01*
X376607Y351000D01*
Y351250D01*
X363500D01*
Y356250D01*
X358500D01*
Y369357D01*
X358250D01*
X356216Y369090D01*
X354321Y368305D01*
X352694Y367056D01*
X351829Y365928D01*
X350559Y366359D01*
Y376233D01*
X350559Y376233D01*
X350559Y376233D01*
X356267Y381941D01*
X377199D01*
X377494Y382000D01*
X377795D01*
X378074Y382055D01*
X378352Y382171D01*
X378369Y382174D01*
X378384Y382184D01*
X378866Y382384D01*
X378884Y382387D01*
X378898Y382397D01*
X379176Y382512D01*
X379412Y382670D01*
X379625Y382883D01*
X379876Y383050D01*
X387163Y390338D01*
X387164Y390338D01*
X389326Y392500D01*
X389326Y392500D01*
X410000D01*
X412500Y395000D01*
Y421174D01*
X413267Y421941D01*
X422500D01*
Y400000D01*
Y395000D01*
X425000Y392500D01*
X435000D01*
X437500Y395000D01*
Y410000D01*
X447500Y420000D01*
Y430431D01*
X555392D01*
X555552Y429976D01*
D02*
G37*
%LPC*%
G36*
X163455Y168225D02*
X158238D01*
X158602Y166398D01*
X159693Y164764D01*
X161327Y163672D01*
X163255Y163288D01*
X163455D01*
Y168225D01*
D02*
G37*
G36*
X68104Y168025D02*
X64000D01*
Y157750D01*
X76814D01*
Y159314D01*
X76518Y161569D01*
X75648Y163669D01*
X74263Y165473D01*
X72459Y166858D01*
X70358Y167728D01*
X68104Y168025D01*
D02*
G37*
G36*
X173672Y168225D02*
X168455D01*
Y163288D01*
X168655D01*
X170582Y163672D01*
X172216Y164764D01*
X173308Y166398D01*
X173672Y168225D01*
D02*
G37*
G36*
X638535Y172480D02*
X631995D01*
Y164010D01*
X633310D01*
X635310Y164407D01*
X637005Y165540D01*
X638138Y167235D01*
X638535Y169235D01*
Y172480D01*
D02*
G37*
G36*
X234105Y411500D02*
X226500D01*
Y403895D01*
X226500D01*
X228468Y404154D01*
X230303Y404914D01*
X231878Y406122D01*
X233086Y407697D01*
X233846Y409532D01*
X234105Y411500D01*
Y411500D01*
D02*
G37*
G36*
X368750Y415077D02*
X368500D01*
Y406970D01*
X376607D01*
Y407220D01*
X376339Y409254D01*
X375555Y411149D01*
X374306Y412776D01*
X372679Y414025D01*
X370784Y414809D01*
X368750Y415077D01*
D02*
G37*
G36*
X503290Y147480D02*
X496520D01*
Y142960D01*
X503290D01*
Y147480D01*
D02*
G37*
G36*
X493980D02*
X487210D01*
Y142960D01*
X493980D01*
Y147480D01*
D02*
G37*
G36*
X138250Y164290D02*
X135710D01*
Y151250D01*
X138250D01*
Y164290D01*
D02*
G37*
G36*
X206250Y208913D02*
X205000D01*
Y200750D01*
X212663D01*
Y202500D01*
X212175Y204954D01*
X210785Y207035D01*
X208704Y208425D01*
X206250Y208913D01*
D02*
G37*
G36*
X155790Y164290D02*
X153250D01*
Y151250D01*
X155790D01*
Y164290D01*
D02*
G37*
G36*
X478250Y405859D02*
X477750D01*
Y395250D01*
X486359D01*
Y397750D01*
X486083Y399849D01*
X485273Y401805D01*
X483984Y403484D01*
X482305Y404773D01*
X480349Y405583D01*
X478250Y405859D01*
D02*
G37*
G36*
X216500Y411500D02*
X208895D01*
Y411500D01*
X209154Y409532D01*
X209914Y407697D01*
X211122Y406122D01*
X212697Y404914D01*
X214532Y404154D01*
X216500Y403895D01*
X216500D01*
Y411500D01*
D02*
G37*
G36*
X168655Y178162D02*
X168455D01*
Y173225D01*
X173672D01*
X173308Y175053D01*
X172216Y176687D01*
X170582Y177778D01*
X168655Y178162D01*
D02*
G37*
G36*
X341273Y193500D02*
X338125D01*
Y185007D01*
X339619Y186006D01*
X340844Y187838D01*
X341273Y190000D01*
Y193500D01*
D02*
G37*
G36*
X185045Y187687D02*
X184845D01*
X182917Y187303D01*
X181283Y186212D01*
X180192Y184578D01*
X179828Y182750D01*
X185045D01*
Y187687D01*
D02*
G37*
G36*
X245125Y193500D02*
X241977D01*
Y190000D01*
X242406Y187838D01*
X243631Y186006D01*
X245125Y185008D01*
Y193500D01*
D02*
G37*
G36*
X467750Y405859D02*
X467250D01*
X465151Y405583D01*
X463195Y404773D01*
X461516Y403484D01*
X460227Y401805D01*
X459417Y399849D01*
X459141Y397750D01*
Y395250D01*
X467750D01*
Y405859D01*
D02*
G37*
G36*
X185045Y177750D02*
X179828D01*
X180192Y175923D01*
X181283Y174289D01*
X182917Y173197D01*
X184845Y172813D01*
X185045D01*
Y177750D01*
D02*
G37*
G36*
X155807Y172130D02*
X151250D01*
Y167773D01*
X152945Y168111D01*
X154488Y169142D01*
X155519Y170685D01*
X155807Y172130D01*
D02*
G37*
G36*
X163455Y178162D02*
X163255D01*
X161327Y177778D01*
X159693Y176687D01*
X158602Y175053D01*
X158238Y173225D01*
X163455D01*
Y178162D01*
D02*
G37*
G36*
X195262Y177750D02*
X190045D01*
Y172813D01*
X190245D01*
X192172Y173197D01*
X193806Y174289D01*
X194898Y175923D01*
X195262Y177750D01*
D02*
G37*
G36*
X95040Y195750D02*
X87000D01*
Y187210D01*
X95040D01*
Y195750D01*
D02*
G37*
G36*
X131500Y41227D02*
X129805Y40889D01*
X128262Y39858D01*
X127231Y38315D01*
X126943Y36870D01*
X131500D01*
Y41227D01*
D02*
G37*
G36*
X628860Y41881D02*
X628005D01*
X626185Y41519D01*
X624642Y40488D01*
X623611Y38945D01*
X623249Y37125D01*
Y36020D01*
X628860D01*
Y41881D01*
D02*
G37*
G36*
X651245Y427381D02*
X650390D01*
Y421520D01*
X656001D01*
Y422625D01*
X655639Y424445D01*
X654608Y425988D01*
X653065Y427019D01*
X651245Y427381D01*
D02*
G37*
G36*
X226500Y429105D02*
X226500D01*
Y421500D01*
X234105D01*
Y421500D01*
X233846Y423468D01*
X233086Y425303D01*
X231878Y426878D01*
X230303Y428086D01*
X228468Y428846D01*
X226500Y429105D01*
D02*
G37*
G36*
X210855Y45230D02*
X200729D01*
X200907Y44338D01*
X202131Y42506D01*
X203963Y41281D01*
X206125Y40851D01*
X210855D01*
Y45230D01*
D02*
G37*
G36*
X612520Y47366D02*
Y37270D01*
X615369D01*
Y43500D01*
X615056Y45076D01*
X614163Y46413D01*
X612826Y47306D01*
X612520Y47366D01*
D02*
G37*
G36*
X652251Y33480D02*
X646640D01*
Y27619D01*
X647495D01*
X649315Y27981D01*
X650858Y29012D01*
X651889Y30555D01*
X652251Y32375D01*
Y33480D01*
D02*
G37*
G36*
X156750Y27000D02*
X148141D01*
Y24500D01*
X148417Y22401D01*
X149227Y20445D01*
X150516Y18766D01*
X152195Y17477D01*
X154151Y16667D01*
X156250Y16391D01*
X156750D01*
Y27000D01*
D02*
G37*
G36*
X428405Y21412D02*
X426975D01*
Y15245D01*
X433442D01*
Y16375D01*
X433058Y18303D01*
X431967Y19936D01*
X430332Y21028D01*
X428405Y21412D01*
D02*
G37*
G36*
X141057Y16630D02*
X136500D01*
Y12273D01*
X138195Y12611D01*
X139738Y13642D01*
X140769Y15185D01*
X141057Y16630D01*
D02*
G37*
G36*
X136500Y25986D02*
Y21630D01*
X141057D01*
X140769Y23075D01*
X139738Y24618D01*
X138195Y25649D01*
X136500Y25986D01*
D02*
G37*
G36*
X245125Y28992D02*
X243631Y27994D01*
X242406Y26161D01*
X241977Y24000D01*
Y20500D01*
X245125D01*
Y28992D01*
D02*
G37*
G36*
X175359Y27000D02*
X166750D01*
Y16391D01*
X167250D01*
X169349Y16667D01*
X171305Y17477D01*
X172984Y18766D01*
X174273Y20445D01*
X175083Y22401D01*
X175359Y24500D01*
Y27000D01*
D02*
G37*
G36*
X155790Y136250D02*
X153250D01*
Y123210D01*
X155790D01*
Y136250D01*
D02*
G37*
G36*
X138250D02*
X135710D01*
Y123210D01*
X138250D01*
Y136250D01*
D02*
G37*
G36*
X316980Y428141D02*
X312175D01*
X309965Y427701D01*
X308091Y426449D01*
X306839Y424575D01*
X306399Y422365D01*
Y420510D01*
X316980D01*
Y428141D01*
D02*
G37*
G36*
X126057Y138807D02*
X117500D01*
Y131750D01*
X119950D01*
X122287Y132215D01*
X124269Y133539D01*
X125592Y135520D01*
X126057Y137858D01*
Y138807D01*
D02*
G37*
G36*
X194790Y136250D02*
X192250D01*
Y123210D01*
X194790D01*
Y136250D01*
D02*
G37*
G36*
X177250D02*
X174710D01*
Y123210D01*
X177250D01*
Y136250D01*
D02*
G37*
G36*
X166173Y109230D02*
X157885D01*
Y105550D01*
X158350Y103213D01*
X159674Y101231D01*
X161655Y99908D01*
X163993Y99443D01*
X166173D01*
Y109230D01*
D02*
G37*
G36*
X175359Y77000D02*
X166750D01*
Y66391D01*
X167250D01*
X169349Y66667D01*
X171305Y67477D01*
X172984Y68766D01*
X174273Y70445D01*
X175083Y72401D01*
X175359Y74500D01*
Y77000D01*
D02*
G37*
G36*
X474540Y70480D02*
X467770D01*
Y65960D01*
X474540D01*
Y70480D01*
D02*
G37*
G36*
X216500Y429105D02*
X216500D01*
X214532Y428846D01*
X212697Y428086D01*
X211122Y426878D01*
X209914Y425303D01*
X209154Y423468D01*
X208895Y421500D01*
Y421500D01*
X216500D01*
Y429105D01*
D02*
G37*
G36*
X76540Y93480D02*
X64020D01*
Y89710D01*
X76540D01*
Y93480D01*
D02*
G37*
G36*
X61480D02*
X48960D01*
Y89710D01*
X61480D01*
Y93480D01*
D02*
G37*
G36*
X35500Y97828D02*
X33150Y97518D01*
X30961Y96611D01*
X29081Y95169D01*
X27638Y93289D01*
X26732Y91100D01*
X26422Y88750D01*
X26732Y86400D01*
X27638Y84211D01*
X29081Y82331D01*
X30961Y80889D01*
X33150Y79982D01*
X35500Y79672D01*
X37850Y79982D01*
X40039Y80889D01*
X41919Y82331D01*
X43361Y84211D01*
X44268Y86400D01*
X44578Y88750D01*
X44268Y91100D01*
X43361Y93289D01*
X41919Y95169D01*
X40039Y96611D01*
X37850Y97518D01*
X35500Y97828D01*
D02*
G37*
G36*
X513730Y358730D02*
X501391D01*
Y352500D01*
X501667Y350401D01*
X502477Y348445D01*
X503766Y346766D01*
X505445Y345477D01*
X507401Y344667D01*
X509500Y344391D01*
X513730D01*
Y358730D01*
D02*
G37*
G36*
X238680Y348590D02*
X229910D01*
Y343320D01*
X238680D01*
Y348590D01*
D02*
G37*
G36*
X719388Y346230D02*
X705720D01*
Y339895D01*
X711950D01*
X713918Y340154D01*
X715752Y340914D01*
X717328Y342122D01*
X718536Y343698D01*
X719296Y345532D01*
X719388Y346230D01*
D02*
G37*
G36*
X467750Y355859D02*
X467250D01*
X465151Y355583D01*
X463195Y354773D01*
X461516Y353484D01*
X460227Y351805D01*
X459417Y349849D01*
X459141Y347750D01*
Y345250D01*
X467750D01*
Y355859D01*
D02*
G37*
G36*
X301912Y351275D02*
X295745D01*
Y344808D01*
X296875D01*
X298803Y345192D01*
X300436Y346283D01*
X301528Y347918D01*
X301912Y349845D01*
Y351275D01*
D02*
G37*
G36*
X528609Y358730D02*
X516270D01*
Y344391D01*
X520500D01*
X522599Y344667D01*
X524555Y345477D01*
X526234Y346766D01*
X527523Y348445D01*
X528333Y350401D01*
X528609Y352500D01*
Y358730D01*
D02*
G37*
G36*
X703180Y346230D02*
X689512D01*
X689604Y345532D01*
X690364Y343698D01*
X691572Y342122D01*
X693148Y340914D01*
X694982Y340154D01*
X696950Y339895D01*
X703180D01*
Y346230D01*
D02*
G37*
G36*
X12730Y336251D02*
X11625D01*
X9805Y335889D01*
X8262Y334858D01*
X7231Y333315D01*
X6869Y331495D01*
Y330640D01*
X12730D01*
Y336251D01*
D02*
G37*
G36*
X64090Y335890D02*
X55320D01*
Y330620D01*
X64090D01*
Y335890D01*
D02*
G37*
G36*
X52780D02*
X44010D01*
Y330620D01*
X52780D01*
Y335890D01*
D02*
G37*
G36*
X35750Y361117D02*
X32355Y360670D01*
X29191Y359360D01*
X26475Y357275D01*
X24390Y354559D01*
X23080Y351395D01*
X22633Y348000D01*
X23080Y344605D01*
X24390Y341441D01*
X26475Y338725D01*
X29191Y336640D01*
X32355Y335330D01*
X35750Y334883D01*
X39145Y335330D01*
X42309Y336640D01*
X45025Y338725D01*
X47110Y341441D01*
X48420Y344605D01*
X48867Y348000D01*
X48420Y351395D01*
X47110Y354559D01*
X45025Y357275D01*
X42309Y359360D01*
X39145Y360670D01*
X35750Y361117D01*
D02*
G37*
G36*
X514250Y391270D02*
X512065Y390365D01*
X510124Y388876D01*
X508635Y386935D01*
X507730Y384750D01*
X514250D01*
Y391270D01*
D02*
G37*
G36*
X16375Y336251D02*
X15270D01*
Y330640D01*
X21131D01*
Y331495D01*
X20769Y333315D01*
X19738Y334858D01*
X18195Y335889D01*
X16375Y336251D01*
D02*
G37*
G36*
X200000Y381750D02*
X191960D01*
Y373210D01*
X200000D01*
Y381750D01*
D02*
G37*
G36*
X95096Y381750D02*
X87000D01*
Y373154D01*
X88500D01*
X90207Y373378D01*
X91798Y374037D01*
X93164Y375086D01*
X94213Y376452D01*
X94872Y378043D01*
X95096Y379750D01*
Y381750D01*
D02*
G37*
G36*
X82000D02*
X73903D01*
Y379750D01*
X74128Y378043D01*
X74787Y376452D01*
X75836Y375086D01*
X77202Y374037D01*
X78793Y373378D01*
X80500Y373154D01*
X82000D01*
Y381750D01*
D02*
G37*
G36*
X541770Y379750D02*
X535250D01*
Y373230D01*
X537435Y374135D01*
X539376Y375624D01*
X540865Y377565D01*
X541770Y379750D01*
D02*
G37*
G36*
X519250Y391270D02*
Y382250D01*
X516750D01*
Y379750D01*
X507730D01*
X508635Y377565D01*
X509185Y376849D01*
X508623Y375494D01*
X507401Y375333D01*
X505445Y374523D01*
X503766Y373234D01*
X502477Y371555D01*
X501667Y369599D01*
X501391Y367500D01*
Y361270D01*
X515000D01*
X528609D01*
Y367500D01*
X528333Y369599D01*
X527523Y371555D01*
X526234Y373234D01*
X524692Y374417D01*
X524499Y374998D01*
X524401Y375841D01*
X525972Y375823D01*
X526124Y375624D01*
X528065Y374135D01*
X530250Y373230D01*
Y382250D01*
Y391270D01*
X528065Y390365D01*
X526124Y388876D01*
X525385Y387912D01*
X524115D01*
X523376Y388876D01*
X521435Y390365D01*
X519250Y391270D01*
D02*
G37*
G36*
X213040Y381750D02*
X205000D01*
Y373210D01*
X213040D01*
Y381750D01*
D02*
G37*
G36*
X444230Y380251D02*
X443125D01*
X441305Y379889D01*
X439762Y378858D01*
X438731Y377315D01*
X438369Y375495D01*
Y374640D01*
X444230D01*
Y380251D01*
D02*
G37*
G36*
X711950Y355105D02*
X705720D01*
Y348770D01*
X719388D01*
X719296Y349468D01*
X718536Y351302D01*
X717328Y352878D01*
X715752Y354086D01*
X713918Y354846D01*
X711950Y355105D01*
D02*
G37*
G36*
X703180D02*
X696950D01*
X694982Y354846D01*
X693148Y354086D01*
X691572Y352878D01*
X690364Y351302D01*
X689604Y349468D01*
X689512Y348770D01*
X703180D01*
Y355105D01*
D02*
G37*
G36*
X478250Y355859D02*
X477750D01*
Y345250D01*
X486359D01*
Y347750D01*
X486083Y349849D01*
X485273Y351805D01*
X483984Y353484D01*
X482305Y354773D01*
X480349Y355583D01*
X478250Y355859D01*
D02*
G37*
G36*
X486359Y385250D02*
X477750D01*
Y374641D01*
X478250D01*
X480349Y374917D01*
X482305Y375727D01*
X483984Y377016D01*
X485273Y378695D01*
X486083Y380651D01*
X486359Y382750D01*
Y385250D01*
D02*
G37*
G36*
X535250Y391270D02*
Y384750D01*
X541770D01*
X540865Y386935D01*
X539376Y388876D01*
X537435Y390365D01*
X535250Y391270D01*
D02*
G37*
G36*
X368750Y369357D02*
X368500D01*
Y361250D01*
X376607D01*
Y361500D01*
X376339Y363534D01*
X375555Y365429D01*
X374306Y367056D01*
X372679Y368305D01*
X370784Y369090D01*
X368750Y369357D01*
D02*
G37*
G36*
X406250Y280500D02*
X400460D01*
Y251460D01*
X406250D01*
Y280500D01*
D02*
G37*
G36*
X364750Y285500D02*
X353960D01*
Y251460D01*
X364750D01*
Y285500D01*
D02*
G37*
G36*
X388493Y229980D02*
X373507D01*
Y229751D01*
X372237Y229072D01*
X371765Y229388D01*
X369765Y229785D01*
X366520D01*
Y221975D01*
Y214165D01*
X367696D01*
X368632Y212895D01*
X368449Y211510D01*
X368724Y209422D01*
X369530Y207476D01*
X370813Y205805D01*
X372484Y204522D01*
X374430Y203716D01*
X376518Y203441D01*
X378607Y203716D01*
X380553Y204522D01*
X382224Y205805D01*
X383506Y207476D01*
X384312Y209422D01*
X384587Y211510D01*
X384571Y211633D01*
X384965Y212027D01*
X386181Y213846D01*
X386474Y215322D01*
X388953D01*
Y228180D01*
X388493D01*
Y229980D01*
D02*
G37*
G36*
X406250Y329540D02*
X400460D01*
Y300500D01*
X406250D01*
Y329540D01*
D02*
G37*
G36*
X306650Y302411D02*
X301850D01*
X299743Y301992D01*
X297957Y300798D01*
X296763Y299012D01*
X296344Y296905D01*
Y291505D01*
X296763Y289398D01*
X297957Y287612D01*
X299743Y286418D01*
X301850Y285999D01*
X306650D01*
X308757Y286418D01*
X310543Y287612D01*
X311327Y287741D01*
X312010Y287217D01*
X313957Y286411D01*
X316045Y286136D01*
X318133Y286411D01*
X320079Y287217D01*
X321751Y288499D01*
X323033Y290170D01*
X323839Y292117D01*
X324114Y294205D01*
X323839Y296293D01*
X323033Y298239D01*
X321751Y299911D01*
X320079Y301193D01*
X318133Y301999D01*
X316045Y302274D01*
X313957Y301999D01*
X312010Y301193D01*
X311327Y300669D01*
X310543Y300798D01*
X308757Y301992D01*
X306650Y302411D01*
D02*
G37*
G36*
X432040Y280500D02*
X426250D01*
Y251460D01*
X432040D01*
Y280500D01*
D02*
G37*
G36*
X346005Y234442D02*
X344875D01*
X342948Y234058D01*
X341314Y232966D01*
X340222Y231332D01*
X339838Y229405D01*
Y227975D01*
X346005D01*
Y234442D01*
D02*
G37*
G36*
X376607Y396970D02*
X368500D01*
Y388863D01*
X368750D01*
X370784Y389131D01*
X372679Y389916D01*
X374306Y391164D01*
X375555Y392791D01*
X376339Y394686D01*
X376607Y396720D01*
Y396970D01*
D02*
G37*
G36*
X402610Y213131D02*
X401755D01*
X399935Y212769D01*
X398392Y211738D01*
X397361Y210195D01*
X396999Y208375D01*
Y207270D01*
X402610D01*
Y213131D01*
D02*
G37*
G36*
X137500Y225569D02*
X72470D01*
X70382Y225294D01*
X68436Y224488D01*
X66764Y223206D01*
X54514Y210956D01*
X53232Y209284D01*
X52426Y207338D01*
X52151Y205250D01*
Y196012D01*
X50809Y195456D01*
X49086Y194134D01*
X47764Y192411D01*
X46932Y190404D01*
X46649Y188250D01*
Y177750D01*
X46932Y175596D01*
X47764Y173589D01*
X49086Y171866D01*
X50809Y170544D01*
X52816Y169712D01*
X54970Y169429D01*
X65470D01*
X67624Y169712D01*
X69631Y170544D01*
X71354Y171866D01*
X72676Y173589D01*
X73508Y175596D01*
X73791Y177750D01*
Y186010D01*
X73810Y186145D01*
X74337Y187210D01*
X74337Y187210D01*
X82000D01*
Y198250D01*
X84500D01*
Y200750D01*
X95040D01*
Y209290D01*
X96252Y209431D01*
X134158D01*
X139294Y204294D01*
X140965Y203012D01*
X142912Y202206D01*
X145000Y201931D01*
X147088Y202206D01*
X149035Y203012D01*
X150706Y204294D01*
X151988Y205965D01*
X152794Y207912D01*
X153069Y210000D01*
X152794Y212088D01*
X151988Y214035D01*
X150706Y215706D01*
X143206Y223206D01*
X141535Y224488D01*
X139588Y225294D01*
X137500Y225569D01*
D02*
G37*
G36*
X426515Y228285D02*
X423270D01*
Y221745D01*
X431740D01*
Y223060D01*
X431343Y225060D01*
X430210Y226755D01*
X428515Y227888D01*
X426515Y228285D01*
D02*
G37*
G36*
X346005Y225435D02*
X339838D01*
Y224005D01*
X340222Y222078D01*
X341314Y220443D01*
X342948Y219352D01*
X344875Y218968D01*
X346005D01*
Y225435D01*
D02*
G37*
G36*
X349675Y234442D02*
X348545D01*
Y226705D01*
Y218968D01*
X349675D01*
X351603Y219352D01*
X353237Y220443D01*
X353564Y220934D01*
X355282Y221218D01*
X355510Y221044D01*
Y219390D01*
X355907Y217390D01*
X357040Y215695D01*
X358735Y214562D01*
X360735Y214165D01*
X363980D01*
Y221975D01*
Y229785D01*
X360735D01*
X358735Y229388D01*
X357040Y228255D01*
X356646Y227665D01*
X354920Y227348D01*
X354712Y227495D01*
Y229405D01*
X354328Y231332D01*
X353237Y232966D01*
X351603Y234058D01*
X349675Y234442D01*
D02*
G37*
G36*
X443980Y329610D02*
X438119D01*
Y328755D01*
X438481Y326935D01*
X439512Y325392D01*
X441055Y324361D01*
X442875Y323999D01*
X443980D01*
Y329610D01*
D02*
G37*
G36*
X674980Y332540D02*
X663710D01*
Y321270D01*
X674980D01*
Y332540D01*
D02*
G37*
G36*
X205000Y395290D02*
Y386750D01*
X213040D01*
Y395290D01*
X205000D01*
D02*
G37*
G36*
X486359Y335250D02*
X477750D01*
Y324641D01*
X478250D01*
X480349Y324917D01*
X482305Y325727D01*
X483984Y327016D01*
X485273Y328695D01*
X486083Y330651D01*
X486359Y332750D01*
Y335250D01*
D02*
G37*
G36*
X467750D02*
X459141D01*
Y332750D01*
X459417Y330651D01*
X460227Y328695D01*
X461516Y327016D01*
X463195Y325727D01*
X465151Y324917D01*
X467250Y324641D01*
X467750D01*
Y335250D01*
D02*
G37*
G36*
X452381Y329610D02*
X446520D01*
Y323999D01*
X447625D01*
X449445Y324361D01*
X450988Y325392D01*
X452019Y326935D01*
X452381Y328755D01*
Y329610D01*
D02*
G37*
G36*
X261625Y324282D02*
X260495D01*
Y317815D01*
X266662D01*
Y319245D01*
X266278Y321172D01*
X265187Y322807D01*
X263552Y323898D01*
X261625Y324282D01*
D02*
G37*
G36*
X302162Y314525D02*
X295995D01*
Y308058D01*
X297125D01*
X299052Y308442D01*
X300686Y309534D01*
X301778Y311168D01*
X302162Y313095D01*
Y314525D01*
D02*
G37*
G36*
X674980Y318730D02*
X663710D01*
Y307460D01*
X674980D01*
Y318730D01*
D02*
G37*
G36*
X432040Y329540D02*
X426250D01*
Y300500D01*
X432040D01*
Y329540D01*
D02*
G37*
G36*
X467779Y321975D02*
X466084Y321637D01*
X464541Y320606D01*
X463510Y319063D01*
X463223Y317618D01*
X467779D01*
Y321975D01*
D02*
G37*
G36*
X266662Y315275D02*
X260495D01*
Y308808D01*
X261625D01*
X263552Y309192D01*
X265187Y310284D01*
X266278Y311918D01*
X266662Y313845D01*
Y315275D01*
D02*
G37*
G36*
X467779Y312618D02*
X463223D01*
X463510Y311173D01*
X464541Y309630D01*
X466084Y308599D01*
X467779Y308262D01*
Y312618D01*
D02*
G37*
%LPD*%
D10*
X161750Y82000D02*
D03*
Y32000D02*
D03*
X472750Y340250D02*
D03*
Y390250D02*
D03*
X515000Y310000D02*
D03*
Y360000D02*
D03*
D11*
X25500Y262000D02*
D03*
X19000D02*
D03*
X12500D02*
D03*
Y281000D02*
D03*
X19000D02*
D03*
X25500D02*
D03*
D12*
X14000Y314130D02*
D03*
Y329370D02*
D03*
X456000Y145120D02*
D03*
Y129880D02*
D03*
X259750Y335630D02*
D03*
Y350870D02*
D03*
X181750Y95880D02*
D03*
Y111120D02*
D03*
X134000Y34370D02*
D03*
Y19130D02*
D03*
Y189870D02*
D03*
Y174630D02*
D03*
X692250Y121370D02*
D03*
Y106130D02*
D03*
X692000Y142880D02*
D03*
Y158120D02*
D03*
X604000Y177630D02*
D03*
Y192870D02*
D03*
X648750Y75380D02*
D03*
Y90620D02*
D03*
X278250Y335630D02*
D03*
Y350870D02*
D03*
X282000Y255880D02*
D03*
Y271120D02*
D03*
X267500Y255630D02*
D03*
Y270870D02*
D03*
X296500Y237630D02*
D03*
Y252870D02*
D03*
X411750Y74880D02*
D03*
Y90120D02*
D03*
X148750Y174630D02*
D03*
Y189870D02*
D03*
X649000Y45630D02*
D03*
Y60870D02*
D03*
X470000Y249870D02*
D03*
Y234630D02*
D03*
X675750Y162870D02*
D03*
Y147630D02*
D03*
X692250Y94370D02*
D03*
Y79130D02*
D03*
X732500Y14380D02*
D03*
Y29620D02*
D03*
X589500Y192870D02*
D03*
Y177630D02*
D03*
X445500Y358130D02*
D03*
Y373370D02*
D03*
X445250Y330880D02*
D03*
Y346120D02*
D03*
X670000Y90870D02*
D03*
Y75630D02*
D03*
X548500Y421620D02*
D03*
Y406380D02*
D03*
X450500Y80620D02*
D03*
Y65380D02*
D03*
X515500Y14130D02*
D03*
Y29370D02*
D03*
X673500Y373630D02*
D03*
Y388870D02*
D03*
X434500Y80620D02*
D03*
Y65380D02*
D03*
X633870Y406370D02*
D03*
Y391130D02*
D03*
X132500Y95870D02*
D03*
Y80630D02*
D03*
X313750Y250130D02*
D03*
Y265370D02*
D03*
X470279Y299878D02*
D03*
Y315118D02*
D03*
D13*
X184750Y143750D02*
D03*
X145750D02*
D03*
D14*
X490630Y238000D02*
D03*
X505870D02*
D03*
X672370Y116750D02*
D03*
X657130D02*
D03*
X677370Y58000D02*
D03*
X662130D02*
D03*
X403880Y206000D02*
D03*
X419120D02*
D03*
X532370Y236750D02*
D03*
X517130D02*
D03*
X502380Y44000D02*
D03*
X517620D02*
D03*
X614620Y166750D02*
D03*
X599380D02*
D03*
X645370Y34750D02*
D03*
X630130D02*
D03*
X540120Y166250D02*
D03*
X524880D02*
D03*
X372870Y336000D02*
D03*
X357630D02*
D03*
X314620Y226250D02*
D03*
X299380D02*
D03*
X284370Y243250D02*
D03*
X269130D02*
D03*
X527370Y251250D02*
D03*
X512130D02*
D03*
X387380Y50500D02*
D03*
X402620D02*
D03*
X498370Y168250D02*
D03*
X483130D02*
D03*
X412630Y101500D02*
D03*
X427870D02*
D03*
X456880Y168250D02*
D03*
X472120D02*
D03*
X692870Y175500D02*
D03*
X677630D02*
D03*
X692870Y192250D02*
D03*
X677630D02*
D03*
X635120Y192250D02*
D03*
X619880D02*
D03*
X661370Y192500D02*
D03*
X646130D02*
D03*
X529130Y17750D02*
D03*
X544370D02*
D03*
X452620Y92000D02*
D03*
X437380D02*
D03*
X649120Y420250D02*
D03*
X633880D02*
D03*
Y375000D02*
D03*
X649120D02*
D03*
X646250Y405250D02*
D03*
X661490D02*
D03*
X646250Y390250D02*
D03*
X661490D02*
D03*
X497120Y290000D02*
D03*
X481880D02*
D03*
D15*
X425705Y13975D02*
D03*
X447295Y23500D02*
D03*
X425705Y33025D02*
D03*
X389955Y13975D02*
D03*
X411545Y23500D02*
D03*
X389955Y33025D02*
D03*
X165955Y170725D02*
D03*
X187545Y180250D02*
D03*
X165955Y189775D02*
D03*
X499795Y33025D02*
D03*
X478205Y23500D02*
D03*
X499795Y13975D02*
D03*
X497795Y255475D02*
D03*
X476205Y265000D02*
D03*
X497795Y274525D02*
D03*
D16*
X727250Y421750D02*
D03*
X35750Y348000D02*
D03*
X9750Y16000D02*
D03*
X291264Y265013D02*
D03*
X326266Y248262D02*
D03*
X257500Y271000D02*
D03*
X48250Y222000D02*
D03*
X38250D02*
D03*
X489086Y22367D02*
D03*
X617250Y217000D02*
D03*
X538000Y211000D02*
D03*
X616750Y272500D02*
D03*
Y297000D02*
D03*
X617250Y242500D02*
D03*
X584278Y301265D02*
D03*
X619250Y204000D02*
D03*
X628250Y309750D02*
D03*
X559750Y186750D02*
D03*
X101000Y41750D02*
D03*
X298750Y75000D02*
D03*
X137750Y45500D02*
D03*
X566528Y53753D02*
D03*
X590029Y67503D02*
D03*
X579778Y81504D02*
D03*
X592750Y55000D02*
D03*
X535000Y58750D02*
D03*
X670533Y48752D02*
D03*
X660084Y74055D02*
D03*
X659282Y91255D02*
D03*
X657500Y32000D02*
D03*
X673783Y28751D02*
D03*
X662000Y303000D02*
D03*
X662250Y267750D02*
D03*
X159250Y128250D02*
D03*
X447750Y222750D02*
D03*
X485024Y275763D02*
D03*
Y254512D02*
D03*
X433250Y163000D02*
D03*
X419771Y163008D02*
D03*
X432000Y138500D02*
D03*
X341767Y123256D02*
D03*
X354500Y123750D02*
D03*
X444000Y180000D02*
D03*
X292250Y302500D02*
D03*
X280250Y295000D02*
D03*
X316045Y294205D02*
D03*
X313500Y276250D02*
D03*
X395250Y268750D02*
D03*
X391769Y244012D02*
D03*
X108500Y15750D02*
D03*
X389500Y209500D02*
D03*
X131000Y150000D02*
D03*
X132250Y160250D02*
D03*
X170000Y150000D02*
D03*
X369500Y189750D02*
D03*
X418500Y136000D02*
D03*
X395000Y280750D02*
D03*
X392250Y231000D02*
D03*
X395250Y257250D02*
D03*
X576000Y322250D02*
D03*
X496500Y302000D02*
D03*
X570000Y291250D02*
D03*
X304000Y426000D02*
D03*
X106000Y195750D02*
D03*
X352750Y102750D02*
D03*
X382769Y194009D02*
D03*
X376518Y211510D02*
D03*
X145000Y210000D02*
D03*
X197000Y143750D02*
D03*
X170000Y140000D02*
D03*
X92000Y33000D02*
D03*
X349000Y425250D02*
D03*
X266250Y424750D02*
D03*
X279750Y35250D02*
D03*
X278750Y50250D02*
D03*
X294750Y35500D02*
D03*
X385019Y135257D02*
D03*
X237000Y196500D02*
D03*
X269750Y177000D02*
D03*
X269500Y222500D02*
D03*
X255000Y252500D02*
D03*
X660250Y180500D02*
D03*
X663408Y146929D02*
D03*
X185750Y316250D02*
D03*
X132500Y375000D02*
D03*
X121000Y348750D02*
D03*
X140500Y349000D02*
D03*
X151750Y376750D02*
D03*
X110750Y358750D02*
D03*
X661250Y423500D02*
D03*
X188750Y247000D02*
D03*
X176750Y212000D02*
D03*
X224500Y252250D02*
D03*
X88250Y358250D02*
D03*
X167750Y352750D02*
D03*
X68500Y316750D02*
D03*
X103750Y375250D02*
D03*
X661032Y377768D02*
D03*
X692000Y232500D02*
D03*
X333266Y46002D02*
D03*
X329000Y117250D02*
D03*
X223000Y391750D02*
D03*
X303500Y363500D02*
D03*
X267250Y369500D02*
D03*
X222750Y371750D02*
D03*
X323500Y305000D02*
D03*
X325750Y261000D02*
D03*
X492500Y387500D02*
D03*
X445000Y384500D02*
D03*
X492500Y375000D02*
D03*
X396000Y380250D02*
D03*
X410500Y380000D02*
D03*
X424750D02*
D03*
X217750Y263250D02*
D03*
X640781Y161258D02*
D03*
X651000Y205000D02*
D03*
X610500Y86750D02*
D03*
X539276Y104255D02*
D03*
X546488Y130500D02*
D03*
X534776Y116756D02*
D03*
X557277Y112255D02*
D03*
X584000Y114750D02*
D03*
X606530Y111756D02*
D03*
X567278Y66253D02*
D03*
X612750Y123213D02*
D03*
X609500Y99250D02*
D03*
X602529Y69753D02*
D03*
X571500Y110659D02*
D03*
X567278Y79004D02*
D03*
X349750Y82000D02*
D03*
X312250Y98569D02*
D03*
X323000Y63500D02*
D03*
X349750Y64500D02*
D03*
X316515Y329516D02*
D03*
X672750Y413500D02*
D03*
X621250Y368750D02*
D03*
X178500Y238250D02*
D03*
X183250Y345500D02*
D03*
X222250Y342000D02*
D03*
X395250Y81500D02*
D03*
X719000Y203500D02*
D03*
X732000Y108500D02*
D03*
X288000Y326250D02*
D03*
X303250Y343750D02*
D03*
X268750Y326250D02*
D03*
X217750Y305250D02*
D03*
X68250Y332000D02*
D03*
X197000Y329250D02*
D03*
X204000Y248250D02*
D03*
X102500Y245250D02*
D03*
X124500Y289000D02*
D03*
X112500Y266500D02*
D03*
X346250Y40500D02*
D03*
X166000Y200750D02*
D03*
X485500Y205750D02*
D03*
X182000Y382500D02*
D03*
X485500Y218250D02*
D03*
X638500Y356250D02*
D03*
X212250Y317500D02*
D03*
X161750Y316000D02*
D03*
X69500Y301500D02*
D03*
X76500Y255500D02*
D03*
X133000Y255750D02*
D03*
X130250Y277000D02*
D03*
X672750Y211500D02*
D03*
X649250Y238000D02*
D03*
X612530Y177759D02*
D03*
X582750Y370750D02*
D03*
X583250Y389750D02*
D03*
X633250Y333750D02*
D03*
X593000Y344000D02*
D03*
X545250Y372250D02*
D03*
X658250Y351000D02*
D03*
X93000Y339750D02*
D03*
X105000Y316000D02*
D03*
X438500Y426000D02*
D03*
X204250D02*
D03*
X671533Y104505D02*
D03*
X692000Y132250D02*
D03*
X685250Y68000D02*
D03*
X718250Y83750D02*
D03*
X462523Y58253D02*
D03*
X487195Y34867D02*
D03*
X489274Y57054D02*
D03*
X346267Y16251D02*
D03*
X361018Y26955D02*
D03*
X373518Y27001D02*
D03*
X484750Y141250D02*
D03*
X471000Y119750D02*
D03*
X422271Y82504D02*
D03*
X425771Y54003D02*
D03*
X509250Y168750D02*
D03*
X630250Y231500D02*
D03*
X559267Y130267D02*
D03*
X465750Y14000D02*
D03*
X459272Y33252D02*
D03*
X458272Y45752D02*
D03*
X527526Y32502D02*
D03*
X167750Y381750D02*
D03*
X319500Y375750D02*
D03*
X619500Y40500D02*
D03*
X184750Y398750D02*
D03*
X38000Y294000D02*
D03*
X159500Y425000D02*
D03*
X460000Y367500D02*
D03*
X497500Y332500D02*
D03*
X456942Y239692D02*
D03*
X460000Y267500D02*
D03*
X533276Y329766D02*
D03*
X530250Y276250D02*
D03*
X568250Y257750D02*
D03*
X544120Y233400D02*
D03*
X576750Y228500D02*
D03*
X583279Y210260D02*
D03*
X624500Y343750D02*
D03*
X627500Y252000D02*
D03*
X627750Y265500D02*
D03*
X659782Y230761D02*
D03*
X684500Y347500D02*
D03*
X724500Y347750D02*
D03*
X643250Y276500D02*
D03*
X622250Y285500D02*
D03*
X654000Y327500D02*
D03*
X729500Y320750D02*
D03*
X729250Y284750D02*
D03*
X730000Y250500D02*
D03*
X143250Y424500D02*
D03*
X589000Y313250D02*
D03*
X640000Y289000D02*
D03*
X58250Y222000D02*
D03*
X194500Y46250D02*
D03*
X193250Y68500D02*
D03*
X122000Y29250D02*
D03*
X129500Y68500D02*
D03*
X115250Y187000D02*
D03*
X149750Y109500D02*
D03*
X143250Y88000D02*
D03*
X143000Y75500D02*
D03*
D17*
X674275Y133750D02*
D03*
X655225D02*
D03*
X630725Y173750D02*
D03*
X649775D02*
D03*
D18*
X365250Y221975D02*
D03*
Y241025D02*
D03*
X422000Y220475D02*
D03*
Y239525D02*
D03*
D19*
X318250Y388760D02*
D03*
Y419240D02*
D03*
D20*
X335625Y18000D02*
D03*
X324625D02*
D03*
X313625D02*
D03*
X302625D02*
D03*
X280625D02*
D03*
X269625D02*
D03*
X258625D02*
D03*
X247625D02*
D03*
X247625Y196000D02*
D03*
X258625D02*
D03*
X269625D02*
D03*
X280625D02*
D03*
X291625D02*
D03*
X302625D02*
D03*
X313625D02*
D03*
X335625D02*
D03*
D21*
X212125Y46500D02*
D03*
Y57500D02*
D03*
Y68500D02*
D03*
Y79500D02*
D03*
Y101500D02*
D03*
Y112500D02*
D03*
Y167500D02*
D03*
X370875D02*
D03*
Y123500D02*
D03*
Y57500D02*
D03*
Y46500D02*
D03*
D22*
X490500Y90750D02*
D03*
X466500Y71750D02*
D03*
Y81250D02*
D03*
Y90750D02*
D03*
X495250Y148750D02*
D03*
Y129750D02*
D03*
X471250D02*
D03*
Y139250D02*
D03*
Y148750D02*
D03*
D23*
X490500Y71750D02*
D03*
D24*
X404900Y358250D02*
D03*
X417600D02*
D03*
X430300D02*
D03*
X392200Y410250D02*
D03*
X404900D02*
D03*
X417600D02*
D03*
X430300D02*
D03*
D25*
X392200Y358250D02*
D03*
D26*
X467500Y208850D02*
D03*
Y196150D02*
D03*
Y183450D02*
D03*
X519500Y221550D02*
D03*
Y208850D02*
D03*
Y196150D02*
D03*
Y183450D02*
D03*
D27*
X467500Y221550D02*
D03*
D28*
X567000Y418050D02*
D03*
Y405350D02*
D03*
Y392650D02*
D03*
Y379950D02*
D03*
X614000Y418050D02*
D03*
Y405350D02*
D03*
Y392650D02*
D03*
Y379950D02*
D03*
D29*
X485000Y315750D02*
D03*
Y301250D02*
D03*
D30*
X662250Y103000D02*
D03*
X647750D02*
D03*
D31*
X369750Y290500D02*
D03*
X416250D02*
D03*
D32*
X629250Y54000D02*
D03*
Y59000D02*
D03*
Y64000D02*
D03*
Y69000D02*
D03*
Y74000D02*
D03*
Y79000D02*
D03*
Y84000D02*
D03*
Y89000D02*
D03*
Y94000D02*
D03*
Y99000D02*
D03*
Y104000D02*
D03*
Y109000D02*
D03*
Y114000D02*
D03*
Y119000D02*
D03*
Y124000D02*
D03*
Y129000D02*
D03*
X518250D02*
D03*
Y124000D02*
D03*
Y119000D02*
D03*
Y114000D02*
D03*
Y109000D02*
D03*
Y104000D02*
D03*
Y99000D02*
D03*
Y94000D02*
D03*
Y89000D02*
D03*
Y84000D02*
D03*
Y79000D02*
D03*
Y74000D02*
D03*
Y69000D02*
D03*
Y64000D02*
D03*
Y59000D02*
D03*
Y54000D02*
D03*
D33*
X611250Y147000D02*
D03*
X606250D02*
D03*
X601250D02*
D03*
X596250D02*
D03*
X591250D02*
D03*
X586250D02*
D03*
X581250D02*
D03*
X576250D02*
D03*
X571250D02*
D03*
X566250D02*
D03*
X561250D02*
D03*
X556250D02*
D03*
X551250D02*
D03*
X546250D02*
D03*
X541250D02*
D03*
X536250D02*
D03*
Y36000D02*
D03*
X541250D02*
D03*
X546250D02*
D03*
X551250D02*
D03*
X556250D02*
D03*
X561250D02*
D03*
X566250D02*
D03*
X571250D02*
D03*
X576250D02*
D03*
X581250D02*
D03*
X586250D02*
D03*
X591250D02*
D03*
X596250D02*
D03*
X601250D02*
D03*
X606250D02*
D03*
X611250D02*
D03*
D34*
X394500Y97692D02*
D03*
Y65307D02*
D03*
X442000Y207307D02*
D03*
Y239692D02*
D03*
X115000Y173692D02*
D03*
Y141307D02*
D03*
D35*
X730750Y124000D02*
D03*
X707250D02*
D03*
X730750Y142000D02*
D03*
X707250D02*
D03*
X730750Y173000D02*
D03*
X707250D02*
D03*
X730000Y92750D02*
D03*
X706500D02*
D03*
X730750Y191000D02*
D03*
X707250D02*
D03*
X706500Y75000D02*
D03*
X730000D02*
D03*
D36*
X248750Y374250D02*
D03*
Y417750D02*
D03*
D37*
X286500Y419970D02*
D03*
Y374250D02*
D03*
X363500Y401970D02*
D03*
Y356250D02*
D03*
D38*
X221500Y416500D02*
D03*
X178000D02*
D03*
X65000Y421000D02*
D03*
X95000D02*
D03*
X125000D02*
D03*
D39*
X474943Y50500D02*
D03*
X442557D02*
D03*
X486442Y109750D02*
D03*
X454058D02*
D03*
X135057Y110500D02*
D03*
X167442D02*
D03*
D40*
X294475Y352545D02*
D03*
X304000Y330955D02*
D03*
X313525Y352545D02*
D03*
X294725Y315795D02*
D03*
X304250Y294205D02*
D03*
X313775Y315795D02*
D03*
X259225Y316545D02*
D03*
X268750Y294955D02*
D03*
X278275Y316545D02*
D03*
X347275Y226705D02*
D03*
X337750Y248295D02*
D03*
X328225Y226705D02*
D03*
X530025Y265455D02*
D03*
X520500Y287045D02*
D03*
X510975Y265455D02*
D03*
D41*
X239950Y329350D02*
D03*
Y303950D02*
D03*
Y278550D02*
D03*
Y253150D02*
D03*
Y342050D02*
D03*
Y316650D02*
D03*
Y291250D02*
D03*
Y265850D02*
D03*
X54050Y316650D02*
D03*
Y291250D02*
D03*
Y265850D02*
D03*
Y240450D02*
D03*
Y329350D02*
D03*
Y303950D02*
D03*
Y278550D02*
D03*
Y253150D02*
D03*
D42*
X202500Y198250D02*
D03*
D43*
X84500D02*
D03*
X202500Y384250D02*
D03*
D44*
X84500D02*
D03*
D45*
X406400Y240750D02*
D03*
X381000D02*
D03*
Y231250D02*
D03*
Y221751D02*
D03*
D46*
X406400D02*
D03*
D47*
X62750Y102750D02*
D03*
Y94750D02*
D03*
Y118750D02*
D03*
Y126750D02*
D03*
Y110750D02*
D03*
D48*
X8600Y71380D02*
D03*
D49*
X65750Y67570D02*
D03*
D50*
X12410Y155200D02*
D03*
D51*
X61500Y155250D02*
D03*
D52*
X394450Y119500D02*
D03*
X407150Y119500D02*
D03*
X419850D02*
D03*
X432550Y119500D02*
D03*
X394450Y187500D02*
D03*
X407150D02*
D03*
X419850D02*
D03*
X432550D02*
D03*
D53*
X552050Y322100D02*
D03*
Y296700D02*
D03*
Y271300D02*
D03*
X551796Y245900D02*
D03*
X704450Y220500D02*
D03*
Y347500D02*
D03*
D54*
X60220Y183000D02*
D03*
X14500D02*
D03*
D55*
X63500Y420750D02*
X77250Y407000D01*
X553716Y323766D02*
X558732Y318750D01*
X95000Y421250D02*
X125000Y391250D01*
X575308Y309500D02*
X599308Y285500D01*
X551250Y157750D02*
X559750Y166250D01*
X547870Y177370D02*
X550750Y180250D01*
X547870Y161545D02*
Y177370D01*
X580028Y80753D02*
X581529Y82254D01*
Y63983D02*
Y82254D01*
X410250Y44500D02*
X415500Y39250D01*
X567496Y79504D02*
X577029Y69971D01*
X393250Y64307D02*
X410443D01*
X694750Y15250D02*
X695620Y14380D01*
X659760Y59870D02*
X662130Y57500D01*
X649250Y58620D02*
X650500Y59870D01*
X642700Y18250D02*
X643700D01*
X638950Y14500D02*
X642700Y18250D01*
X300264Y260992D02*
Y268034D01*
X296500Y257228D02*
X300264Y260992D01*
X296500Y252870D02*
Y257228D01*
X328225Y218592D02*
Y226705D01*
X326266Y248262D02*
X337717D01*
X337750Y248295D01*
X305750Y227500D02*
Y271979D01*
X299380Y226250D02*
X304500D01*
X305750Y227500D01*
X240900Y279500D02*
X288798D01*
X300264Y268034D01*
X671500Y173250D02*
X677630D01*
X490751Y55503D02*
X502053Y66806D01*
X406756Y33000D02*
X445520D01*
X323375Y13250D02*
Y18000D01*
X687370Y158120D02*
X707130D01*
X576750Y228021D02*
X577539D01*
X432550Y118000D02*
X436500D01*
X567497Y65287D02*
Y66253D01*
X575750Y36000D02*
Y45522D01*
X382750Y49250D02*
X387380D01*
X693000Y77130D02*
X699374Y83504D01*
X693130Y92500D02*
X706500D01*
X569278Y106278D02*
Y112028D01*
X693120Y190750D02*
X707250D01*
X312375Y13250D02*
Y18000D01*
X360973Y26955D02*
X361018Y27001D01*
X369518Y18501D01*
X301375Y13250D02*
Y18000D01*
X510975Y252655D02*
X512380Y251250D01*
X476205Y265000D02*
X510975D01*
X592600Y373421D02*
X623385Y342635D01*
X675630Y163250D02*
X681250D01*
X675250Y162870D02*
X676000D01*
X675250D02*
X675630Y163250D01*
X499795Y12225D02*
X501700Y14130D01*
X442750Y43193D02*
Y78620D01*
X406150Y119500D02*
Y137150D01*
X239950Y278550D02*
X240900Y279500D01*
X135057Y107250D02*
X135250Y107058D01*
X613114Y24000D02*
X615614Y26500D01*
X607892Y24000D02*
X613114D01*
X569386D02*
X578650D01*
X566250Y27136D02*
X569386Y24000D01*
X575250Y46022D02*
Y57533D01*
Y46022D02*
X575750Y45522D01*
Y36000D02*
X576250D01*
X579750Y47886D02*
X581250Y46386D01*
X579750Y47886D02*
Y59397D01*
X584250Y49750D02*
X586250Y47750D01*
X584250Y49750D02*
Y61261D01*
X578650Y24000D02*
X588150Y14500D01*
X488914Y22367D02*
X489086D01*
X347500Y128989D02*
Y199317D01*
X328225Y218592D02*
X347500Y199317D01*
X627870Y187415D02*
Y218630D01*
X604500Y242000D02*
X627870Y218630D01*
X568750Y242000D02*
X604500D01*
X630750Y301250D02*
X640000Y292000D01*
X576000Y322250D02*
X603729D01*
X624729Y301250D02*
X630750D01*
X603729Y322250D02*
X624729Y301250D01*
X576277Y172150D02*
Y195750D01*
X569277Y202750D02*
X576277Y195750D01*
X571000Y194250D02*
X572250Y193000D01*
Y170521D02*
Y193000D01*
Y170521D02*
X586250Y156521D01*
X576277Y172150D02*
X591250Y157178D01*
X580500Y173750D02*
X596250Y158000D01*
X580500Y173750D02*
Y199250D01*
X599308Y285500D02*
X622250D01*
X541521Y309500D02*
X575308D01*
X619250Y192880D02*
Y204000D01*
X591250Y147000D02*
Y157178D01*
X586250Y147000D02*
Y156521D01*
X563771Y194750D02*
X568250Y190271D01*
Y168478D02*
Y190271D01*
Y168478D02*
X568500Y168228D01*
Y167907D02*
Y168228D01*
Y167907D02*
X572757Y163650D01*
X573464D01*
X581250Y155864D01*
Y147000D02*
Y155864D01*
X543087Y198750D02*
X566500D01*
X534951Y184250D02*
X545451Y194750D01*
X563771D01*
X540723Y202750D02*
X569277D01*
X543815Y186750D02*
X559750D01*
X566500Y198750D02*
X571000Y194250D01*
X561250Y36000D02*
Y47064D01*
X558028Y50286D02*
X561250Y47064D01*
X556250Y36000D02*
Y46407D01*
X553528Y49129D02*
X556250Y46407D01*
X549026Y47974D02*
X551250Y45750D01*
Y36000D02*
Y45750D01*
X566528Y53753D02*
X570750Y49530D01*
X567497Y65287D02*
X575250Y57533D01*
X577029Y62119D02*
Y69971D01*
Y62119D02*
X579750Y59397D01*
X586250Y36000D02*
Y47750D01*
X581529Y63983D02*
X584250Y61261D01*
X590029Y67503D02*
X592267D01*
X579778Y81003D02*
Y81504D01*
X558028Y50286D02*
Y88957D01*
X553528Y49129D02*
Y90821D01*
X549026Y47974D02*
Y92683D01*
X570750Y36500D02*
Y49530D01*
Y36500D02*
X571250Y36000D01*
X596250Y46479D02*
X602250Y52479D01*
Y57521D01*
X592267Y67503D02*
X602250Y57521D01*
X601250Y45115D02*
X606750Y50615D01*
X601250Y36000D02*
Y45115D01*
X535250Y74500D02*
Y99729D01*
X529750Y69000D02*
X535250Y74500D01*
X664055Y65555D02*
X665925Y67425D01*
X657270Y65555D02*
X664055D01*
X654695Y68130D02*
X657270Y65555D01*
X664305Y82555D02*
X664750Y83000D01*
X653323Y82555D02*
X664305D01*
X677500Y70175D02*
Y77750D01*
X674750Y67425D02*
X677500Y70175D01*
X665925Y67425D02*
X674750D01*
X665500Y28686D02*
Y37000D01*
X650314Y13500D02*
X665500Y28686D01*
X485024Y254512D02*
X488560D01*
X485024Y254476D02*
Y254512D01*
X452471Y176450D02*
X478586D01*
X433250Y163000D02*
X439021D01*
X452471Y176450D01*
X452311Y160250D02*
X487585D01*
X441061Y149000D02*
X452311Y160250D01*
X454175Y155750D02*
X507564D01*
X440500Y142075D02*
X454175Y155750D01*
X406250Y149000D02*
X441061D01*
X426000Y144500D02*
X432000Y138500D01*
X413500Y144500D02*
X426000D01*
X406150Y137150D02*
X413500Y144500D01*
X393519Y136269D02*
X406250Y149000D01*
X440500Y122000D02*
Y142075D01*
X436500Y118000D02*
X440500Y122000D01*
X432550Y118000D02*
Y119500D01*
X341767Y123256D02*
X347500Y128989D01*
X262395Y286355D02*
X291509D01*
X305000Y272729D02*
X305750Y271979D01*
X385019Y135257D02*
Y191731D01*
X562232Y322250D02*
X576000D01*
X558732Y318750D02*
X562232Y322250D01*
X485024Y254476D02*
X490380Y249120D01*
X488560Y254512D02*
X488798Y254750D01*
X643700Y13500D02*
X650314D01*
X638223Y49250D02*
X640250D01*
X637973Y49000D02*
X638223Y49250D01*
X619679Y49000D02*
X637973D01*
X644252Y68130D02*
X654695D01*
X641250Y71132D02*
Y72364D01*
Y71132D02*
X644252Y68130D01*
X187545Y180250D02*
Y229205D01*
X166000Y189820D02*
Y200750D01*
X295250Y35500D02*
X302625Y28125D01*
Y18000D02*
Y28125D01*
X312250Y98569D02*
X314015Y96804D01*
Y18390D02*
Y96804D01*
X313625Y18000D02*
X314015Y18390D01*
X294750Y35500D02*
X295250D01*
X324625Y50125D02*
X329250Y54750D01*
X324625Y18000D02*
Y50125D01*
X333266Y46002D02*
X335625Y43643D01*
Y18000D02*
Y43643D01*
X380000Y46500D02*
X382750Y49250D01*
X370875Y46500D02*
X380000D01*
X382600Y61350D02*
Y73850D01*
X370875Y57500D02*
X378750D01*
X382600Y61350D01*
X393519Y119569D02*
Y136269D01*
X393450Y119500D02*
X393519Y119569D01*
X291509Y286355D02*
X305000Y272864D01*
Y272729D02*
Y272864D01*
X257500Y291250D02*
X262395Y286355D01*
X658179Y159929D02*
X671500Y173250D01*
X687500Y184250D02*
X698250D01*
X685620Y182370D02*
X687500Y184250D01*
X685620Y167620D02*
Y182370D01*
X669880Y180205D02*
X673175Y183500D01*
X677630Y185130D02*
Y192250D01*
X676000Y183500D02*
X677630Y185130D01*
X673175Y183500D02*
X676000D01*
X669880Y177994D02*
Y180205D01*
X657893Y166007D02*
X669880Y177994D01*
X676000Y162870D02*
X676000Y162870D01*
X670545Y155120D02*
X671880D01*
X670236Y155429D02*
X670545Y155120D01*
X659887Y155429D02*
X670236D01*
X681250Y163250D02*
X685620Y167620D01*
X655458Y151000D02*
X659887Y155429D01*
X658024Y159929D02*
X658179D01*
X653594Y155500D02*
X658024Y159929D01*
X653408Y155500D02*
X653594D01*
X641750Y143842D02*
X653408Y155500D01*
X657738Y166007D02*
X657893D01*
X654881Y163150D02*
X657738Y166007D01*
X654694Y163150D02*
X654881D01*
X637250Y145706D02*
X654694Y163150D01*
X655272Y151000D02*
X655458D01*
X646555Y142283D02*
X655272Y151000D01*
X671880Y155120D02*
X674000Y153000D01*
Y147630D02*
Y153000D01*
X646555Y124055D02*
Y142283D01*
X641750Y126929D02*
Y143842D01*
X637250Y137000D02*
Y145706D01*
X616750Y80979D02*
X619771Y84000D01*
X535250Y99729D02*
X539276Y103755D01*
Y104255D01*
X530750Y76500D02*
Y111250D01*
X534776Y115276D01*
Y116756D01*
X557277Y101005D02*
Y112255D01*
X584000Y110957D02*
Y114750D01*
X606530Y111756D02*
X609495D01*
X567278Y66253D02*
X567497D01*
X574043Y101000D02*
X584000Y110957D01*
X609500Y99250D02*
X609750Y99000D01*
X570646Y110659D02*
X571500D01*
X567278Y79004D02*
Y79285D01*
X619771Y84000D02*
X629250D01*
X518250Y69000D02*
X529750D01*
X350250Y54750D02*
X356250Y48750D01*
X329250Y54750D02*
X350250D01*
X559550Y418050D02*
X567000D01*
X555370Y413870D02*
X559550Y418050D01*
X550250Y413870D02*
X555370D01*
X548500Y412120D02*
X550250Y413870D01*
X548500Y406380D02*
Y412120D01*
X567000Y405350D02*
X581400D01*
X584100Y402650D01*
X178500Y238250D02*
X187545Y229205D01*
X183250Y345500D02*
X207750D01*
X221000Y358750D01*
X265750D02*
X269000Y355500D01*
Y353250D02*
Y355500D01*
Y353250D02*
X271380Y350870D01*
X278250D01*
X504500Y90394D02*
X508106Y94000D01*
X518250D01*
X504250Y96508D02*
Y96750D01*
X506500Y99000D01*
X442557Y43000D02*
X442750Y43193D01*
X506500Y99000D02*
X518250D01*
X641500Y119000D02*
X646555Y124055D01*
X650500Y59870D02*
X659760D01*
X644000Y83000D02*
X652878D01*
X640000Y79000D02*
X644000Y83000D01*
X639750Y73864D02*
X641250Y72364D01*
X639750Y73864D02*
Y74000D01*
X629250D02*
X639750D01*
X652878Y83000D02*
X653323Y82555D01*
X690750Y71000D02*
X698500D01*
X686750Y67000D02*
X690750Y71000D01*
X702500Y75000D02*
X706500D01*
X698500Y71000D02*
X702500Y75000D01*
X719000Y186250D02*
Y200750D01*
Y186250D02*
X721500Y183750D01*
X707806Y142000D02*
X719000Y153194D01*
X707250Y142000D02*
X707806D01*
X721500Y165750D02*
X723500Y163750D01*
Y149839D02*
Y163750D01*
X718750Y145089D02*
X723500Y149839D01*
X718750Y125750D02*
Y145089D01*
X707250Y124000D02*
X717000D01*
X718750Y125750D01*
X528250Y74000D02*
X530750Y76500D01*
X629250Y114000D02*
X640000D01*
X541250Y25500D02*
X543625Y23125D01*
X541250Y25500D02*
Y36000D01*
X650500Y59870D02*
X650750Y59620D01*
X609750Y99000D02*
X629250D01*
X617250Y104000D02*
X629250D01*
X609495Y111756D02*
X617250Y104000D01*
X619250Y192880D02*
X619880Y192250D01*
X569278Y112028D02*
X570646Y110659D01*
X633500Y133250D02*
X637250Y137000D01*
X638821Y124000D02*
X641750Y126929D01*
X629250Y124000D02*
X638821D01*
X631000Y133250D02*
X633500D01*
X629250Y131500D02*
X631000Y133250D01*
X561250Y92250D02*
X570000Y101000D01*
X561250Y92179D02*
Y92250D01*
X558028Y88957D02*
X561250Y92179D01*
X556750Y94114D02*
X568136Y105500D01*
X556750Y94043D02*
Y94114D01*
X553528Y90821D02*
X556750Y94043D01*
X552250Y95978D02*
X557277Y101005D01*
X552250Y95907D02*
Y95978D01*
X549026Y92683D02*
X552250Y95907D01*
X567278Y79285D02*
X567496Y79504D01*
X579778Y81003D02*
X580028Y80753D01*
X518250Y74000D02*
X528250D01*
X568500Y105500D02*
X569278Y106278D01*
X568136Y105500D02*
X568500D01*
X570000Y101000D02*
X574043D01*
X578250Y78975D02*
X580028Y80753D01*
X601250Y135750D02*
Y147000D01*
X567000Y418050D02*
X586950D01*
X698250Y184250D02*
X700500Y182000D01*
X693000Y92370D02*
X693130Y92500D01*
X629250Y119000D02*
X641500D01*
X702500Y108500D02*
X707750D01*
X700130Y106130D02*
X702500Y108500D01*
X629250Y79000D02*
X640000D01*
X707130Y158120D02*
X707750Y157500D01*
X611250Y147000D02*
X615750D01*
X629250Y129000D02*
Y131500D01*
X346250Y40500D02*
X346267Y40483D01*
X165955Y189775D02*
X166000Y189820D01*
X615750Y147000D02*
X621870Y153120D01*
Y181785D01*
X627500Y187415D01*
X221000Y358750D02*
X265750D01*
X165500Y366000D02*
X182000Y382500D01*
X501356Y196150D02*
X519500D01*
X359250Y25233D02*
X360973Y26955D01*
X719000Y153194D02*
Y161806D01*
X717000Y163806D02*
X719000Y161806D01*
X721500Y165750D02*
Y183750D01*
X700500Y182000D02*
X714750D01*
X717000Y163806D02*
Y179750D01*
X714750Y182000D02*
X717000Y179750D01*
X505612Y64000D02*
X518250D01*
X497774Y56162D02*
X505612Y64000D01*
X493896Y48104D02*
X497774Y51982D01*
Y56162D01*
X584100Y390000D02*
Y402650D01*
X567000Y392650D02*
X576100D01*
X567000Y376100D02*
Y379950D01*
X572350Y370750D02*
X582750D01*
X567000Y376100D02*
X572350Y370750D01*
X586950Y418050D02*
X592600Y412400D01*
Y373421D02*
Y412400D01*
X576100Y392650D02*
X579000Y389750D01*
X583250D01*
X675250Y162870D02*
X675750D01*
X676000D01*
X683750Y154500D02*
X687370Y158120D01*
X664750Y83000D02*
X674918D01*
Y83167D02*
X678000Y86250D01*
X677500Y77750D02*
X682500Y82750D01*
X680250Y124019D02*
X683750Y127520D01*
X678000Y86250D02*
Y98952D01*
X682500Y97000D02*
X685000Y99500D01*
X682500Y82750D02*
Y97000D01*
X678000Y98952D02*
X680250Y101201D01*
Y124019D01*
X686130Y106130D02*
X692250D01*
Y106130D02*
X700130D01*
X685000Y105000D02*
X686130Y106130D01*
X685000Y99500D02*
Y105000D01*
X683750Y127520D02*
Y128479D01*
X683500Y128729D02*
X683750Y128479D01*
X683500Y128729D02*
Y135771D01*
X683750Y136021D01*
Y154500D01*
X699374Y83504D02*
X708055D01*
X708059Y83500D01*
X718000D01*
X718250Y83750D01*
X543625Y18495D02*
Y23125D01*
Y18495D02*
X544370Y17750D01*
X487195Y41270D02*
X493963Y48038D01*
X487195Y41270D02*
X487250Y41215D01*
X501700Y14130D02*
X515500D01*
X478205Y23500D02*
X484000D01*
X487024Y20476D01*
X487195Y41160D02*
X487250Y41215D01*
X487195Y41160D02*
X487250Y41105D01*
X487195Y41050D02*
X487250Y41105D01*
X487195Y34867D02*
Y41050D01*
X487024Y20476D02*
X488914Y22367D01*
X386750Y89692D02*
X393750Y96692D01*
X346267Y16251D02*
Y40483D01*
X360973Y26955D02*
X361018D01*
X369518Y18501D02*
X378251D01*
X383500Y23750D01*
X385500Y42250D02*
X397506D01*
X379000Y35750D02*
X385500Y42250D01*
X394500Y97692D02*
X396927D01*
X404500Y90120D01*
X382600Y73850D02*
X386750Y78000D01*
Y89692D01*
X395250Y81500D02*
X400000D01*
X406620Y74880D01*
X410443Y64307D02*
X413250Y61500D01*
X402620Y50500D02*
X409250D01*
X415500Y44250D01*
X397506Y42250D02*
X406756Y33000D01*
X411295Y23750D02*
X411545Y23500D01*
X383500Y23750D02*
X411295D01*
X384025Y33025D02*
X389955D01*
X378001Y27001D02*
X384025Y33025D01*
X373518Y27001D02*
X378001D01*
X506250Y104000D02*
X518250D01*
X504950Y183450D02*
X519500D01*
X495250Y129750D02*
X501250D01*
X503000Y128000D01*
Y107250D02*
X506250Y104000D01*
X503000Y107250D02*
Y128000D01*
X490500Y78500D02*
X493750Y81750D01*
X496000D01*
X490500Y71750D02*
Y78500D01*
X500000Y92258D02*
X504250Y96508D01*
X496000Y81750D02*
X500000Y85750D01*
Y92258D01*
X502053Y81303D02*
X504500Y83750D01*
X502053Y66806D02*
Y81303D01*
X504500Y83750D02*
Y90394D01*
X458750Y81250D02*
X466500D01*
X433250Y92000D02*
X437380D01*
X458120Y80620D02*
X458750Y81250D01*
X450500Y80620D02*
X458120D01*
X423242Y81992D02*
X433250Y92000D01*
X404500Y90120D02*
X411750D01*
X412250D01*
X406620Y74880D02*
X411750D01*
X442750Y78620D02*
X442750D01*
X444750Y80620D01*
X450500D01*
X440750D02*
X442750Y78620D01*
X434500Y80620D02*
X440750D01*
X425771Y63521D02*
X427630Y65380D01*
X434500D01*
X425771Y54003D02*
Y63521D01*
X447295Y23500D02*
X455250D01*
X459272Y27522D01*
X472120Y168250D02*
X483130D01*
Y174630D01*
X478586Y176450D02*
X486658Y184522D01*
X487585Y160250D02*
X490750Y163415D01*
X486658Y184522D02*
X489728D01*
X501356Y196150D01*
X483130Y174630D02*
X488375Y179875D01*
X492875D01*
X503000Y190000D01*
X490750Y163415D02*
Y173250D01*
X493250Y175750D01*
X497250D01*
X504950Y183450D01*
X507564Y155750D02*
X517250Y165436D01*
Y171000D01*
X522250Y176000D01*
X519500Y183450D02*
X520300Y184250D01*
X556250Y133250D02*
Y147000D01*
X551250D02*
Y157750D01*
X596250Y147000D02*
Y158000D01*
X546250Y147000D02*
Y159925D01*
X547870Y161545D01*
X459272Y27522D02*
Y33252D01*
X445520Y33000D02*
X458272Y45752D01*
X531750Y36000D02*
X536250D01*
X528250Y32500D02*
X531750Y36000D01*
X528248Y32502D02*
X528250Y32500D01*
X527526Y32502D02*
X528248D01*
X239950Y291250D02*
X257500D01*
X363250Y35750D02*
X379000D01*
X356250Y42750D02*
X363250Y35750D01*
X356250Y42750D02*
Y48750D01*
X566250Y27136D02*
Y36000D01*
X596250D02*
Y46479D01*
X611250Y36000D02*
Y47500D01*
X616750Y51929D02*
X619679Y49000D01*
X616750Y51929D02*
Y80979D01*
X606750Y50615D02*
Y67250D01*
X515500Y14130D02*
X521380D01*
X523750Y16500D01*
X527880D01*
X529130Y17750D01*
X581250Y36000D02*
Y46386D01*
X606250Y25642D02*
X607892Y24000D01*
X615614Y26500D02*
X616321D01*
X644750Y53750D02*
X648000D01*
X649250Y55000D01*
Y58620D01*
X650000Y59870D02*
X650500D01*
X649000Y60870D02*
X650000Y59870D01*
X640250Y49250D02*
X644750Y53750D01*
X650620Y53630D02*
X653955D01*
X649250Y55000D02*
X650620Y53630D01*
X653955D02*
X658500Y49085D01*
Y44000D02*
Y49085D01*
Y44000D02*
X665500Y37000D01*
X695620Y14380D02*
X732500D01*
X177250Y391250D02*
X184750Y398750D01*
X66500Y365500D02*
X83250Y348750D01*
X121000D01*
X559750Y166250D02*
Y168750D01*
X519500Y196150D02*
X534123D01*
X522250Y176000D02*
X533065D01*
X543815Y186750D01*
X520300Y184250D02*
X534951D01*
X503000Y190000D02*
X534337D01*
X66500Y365500D02*
Y398000D01*
X127750Y366000D02*
X165500D01*
X77250Y407000D02*
X86750D01*
X127750Y366000D01*
X460000Y367500D02*
X485000D01*
X495000Y347500D02*
X506500Y336000D01*
X495000Y347500D02*
Y357500D01*
X485000Y367500D02*
X495000Y357500D01*
X491000Y255475D02*
Y255500D01*
Y255475D02*
X497795D01*
X510975Y265000D02*
Y265455D01*
X489524Y254024D02*
X491000Y255500D01*
X488798Y254750D02*
X489524Y254024D01*
X490380Y238500D02*
Y249120D01*
X510975Y252655D02*
Y265000D01*
X552050Y322100D02*
X553716Y323766D01*
X125000Y391250D02*
X177250D01*
X506500Y336000D02*
X515500D01*
X524000Y327500D01*
Y327021D02*
Y327500D01*
Y327021D02*
X541521Y309500D01*
X544120Y233400D02*
X560150D01*
X534337Y190000D02*
X543087Y198750D01*
X534123Y196150D02*
X540723Y202750D01*
X560150Y233400D02*
X568750Y242000D01*
X576750Y228021D02*
Y228500D01*
X583010Y201760D02*
X586799D01*
X580500Y199250D02*
X583010Y201760D01*
X586799D02*
X591778Y206740D01*
Y213781D01*
X577539Y228021D02*
X591778Y213781D01*
X574000Y252000D02*
X627500D01*
X568250Y257750D02*
X574000Y252000D01*
X659782Y230761D02*
X661370Y229174D01*
Y192500D02*
Y229174D01*
X646130Y192500D02*
Y200130D01*
X651000Y205000D01*
X673500Y382630D02*
X674750Y381380D01*
X678870D01*
X683500Y376750D01*
X673500Y382630D02*
Y388870D01*
X654250Y334000D02*
X683500Y363250D01*
Y376750D01*
X654250Y327750D02*
Y334000D01*
X654000Y327500D02*
X654250Y327750D01*
X640000Y289000D02*
Y292000D01*
X132500Y95870D02*
X138880D01*
X143250Y91500D01*
Y88000D02*
Y91500D01*
D56*
X724450Y345750D02*
X726450Y347750D01*
X686250Y345750D02*
X724450D01*
X691750Y142880D02*
X692000Y142630D01*
X535500Y217000D02*
X540750Y211750D01*
X481880Y278870D02*
X486225Y274525D01*
X597000Y177250D02*
X613500D01*
X614250Y165380D02*
Y173000D01*
X353750Y123500D02*
X370875D01*
X269625Y174875D02*
Y196000D01*
X167750Y106943D02*
X171928Y111120D01*
X194250Y74750D02*
X200500Y68500D01*
X189500Y74750D02*
X194250D01*
X640501Y43750D02*
X650380D01*
X629630Y34250D02*
Y40880D01*
X418850Y119500D02*
Y135650D01*
X365275Y239500D02*
X366525Y240750D01*
X357525Y221975D02*
X365250D01*
X347275Y226705D02*
X352795D01*
X357525Y221975D01*
X651000Y90870D02*
X670000D01*
X247375Y18250D02*
X258375D01*
X444250Y346120D02*
Y356880D01*
X730000Y74250D02*
X730750Y75000D01*
X601240Y333266D02*
X624756Y309750D01*
X536776Y333266D02*
X601240D01*
X624756Y309750D02*
X628250D01*
X533276Y329766D02*
X536776Y333266D01*
X540750Y211250D02*
X582289D01*
X658759Y75380D02*
X660084Y74055D01*
X444050Y222750D02*
X447750D01*
X442000Y220700D02*
X444050Y222750D01*
X353500Y123750D02*
X354500D01*
X353500D02*
X353750Y123500D01*
X418500Y136000D02*
X418850Y135650D01*
X392250Y231000D02*
X412698D01*
X392000Y231250D02*
X392250Y231000D01*
X381000Y231250D02*
X392000D01*
X495750Y301250D02*
X496500Y302000D01*
X485000Y301250D02*
X495750D01*
X479500Y234143D02*
Y245894D01*
X475524Y249870D02*
X479500Y245894D01*
X470000Y249870D02*
X475524D01*
X27500Y80000D02*
X30000Y77500D01*
X22500Y80000D02*
X27500D01*
X13880Y71380D02*
X22500Y80000D01*
X8600Y71380D02*
X13880D01*
X376518Y211510D02*
X381000Y215992D01*
Y221751D01*
X337750Y176250D02*
X338250D01*
X336000Y174500D02*
X337750Y176250D01*
X335625Y174875D02*
X336000Y174500D01*
X183000Y109870D02*
X199630D01*
X199750Y109750D01*
X202500Y112500D01*
X212125D01*
X650380Y43750D02*
X650750Y43380D01*
X639751Y43000D02*
X640501Y43750D01*
X631750Y43000D02*
X639751D01*
X648750Y75380D02*
X658759D01*
X629630Y40880D02*
X631750Y43000D01*
X194750Y46500D02*
X212125D01*
X200500Y68500D02*
X212125D01*
X194250Y74750D02*
X199000Y79500D01*
X212125D01*
X148750Y189870D02*
X165860D01*
X276250Y35250D02*
X279750D01*
X269625Y28625D02*
X276250Y35250D01*
X269625Y18000D02*
Y28625D01*
X279750Y35250D02*
X280625Y34375D01*
Y18000D02*
Y34375D01*
X247125Y196500D02*
X247625Y196000D01*
X237000Y196500D02*
X247125D01*
X269625Y174875D02*
X269750Y174750D01*
Y177000D01*
X660250Y177000D02*
Y180500D01*
X657000Y173750D02*
X660250Y177000D01*
X649775Y173750D02*
X657000D01*
X665395Y135750D02*
Y145395D01*
X352363Y401970D02*
X363500D01*
X340000Y295000D02*
Y389607D01*
Y295000D02*
X345000Y290000D01*
X445000Y373870D02*
Y384500D01*
Y373870D02*
X445500Y373370D01*
X442000Y239692D02*
Y248500D01*
X665645Y75630D02*
X670000D01*
X667395Y133750D02*
X674275D01*
X372870Y336000D02*
X385500D01*
X430300Y358250D02*
X430420Y358130D01*
X445500D01*
X444250Y356880D02*
X445500Y358130D01*
X381000Y240750D02*
X381250Y241000D01*
X389750D01*
X366525Y240750D02*
X381000D01*
X412698Y231000D02*
X414343Y229355D01*
X419395D01*
X422000Y226750D01*
Y220475D02*
Y226750D01*
X462870Y249870D02*
X470000D01*
X456942Y243943D02*
X462870Y249870D01*
X614120Y165250D02*
X614250Y165380D01*
X650750Y90620D02*
X651000Y90870D01*
X665395Y135750D02*
X667395Y133750D01*
X589500Y177630D02*
X604000D01*
X385500Y336000D02*
X392200Y342700D01*
Y358250D01*
X165860Y189870D02*
X165955Y189775D01*
X134000Y189870D02*
X148750D01*
X499142Y218750D02*
X502000D01*
X618500Y356250D02*
X638500D01*
X599500Y415250D02*
X602300Y418050D01*
X599500Y375250D02*
X599750Y375000D01*
X600250Y374500D01*
X612991Y177759D02*
X613500Y177250D01*
X612530Y177759D02*
X612991D01*
X602300Y418050D02*
X602700D01*
X600250Y374500D02*
X600250D01*
X614000Y371357D02*
Y379950D01*
Y371357D02*
X616606Y368750D01*
X621250D01*
X600250Y374500D02*
X618500Y356250D01*
X599500Y375250D02*
Y415250D01*
X674275Y126530D02*
Y133750D01*
X672370Y124625D02*
X674275Y126530D01*
X672370Y116750D02*
Y124625D01*
X692000Y126120D02*
Y132250D01*
X691750Y142880D02*
X692000D01*
Y132250D02*
Y142630D01*
X730000Y61750D02*
X732500Y59250D01*
Y29620D02*
Y32250D01*
Y59250D01*
X730000Y61750D02*
Y74250D01*
X489642Y228250D02*
X499142Y218750D01*
X485393Y228250D02*
X489642D01*
X53975Y329275D02*
X54050Y329350D01*
X442000Y248500D02*
X460000Y266500D01*
X456942Y239692D02*
Y243943D01*
X520500Y287045D02*
Y304500D01*
X515000Y310000D02*
X520500Y304500D01*
X479500Y234143D02*
X485393Y228250D01*
X470279Y294156D02*
Y299878D01*
Y294156D02*
X475000Y289435D01*
X481315D01*
X481880Y290000D01*
X497620D02*
X506000D01*
X508955Y287045D01*
X520500D01*
X460000Y266500D02*
Y267500D01*
X481880Y278870D02*
Y290000D01*
X486225Y274525D02*
X497795D01*
X527370Y251250D02*
Y256620D01*
X530025Y259275D01*
Y265455D01*
X485000Y315750D02*
X509250D01*
X515000Y310000D01*
X422000Y220475D02*
X441775D01*
X442000Y220700D01*
X442000Y207307D02*
X442000Y207308D01*
Y220700D01*
X532370Y228872D02*
Y236750D01*
Y228872D02*
X535500Y225742D01*
Y217000D02*
Y225742D01*
X540750Y211250D02*
Y211750D01*
X582289Y211250D02*
X583279Y210260D01*
X684500Y347500D02*
X686250Y345750D01*
X724500Y347750D02*
X726450D01*
X335625Y174875D02*
Y196000D01*
X14095Y329275D02*
X53975D01*
X14000Y329370D02*
X14095Y329275D01*
X194500Y46250D02*
X194750Y46500D01*
X181750Y111120D02*
X183000Y109870D01*
X171928Y111120D02*
X181750D01*
X167442Y107250D02*
X167750Y106943D01*
X167442Y107250D02*
Y107250D01*
Y110500D01*
D57*
X552050Y296700D02*
X570050D01*
X730750Y93250D02*
Y124000D01*
X730000Y92500D02*
X730750Y93250D01*
X222250Y342000D02*
X239950D01*
X406150Y187500D02*
Y198100D01*
X389101Y206000D02*
X403880D01*
X167442Y107250D02*
X167442D01*
X505856Y221550D02*
Y238264D01*
X418850Y170350D02*
Y187500D01*
X529776Y265704D02*
X530250Y266178D01*
X280625Y196000D02*
Y203728D01*
X269250Y215103D02*
X280625Y203728D01*
X203500Y248250D02*
X210500Y241250D01*
X197000Y328500D02*
X197850Y329350D01*
X54050Y316650D02*
X85900D01*
X97000Y21500D02*
X133000Y57500D01*
X68000Y21500D02*
X97000D01*
X552050Y271300D02*
X576500D01*
X587050Y260750D01*
X620694D01*
X625444Y265500D01*
X627750D01*
X730000Y250500D02*
X730750Y249750D01*
Y191000D02*
Y249750D01*
X212125Y57500D02*
X217750D01*
X419771Y163008D02*
X419850Y163088D01*
Y187500D01*
X389500Y206399D02*
Y209500D01*
X389101Y206000D02*
X389500Y206399D01*
X570000Y291250D02*
Y296650D01*
X570050Y296700D01*
X254890Y241250D02*
X269500Y226639D01*
Y222500D02*
Y226639D01*
X269250Y215103D02*
Y221750D01*
X210500Y241250D02*
X254890D01*
X98500Y329250D02*
X197000D01*
X85900Y316650D02*
X98500Y329250D01*
X730750Y173000D02*
Y191000D01*
X442000Y198500D02*
Y207307D01*
X730750Y124000D02*
Y142000D01*
X252870Y350870D02*
X259750D01*
X251000Y349000D02*
X252870Y350870D01*
X251000Y345250D02*
Y349000D01*
X247800Y342050D02*
X251000Y345250D01*
X239950Y342050D02*
X247800D01*
X254815Y335630D02*
X259750D01*
X251943Y332758D02*
X254815Y335630D01*
X251943Y331943D02*
Y332758D01*
X249350Y329350D02*
X251943Y331943D01*
X239950Y329350D02*
X249350D01*
X65600D02*
X68250Y332000D01*
X54050Y329350D02*
X65600D01*
X197850D02*
X239950D01*
X197000Y328500D02*
Y329250D01*
X203500Y248250D02*
X204000D01*
X406400Y240750D02*
X420775D01*
X422000Y239525D01*
X441833D01*
X442000Y239692D01*
X506150Y208850D02*
X519500D01*
X502000Y213000D02*
X506150Y208850D01*
X502000Y213000D02*
Y218750D01*
X419120Y187770D02*
Y206000D01*
X403880Y200370D02*
Y206000D01*
Y200370D02*
X406150Y198100D01*
X467500Y196150D02*
X478350D01*
X479750Y194750D01*
X496500Y207500D02*
X502000Y213000D01*
X479750Y194750D02*
X490056D01*
X496500Y201194D01*
Y207500D01*
X730750Y142000D02*
Y173000D01*
X442000Y198500D02*
X457050Y183450D01*
X467500D01*
X502000Y218750D02*
X503056D01*
X505856Y221550D01*
X42650Y316650D02*
X54050D01*
X505620Y238500D02*
X505856Y238264D01*
Y221550D02*
X519500D01*
Y226250D01*
X517130Y228620D02*
X519500Y226250D01*
X517130Y228620D02*
Y236750D01*
X515000Y310000D02*
X529000D01*
X533500Y305500D01*
Y290000D02*
Y305500D01*
X548250Y282500D02*
X552050Y278700D01*
Y271300D02*
Y278700D01*
X529776Y265704D02*
X530025Y265455D01*
X39880Y313880D02*
X42650Y316650D01*
X533500Y290000D02*
X541000Y282500D01*
X548250D01*
X530025Y265455D02*
X538230Y257250D01*
X548500D01*
X551796Y253954D01*
Y245900D02*
Y253954D01*
X530250Y266178D02*
Y276250D01*
X62750Y127750D02*
Y133000D01*
X14000Y314130D02*
X14250Y313880D01*
X39880D01*
X133000Y57500D02*
X212125D01*
X150750Y110500D02*
X167442D01*
X149750Y109500D02*
X150750Y110500D01*
D58*
X470250Y119750D02*
X471250Y120750D01*
X501880Y43500D02*
X502774Y44394D01*
X474500Y35250D02*
Y51115D01*
X363500Y356250D02*
X396000Y388750D01*
X285750Y380500D02*
X311500D01*
X456415Y63630D02*
X462523Y57523D01*
X450500Y63630D02*
X456415D01*
X389980Y14000D02*
X465750D01*
X599000Y165120D02*
X600130Y166250D01*
X666500Y107250D02*
X669245Y104505D01*
X517120Y43500D02*
Y50620D01*
X431550Y187500D02*
Y198822D01*
X103500Y305000D02*
X218000D01*
X291264Y265013D02*
Y267986D01*
X291764Y268486D01*
X258380Y255880D02*
X282000D01*
X267500Y255630D02*
X269130Y254000D01*
Y243250D02*
Y254000D01*
X255000Y252500D02*
X258380Y255880D01*
X289130Y271120D02*
X291764Y268486D01*
X282000Y271120D02*
X289130D01*
X453307Y109000D02*
Y116073D01*
X692870Y173250D02*
X707250D01*
X731000Y30750D02*
X732500Y32250D01*
X647500Y103000D02*
Y112750D01*
X257500Y271000D02*
X263026D01*
X635761Y324750D02*
X644250Y316261D01*
X592272Y361750D02*
X626636Y327386D01*
X629522Y324750D02*
X635761D01*
X626886Y327386D02*
X629522Y324750D01*
X626636Y327386D02*
X626886D01*
X670533Y48752D02*
X675264D01*
X644250Y308000D02*
Y316261D01*
X653250Y256500D02*
Y274750D01*
X644250Y308000D02*
X655000Y297250D01*
Y276500D02*
Y297250D01*
X653250Y274750D02*
X655000Y276500D01*
X453240Y168250D02*
X456880D01*
X438990Y154000D02*
X453240Y168250D01*
X405750Y154000D02*
X438990D01*
X394450Y165300D02*
Y187500D01*
Y165300D02*
X405750Y154000D01*
X446250Y135158D02*
X456000Y144908D01*
X446250Y122218D02*
Y135158D01*
X456000Y144908D02*
Y145120D01*
X432550Y111800D02*
Y118000D01*
X280205Y294955D02*
X280250Y295000D01*
X304250Y294205D02*
X316045D01*
X313500Y276250D02*
X313750Y276000D01*
X637880Y30045D02*
Y33250D01*
X634585Y26750D02*
X637880Y30045D01*
X623500Y26750D02*
X634585D01*
X644870Y34250D02*
X645370Y34750D01*
X644870Y33250D02*
Y34250D01*
X637880Y33250D02*
X644870D01*
X623250Y26500D02*
X623500Y26750D01*
X616321Y26500D02*
X623250D01*
X606250Y25642D02*
Y34250D01*
X89750Y291250D02*
X103500Y305000D01*
X661032Y377768D02*
Y389792D01*
X661490Y390250D01*
X172250Y263250D02*
X217750D01*
X172000Y263500D02*
X172250Y263250D01*
X313750Y265370D02*
Y276000D01*
X541250Y135750D02*
X546488Y130512D01*
Y130500D02*
Y130512D01*
X612750Y120750D02*
Y123213D01*
X611750Y48500D02*
Y76500D01*
X611000Y47750D02*
X611750Y48500D01*
X313775Y315795D02*
Y324325D01*
X316515Y327065D01*
X313525Y334475D02*
X316515Y331485D01*
Y329516D02*
Y331485D01*
Y327065D02*
Y329516D01*
X313525Y334475D02*
Y352545D01*
X548500Y421620D02*
X554120D01*
X557550Y425050D01*
X595700D01*
X602700Y418050D02*
X614000D01*
X672750Y410750D02*
Y413500D01*
X633870Y420240D02*
X633880Y420250D01*
X633870Y406370D02*
Y420240D01*
Y391130D02*
X633880Y391120D01*
Y375000D02*
Y391120D01*
X645370Y391130D02*
X646250Y390250D01*
X633870Y391130D02*
X645370D01*
X632350Y392650D02*
X633870Y391130D01*
X614000Y392650D02*
X632350D01*
X645130Y406370D02*
X646250Y405250D01*
X633870Y406370D02*
X645130D01*
X632850Y405350D02*
X633870Y406370D01*
X614000Y405350D02*
X632850D01*
X54050Y265850D02*
X111850D01*
X54050Y278550D02*
X99050D01*
X446250Y122218D02*
X451338Y117130D01*
X452250D01*
X453307Y116073D01*
X499795Y34795D02*
X501880Y36880D01*
Y43500D01*
X675758Y48258D02*
X677370Y49870D01*
Y58000D01*
X518250Y59000D02*
X532750D01*
X662000Y103000D02*
X662250D01*
X643620Y90620D02*
X648750D01*
X650750D01*
X640000Y114000D02*
X646250D01*
X655000Y133525D02*
X655225Y133750D01*
X655000Y124475D02*
Y133525D01*
Y124475D02*
X657130Y122345D01*
Y116750D02*
Y122345D01*
X649000Y116750D02*
X657130D01*
X646250Y114000D02*
X649000Y116750D01*
X646250Y114000D02*
X647500Y112750D01*
X619679Y109000D02*
X629250D01*
X591278Y94278D02*
Y101972D01*
X612750Y120750D02*
X616750Y116750D01*
X517120Y50620D02*
X518500Y52000D01*
X601250Y126000D02*
Y135750D01*
X417600Y392600D02*
Y410250D01*
Y414750D01*
X261750Y326250D02*
X268750D01*
X259225Y323725D02*
X261750Y326250D01*
X259225Y316545D02*
Y323725D01*
X288000Y326250D02*
X292000D01*
X294725Y323525D01*
Y315795D02*
Y323525D01*
X296273Y330955D02*
X304000D01*
X291598Y335630D02*
X296273Y330955D01*
X278250Y335630D02*
X291598D01*
X295750Y343750D02*
X303250D01*
X294475Y345025D02*
X295750Y343750D01*
X294475Y345025D02*
Y352545D01*
X313525Y316045D02*
X313775Y315795D01*
X278250Y335630D02*
X278275Y335605D01*
Y316545D02*
Y335605D01*
X217750Y305250D02*
X218000Y305000D01*
X162300Y278550D02*
X239950D01*
X150250Y266500D02*
X162300Y278550D01*
X126750Y291250D02*
X239950D01*
X268750Y294955D02*
X280205D01*
X103250Y244500D02*
X153000D01*
X102500Y245250D02*
X103250Y244500D01*
X124500Y289000D02*
X126750Y291250D01*
X109500Y289000D02*
X124500D01*
X99050Y278550D02*
X109500Y289000D01*
X112500Y266500D02*
X150250D01*
X111850Y265850D02*
X112500Y266500D01*
X413750Y388750D02*
X417600Y392600D01*
X396000Y388750D02*
X413750D01*
X419120Y206000D02*
X424372D01*
X431550Y198822D01*
X467500Y208850D02*
X484650D01*
X470000Y224050D02*
Y234630D01*
X467500Y221550D02*
X470000Y224050D01*
X629250Y89000D02*
X642000D01*
X643620Y90620D01*
X541250Y135750D02*
Y147000D01*
X601046Y126000D02*
X601250D01*
X153000Y244500D02*
X172000Y263500D01*
X239950Y303950D02*
X252800D01*
X261795Y294955D01*
X268750D01*
X532750Y405718D02*
Y407000D01*
X502774Y53774D02*
X508000Y59000D01*
X518250D01*
X502774Y44394D02*
Y53774D01*
X661490Y405250D02*
X667250D01*
X672750Y410750D01*
X616750Y111929D02*
X619679Y109000D01*
X616750Y111929D02*
Y116750D01*
X595700Y425050D02*
X602700Y418050D01*
X553500Y377051D02*
Y377250D01*
X551250Y379500D02*
X553500Y377250D01*
Y377051D02*
X568801Y361750D01*
X592272D01*
X551250Y379500D02*
Y387218D01*
X532750Y405718D02*
X551250Y387218D01*
X54050Y291250D02*
X89750D01*
X311500Y380500D02*
X317750Y386750D01*
X662250Y103000D02*
X666500Y107250D01*
X669245Y104505D02*
X671533D01*
X428000Y101630D02*
Y107250D01*
X427870Y101500D02*
X428000Y101630D01*
Y107250D02*
X432550Y111800D01*
X419850Y108720D02*
Y119500D01*
X412630Y101500D02*
X419850Y108720D01*
X499795Y33025D02*
X505475D01*
X509000Y29500D01*
X515370D01*
X515500Y29370D01*
X499795Y33025D02*
Y34795D01*
X456630Y165750D02*
X456880Y165500D01*
X456130Y129750D02*
X471250D01*
X456000Y129880D02*
X456130Y129750D01*
X456000Y145120D02*
X460380D01*
X466250Y139250D01*
X471250D01*
X476000Y106250D02*
X485692D01*
X484750Y125500D02*
X488000Y122250D01*
X494500D01*
X498000Y118750D01*
X484750Y125500D02*
Y141250D01*
X470250Y119750D02*
X471000D01*
Y111250D02*
X476000Y106250D01*
X471250Y120750D02*
Y129750D01*
X471000Y111250D02*
Y119750D01*
X490500Y95350D02*
X492500Y97350D01*
X495350D01*
X498000Y100000D01*
X490500Y90750D02*
Y95350D01*
X498000Y100000D02*
Y118750D01*
X452620Y92000D02*
Y108313D01*
X453307Y109000D01*
X454058Y109750D01*
X466500Y71750D02*
X474250D01*
X476000Y70000D01*
Y52615D02*
Y70000D01*
X474500Y51115D02*
X476000Y52615D01*
X462523Y58253D02*
Y61523D01*
X466500Y65500D01*
Y71750D01*
X389955Y13975D02*
X389980Y14000D01*
X498370Y168250D02*
X508750D01*
X509250Y168750D01*
X524880Y149370D02*
Y166250D01*
Y149370D02*
X527500Y146750D01*
X536000D01*
X536250Y147000D01*
X540120Y166250D02*
X541250Y165120D01*
Y147000D02*
Y165120D01*
X606250Y147000D02*
Y157380D01*
X614120Y165250D01*
X598750Y165120D02*
X599000D01*
X601250Y147000D02*
Y162620D01*
X598750Y165120D02*
X601250Y162620D01*
X465750Y14000D02*
Y26422D01*
X469059Y29731D01*
Y29809D01*
X474500Y35250D01*
X675264Y48752D02*
X675758Y48258D01*
X467500Y221550D02*
X484700D01*
X518250Y54000D02*
X525750D01*
X530000Y49750D01*
X538728D01*
X540065Y51087D01*
X541913D01*
X542000Y51000D01*
X34657Y274000D02*
X37500Y276843D01*
X39000Y262000D02*
X42850Y265850D01*
X54050D01*
X36935Y268500D02*
X43000Y274565D01*
Y276550D01*
X45000Y278550D01*
X54050D01*
X37500Y293500D02*
X38000Y294000D01*
X37500Y276843D02*
Y293500D01*
X635120Y192250D02*
Y203370D01*
X640136Y208386D01*
Y243386D01*
X653250Y256500D01*
X655000Y362000D02*
X669250D01*
X649500Y356500D02*
X655000Y362000D01*
X639000Y356500D02*
X649500D01*
X673500Y366250D02*
Y373630D01*
X649120Y369120D02*
Y375000D01*
X645500Y365500D02*
X649120Y369120D01*
X639681Y365500D02*
X645500D01*
X638500Y364319D02*
X639681Y365500D01*
X638500Y357000D02*
Y364319D01*
X669250Y362000D02*
X673500Y366250D01*
X19000Y276500D02*
X21500Y274000D01*
X19000Y276500D02*
Y281000D01*
X21500Y274000D02*
X34657D01*
X24500Y287500D02*
X25500Y286500D01*
Y281000D02*
Y286500D01*
X25500Y281000D02*
X25500Y281000D01*
X19000Y266750D02*
X20750Y268500D01*
X19000Y262000D02*
Y266750D01*
X19000Y262000D02*
X19000Y262000D01*
X20750Y268500D02*
X36935D01*
X25500Y262000D02*
X39000D01*
X24500Y287500D02*
Y296250D01*
X14000Y306750D02*
X24500Y296250D01*
X14000Y306750D02*
Y314130D01*
X39500Y236500D02*
X44000Y232000D01*
X39500Y236500D02*
Y246250D01*
X30750Y255000D02*
X39500Y246250D01*
X15500Y255000D02*
X30750D01*
X12500Y258000D02*
X15500Y255000D01*
X12500Y258000D02*
Y262000D01*
X64750Y232000D02*
X78000Y245250D01*
X102500D01*
X44000Y232000D02*
X64750D01*
X132500Y95870D02*
Y107942D01*
X135057Y110500D01*
X132500Y80630D02*
X137630Y75500D01*
X143000D01*
X181750Y95880D02*
X190000D01*
X195620Y101500D01*
X212125D01*
D59*
X591250Y36000D02*
Y55250D01*
X312375Y191250D02*
Y196000D01*
X314620Y196995D02*
Y226250D01*
X313625Y196000D02*
X314620Y196995D01*
X313750Y227120D02*
Y250130D01*
Y227120D02*
X314620Y226250D01*
X301375Y191250D02*
Y196000D01*
X290375Y191250D02*
Y196000D01*
X291558Y237630D02*
X296500D01*
X287000Y233071D02*
X291558Y237630D01*
X287000Y221250D02*
Y233071D01*
X279250Y219870D02*
Y232393D01*
X284370Y237512D01*
Y243250D01*
X279250Y219870D02*
X291625Y207495D01*
X287000Y221250D02*
X302625Y205625D01*
X291625Y196000D02*
Y207495D01*
X603260Y192870D02*
X603880Y192250D01*
X619880D01*
X591500Y55000D02*
X592750D01*
X302625Y196000D02*
Y205625D01*
X610500Y86750D02*
X617750Y94000D01*
X626750D01*
X591250Y55250D02*
X591500Y55000D01*
X589500Y192870D02*
X603260D01*
D60*
X143250Y424500D02*
X161250D01*
X125000Y420000D02*
X131750D01*
X169250Y416500D02*
X178000D01*
X161250Y424500D02*
X169250Y416500D01*
X125000Y421250D02*
X128250Y424500D01*
X131750Y420000D02*
X136250Y424500D01*
X128250D02*
X136250D01*
X143250D01*
D61*
X257500Y397750D02*
X299478D01*
X305728Y404000D01*
X248750Y374250D02*
Y389000D01*
X257500Y397750D01*
D62*
X184750Y123000D02*
Y143750D01*
X14500Y183000D02*
X14500Y183000D01*
X305728Y404000D02*
X335750D01*
X336750Y405000D01*
X442000Y239692D02*
X456942D01*
X137500Y217500D02*
X145000Y210000D01*
X60220Y205250D02*
X72470Y217500D01*
X60220Y183000D02*
Y205250D01*
X72470Y217500D02*
X137500D01*
X14500Y183000D02*
X21250D01*
X33500Y153135D02*
Y170750D01*
Y153135D02*
X50135Y136500D01*
X50466D01*
X21250Y183000D02*
X33500Y170750D01*
X176000Y82000D02*
X189500Y68500D01*
X193250D01*
X161750Y82000D02*
X176000D01*
X161750D02*
Y94250D01*
X167750Y100250D01*
Y106943D01*
X167442Y107250D02*
Y110500D01*
X167442Y110500D01*
X167442Y107250D02*
X167442Y107250D01*
D63*
X245750Y220500D02*
X258625Y207625D01*
Y196000D02*
Y207625D01*
D64*
X345000Y290000D02*
X345500Y290500D01*
X369750D01*
D65*
X59250Y136500D02*
X62750Y133000D01*
X50466Y136500D02*
X59250D01*
D66*
X550750Y176250D02*
D03*
X559500Y164500D02*
D03*
X35500Y132750D02*
D03*
Y88750D02*
D03*
D67*
X16000Y99000D02*
D03*
X68000Y21500D02*
D03*
D68*
X15750Y129750D02*
D03*
D69*
X676250Y320000D02*
D03*
Y285000D02*
D03*
X92500Y95000D02*
D03*
Y60000D02*
D03*
Y147500D02*
D03*
Y172500D02*
D03*
D70*
X676250Y250000D02*
D03*
X92500Y122500D02*
D03*
D71*
X69000Y399000D02*
D03*
X707750Y108500D02*
D03*
Y157500D02*
D03*
D72*
X532750Y407250D02*
D03*
X516750D02*
D03*
D73*
X532750Y382250D02*
D03*
X516750Y382250D02*
D03*
D74*
X336750Y405000D02*
D03*
X152250Y405250D02*
D03*
X245750Y220500D02*
D03*
D75*
X415500Y44250D02*
D03*
X413250Y61500D02*
D03*
D76*
X694500Y13500D02*
D03*
D77*
X669100D02*
D03*
X643700D02*
D03*
X618300D02*
D03*
X592900D02*
D03*
X567500D02*
D03*
D78*
X705000Y45000D02*
D03*
Y395000D02*
D03*
D79*
X30000D02*
D03*
Y45000D02*
D03*
M02*
