G04 Layer_Color=16711935*
%FSLAX44Y44*%
%MOMM*%
G71*
G01*
G75*
%ADD16C,1.0000*%
%ADD55C,0.2000*%
%ADD74C,2.0000*%
%ADD89C,2.0000*%
G04:AMPARAMS|DCode=90|XSize=1.2372mm|YSize=1.6232mm|CornerRadius=0.3601mm|HoleSize=0mm|Usage=FLASHONLY|Rotation=180.000|XOffset=0mm|YOffset=0mm|HoleType=Round|Shape=RoundedRectangle|*
%AMROUNDEDRECTD90*
21,1,1.2372,0.9030,0,0,180.0*
21,1,0.5170,1.6232,0,0,180.0*
1,1,0.7202,-0.2585,0.4515*
1,1,0.7202,0.2585,0.4515*
1,1,0.7202,0.2585,-0.4515*
1,1,0.7202,-0.2585,-0.4515*
%
%ADD90ROUNDEDRECTD90*%
G04:AMPARAMS|DCode=91|XSize=1.2372mm|YSize=1.6232mm|CornerRadius=0.3601mm|HoleSize=0mm|Usage=FLASHONLY|Rotation=90.000|XOffset=0mm|YOffset=0mm|HoleType=Round|Shape=RoundedRectangle|*
%AMROUNDEDRECTD91*
21,1,1.2372,0.9030,0,0,90.0*
21,1,0.5170,1.6232,0,0,90.0*
1,1,0.7202,0.4515,0.2585*
1,1,0.7202,0.4515,-0.2585*
1,1,0.7202,-0.4515,-0.2585*
1,1,0.7202,-0.4515,0.2585*
%
%ADD91ROUNDEDRECTD91*%
G04:AMPARAMS|DCode=92|XSize=1.4532mm|YSize=2.0432mm|CornerRadius=0.4141mm|HoleSize=0mm|Usage=FLASHONLY|Rotation=90.000|XOffset=0mm|YOffset=0mm|HoleType=Round|Shape=RoundedRectangle|*
%AMROUNDEDRECTD92*
21,1,1.4532,1.2150,0,0,90.0*
21,1,0.6250,2.0432,0,0,90.0*
1,1,0.8282,0.6075,0.3125*
1,1,0.8282,0.6075,-0.3125*
1,1,0.8282,-0.6075,-0.3125*
1,1,0.8282,-0.6075,0.3125*
%
%ADD92ROUNDEDRECTD92*%
%ADD128C,1.4032*%
%ADD134R,1.5532X1.5532*%
%ADD135C,1.5532*%
%ADD136C,2.2032*%
%ADD137C,1.5032*%
G04:AMPARAMS|DCode=138|XSize=1.8032mm|YSize=1.7032mm|CornerRadius=0.4766mm|HoleSize=0mm|Usage=FLASHONLY|Rotation=180.000|XOffset=0mm|YOffset=0mm|HoleType=Round|Shape=RoundedRectangle|*
%AMROUNDEDRECTD138*
21,1,1.8032,0.7500,0,0,180.0*
21,1,0.8500,1.7032,0,0,180.0*
1,1,0.9532,-0.4250,0.3750*
1,1,0.9532,0.4250,0.3750*
1,1,0.9532,0.4250,-0.3750*
1,1,0.9532,-0.4250,-0.3750*
%
%ADD138ROUNDEDRECTD138*%
%ADD139O,1.8032X1.7032*%
%ADD140C,4.7032*%
%ADD141C,5.7032*%
%ADD142C,0.2540*%
%ADD143R,0.7032X0.6032*%
G04:AMPARAMS|DCode=144|XSize=1.5mm|YSize=1.5mm|CornerRadius=0.25mm|HoleSize=0mm|Usage=FLASHONLY|Rotation=0.000|XOffset=0mm|YOffset=0mm|HoleType=Round|Shape=RoundedRectangle|*
%AMROUNDEDRECTD144*
21,1,1.5000,1.0000,0,0,0.0*
21,1,1.0000,1.5000,0,0,0.0*
1,1,0.5000,0.5000,-0.5000*
1,1,0.5000,-0.5000,-0.5000*
1,1,0.5000,-0.5000,0.5000*
1,1,0.5000,0.5000,0.5000*
%
%ADD144ROUNDEDRECTD144*%
%ADD145C,1.8000*%
%ADD146R,1.5000X1.5000*%
%ADD147R,1.5000X1.5000*%
%ADD148C,1.1000*%
%ADD149C,1.3000*%
D16*
X69000Y399000D02*
D03*
D55*
X70752Y248250D02*
G03*
X70752Y248250I-20252J0D01*
G01*
X14250Y149998D02*
X7585D01*
X10918Y153331D02*
Y146666D01*
X15000Y78998D02*
X8335D01*
X713335Y322831D02*
X715002Y324497D01*
X718334D01*
X720000Y322831D01*
Y316166D01*
X718334Y314500D01*
X715002D01*
X713335Y316166D01*
Y319498D01*
X716668D01*
X710003Y314500D02*
Y324497D01*
X703339Y314500D01*
Y324497D01*
X700006D02*
Y314500D01*
X695008D01*
X693342Y316166D01*
Y322831D01*
X695008Y324497D01*
X700006D01*
X713750Y280250D02*
Y290247D01*
X708752D01*
X707085Y288581D01*
Y285248D01*
X708752Y283582D01*
X713750D01*
X710418D02*
X707085Y280250D01*
X703753Y290247D02*
X697089Y280250D01*
Y290247D02*
X703753Y280250D01*
X709000Y250248D02*
X702336D01*
X705668Y253581D02*
Y246916D01*
X74500Y73248D02*
X67835D01*
X71168Y76581D02*
Y69916D01*
X64503Y78247D02*
Y68250D01*
X59505D01*
X57839Y69916D01*
Y71582D01*
X59505Y73248D01*
X64503D01*
X59505D01*
X57839Y74914D01*
Y76581D01*
X59505Y78247D01*
X64503D01*
X74250Y97248D02*
X67586D01*
X64253Y102247D02*
Y92250D01*
X59255D01*
X57589Y93916D01*
Y95582D01*
X59255Y97248D01*
X64253D01*
X59255D01*
X57589Y98914D01*
Y100581D01*
X59255Y102247D01*
X64253D01*
X70002Y127497D02*
X73334D01*
X75000Y125831D01*
Y119166D01*
X73334Y117500D01*
X70002D01*
X68335Y119166D01*
Y125831D01*
X70002Y127497D01*
X65003D02*
Y119166D01*
X63337Y117500D01*
X60005D01*
X58339Y119166D01*
Y127497D01*
X55006D02*
X48342D01*
X51674D01*
Y117500D01*
X75250Y177497D02*
X71918D01*
X73584D01*
Y167500D01*
X75250D01*
X71918D01*
X66919D02*
Y174165D01*
X61921D01*
X60255Y172498D01*
Y167500D01*
X50258D02*
X56923D01*
X50258Y174165D01*
Y175831D01*
X51924Y177497D01*
X55256D01*
X56923Y175831D01*
X75250Y151247D02*
X71918D01*
X73584D01*
Y141250D01*
X75250D01*
X71918D01*
X66919D02*
Y147914D01*
X61921D01*
X60255Y146248D01*
Y141250D01*
X56923D02*
X53590D01*
X55256D01*
Y151247D01*
X56923Y149581D01*
X74500Y374500D02*
X71168D01*
X72834D01*
Y384497D01*
X74500Y382831D01*
X66169Y384497D02*
Y374500D01*
X62837Y377832D01*
X59505Y374500D01*
Y384497D01*
X98500Y407747D02*
Y397750D01*
X93502D01*
X91835Y399416D01*
Y401082D01*
X93502Y402748D01*
X98500D01*
X93502D01*
X91835Y404414D01*
Y406081D01*
X93502Y407747D01*
X98500D01*
X52000Y421000D02*
Y427664D01*
X48668Y430997D01*
X45335Y427664D01*
Y421000D01*
Y425998D01*
X52000D01*
X56836Y253580D02*
X59002Y255746D01*
X63334D01*
X65500Y253580D01*
Y244916D01*
X63334Y242750D01*
X59002D01*
X56836Y244916D01*
Y249248D01*
X61168D01*
X52504Y255746D02*
Y242750D01*
X46006D01*
X43840Y244916D01*
Y253580D01*
X46006Y255746D01*
X52504D01*
X39508Y242750D02*
X35176D01*
X37342D01*
Y251414D01*
X39508D01*
D74*
X16000Y99000D02*
D03*
D89*
X727250Y421750D02*
D03*
X10000Y423750D02*
D03*
X728750Y17750D02*
D03*
D90*
X699975Y216500D02*
D03*
X719025D02*
D03*
D91*
X81000Y314475D02*
D03*
Y333525D02*
D03*
D92*
X370500Y387260D02*
D03*
Y417740D02*
D03*
D128*
X550750Y176250D02*
D03*
X559500Y164500D02*
D03*
X35500Y132750D02*
D03*
Y88750D02*
D03*
D134*
X532750Y407250D02*
D03*
X516750D02*
D03*
D135*
X532750Y382250D02*
D03*
X516750Y382250D02*
D03*
D136*
X336750Y405000D02*
D03*
X152250Y405250D02*
D03*
D137*
X415500Y44250D02*
D03*
X413250Y61500D02*
D03*
D138*
X694500Y13500D02*
D03*
D139*
X669100D02*
D03*
X643700D02*
D03*
X618300D02*
D03*
X592900D02*
D03*
X567500D02*
D03*
D140*
X705000Y45000D02*
D03*
Y395000D02*
D03*
D141*
X30000D02*
D03*
Y45000D02*
D03*
D142*
X127500Y402248D02*
X120836D01*
X124168Y405581D02*
Y398916D01*
D143*
X92750Y283500D02*
D03*
Y290000D02*
D03*
Y296500D02*
D03*
X111750D02*
D03*
Y290000D02*
D03*
Y283500D02*
D03*
D144*
X65000Y421000D02*
D03*
X95000D02*
D03*
X125000D02*
D03*
D145*
X15750Y129750D02*
D03*
X68000Y21500D02*
D03*
D146*
X676250Y320000D02*
D03*
Y285000D02*
D03*
X92500Y95000D02*
D03*
Y60000D02*
D03*
Y147500D02*
D03*
Y172500D02*
D03*
D147*
X676250Y250000D02*
D03*
X92500Y122500D02*
D03*
D148*
X707750Y108500D02*
D03*
Y157500D02*
D03*
D149*
X245750Y220500D02*
D03*
M02*
